M48
; DRILL file {KiCad 9.0.5-9.0.5~ubuntu24.04.1} date 2025-11-01T17:01:05+0900
; FORMAT={-:-/ absolute / inch / decimal}
; #@! TF.CreationDate,2025-11-01T17:01:05+09:00
; #@! TF.GenerationSoftware,Kicad,Pcbnew,9.0.5-9.0.5~ubuntu24.04.1
; #@! TF.FileFunction,Plated,1,2,PTH
FMAT,2
INCH
; #@! TA.AperFunction,Plated,PTH,ViaDrill
T1C0.0118
; #@! TA.AperFunction,Plated,PTH,ComponentDrill
T2C0.0315
; #@! TA.AperFunction,Plated,PTH,ComponentDrill
T3C0.0320
; #@! TA.AperFunction,Plated,PTH,ComponentDrill
T4C0.0394
; #@! TA.AperFunction,Plated,PTH,ComponentDrill
T5C0.0591
; #@! TA.AperFunction,Plated,PTH,ComponentDrill
T6C0.0984
%
G90
G05
T1
X1.4626Y-4.8031
X1.9047Y-4.3926
X2.047Y-4.4224
X2.7769Y-4.4291
T2
X2.126Y-4.2882
X2.126Y-4.6882
X2.6969Y-4.1535
X2.7756Y-4.1535
X2.8543Y-4.1535
X3.3858Y-4.2882
X3.3858Y-4.6882
T3
X3.5386Y-4.1291
X3.5386Y-4.2291
X3.5386Y-4.3291
X3.5386Y-4.4291
X3.8386Y-4.1291
X3.8386Y-4.2291
X3.8386Y-4.3291
X3.8386Y-4.4291
T4
X1.2953Y-4.4449
X1.4921Y-4.4449
X1.9047Y-4.1142
X2.0047Y-4.1142
X2.1047Y-4.1142
X2.2047Y-4.1142
X2.3047Y-4.1142
X2.4047Y-4.1142
X2.6016Y-4.313
X2.7016Y-4.313
X2.8016Y-4.313
X2.9016Y-4.313
T5
X2.5846Y-4.1535
X2.9665Y-4.1535
T6
G00X2.3583Y-4.3091
M15
G01X2.2795Y-4.3091
M16
G05
G00X2.3583Y-5.2579
M15
G01X2.2795Y-5.2579
M16
G05
G00X3.2283Y-4.3091
M15
G01X3.1496Y-4.3091
M16
G05
G00X3.2323Y-5.2579
M15
G01X3.1535Y-5.2579
M16
G05
M30
