%TF.GenerationSoftware,KiCad,Pcbnew,9.0.5-9.0.5~ubuntu24.04.1*%
%TF.CreationDate,2025-11-01T17:00:46+09:00*%
%TF.ProjectId,gopher-arcade,676f7068-6572-42d6-9172-636164652e6b,rev?*%
%TF.SameCoordinates,Original*%
%TF.FileFunction,Legend,Top*%
%TF.FilePolarity,Positive*%
%FSLAX46Y46*%
G04 Gerber Fmt 4.6, Leading zero omitted, Abs format (unit mm)*
G04 Created by KiCad (PCBNEW 9.0.5-9.0.5~ubuntu24.04.1) date 2025-11-01 17:00:46*
%MOMM*%
%LPD*%
G01*
G04 APERTURE LIST*
%ADD10C,0.120000*%
%ADD11C,0.152400*%
%ADD12C,0.254000*%
%ADD13C,0.127000*%
G04 APERTURE END LIST*
D10*
%TO.C,R2*%
X86000000Y-109960000D02*
X86000000Y-110730000D01*
X86000000Y-118040000D02*
X86000000Y-117270000D01*
X84630000Y-117270000D02*
X87370000Y-117270000D01*
X87370000Y-110730000D01*
X84630000Y-110730000D01*
X84630000Y-117270000D01*
%TO.C,Brd1*%
X56300000Y-107850000D02*
X83700000Y-107850000D01*
X56300000Y-135150000D02*
X56300000Y-107850000D01*
X56722000Y-111145000D02*
X79822000Y-111145000D01*
X56722000Y-127745000D02*
X56722000Y-111145000D01*
X65001000Y-108339000D02*
X65001000Y-110752000D01*
X65001000Y-108339000D02*
X74780000Y-108339000D01*
X74780000Y-108339000D02*
X74780000Y-110752000D01*
X74780000Y-110752000D02*
X65001000Y-110752000D01*
X79822000Y-111145000D02*
X82908000Y-111145000D01*
X79822000Y-127745000D02*
X56722000Y-127745000D01*
X79822000Y-127745000D02*
X83162000Y-127770000D01*
X83162000Y-111133000D02*
X82908000Y-111145000D01*
X83162000Y-127770000D02*
X83162000Y-111133000D01*
X83700000Y-107850000D02*
X83700000Y-135150000D01*
X83700000Y-135150000D02*
X56300000Y-135150000D01*
%TO.C,R1*%
X54000000Y-109960000D02*
X54000000Y-110730000D01*
X54000000Y-118040000D02*
X54000000Y-117270000D01*
X52630000Y-117270000D02*
X55370000Y-117270000D01*
X55370000Y-110730000D01*
X52630000Y-110730000D01*
X52630000Y-117270000D01*
%TO.C,J1*%
X47000000Y-105880000D02*
X47000000Y-104500000D01*
X48380000Y-105880000D02*
X47000000Y-105880000D01*
X49650000Y-103120000D02*
X62460000Y-103120000D01*
X49650000Y-105880000D02*
X49650000Y-103120000D01*
X49650000Y-105880000D02*
X62460000Y-105880000D01*
X62460000Y-105880000D02*
X62460000Y-103120000D01*
D11*
%TO.C,U1*%
X90515000Y-104055000D02*
X96865000Y-104055000D01*
X96865000Y-113325000D02*
X90515000Y-113325000D01*
D12*
X89941000Y-103736000D02*
G75*
G02*
X89687000Y-103736000I-127000J0D01*
G01*
X89687000Y-103736000D02*
G75*
G02*
X89941000Y-103736000I127000J0D01*
G01*
D13*
X92369903Y-105261000D02*
G75*
G02*
X91454097Y-105261000I-457903J0D01*
G01*
X91454097Y-105261000D02*
G75*
G02*
X92369903Y-105261000I457903J0D01*
G01*
%TO.C,S1*%
X65500000Y-103500000D02*
X68500000Y-103500000D01*
X65500000Y-104200000D02*
X65500000Y-103500000D01*
X65500000Y-107500000D02*
X65500000Y-106800000D01*
X68500000Y-103500000D02*
X70500000Y-103500000D01*
X70500000Y-103500000D02*
X72500000Y-103500000D01*
X72500000Y-103500000D02*
X75500000Y-103500000D01*
X75500000Y-104200000D02*
X75500000Y-103500000D01*
X75500000Y-107500000D02*
X65500000Y-107500000D01*
X75500000Y-107500000D02*
X75500000Y-106800000D01*
%TD*%
M02*
