%TF.GenerationSoftware,KiCad,Pcbnew,9.0.3*%
%TF.CreationDate,2025-08-18T10:50:27+02:00*%
%TF.ProjectId,gopher-arcade,676f7068-6572-42d6-9172-636164652e6b,rev?*%
%TF.SameCoordinates,Original*%
%TF.FileFunction,Copper,L1,Top*%
%TF.FilePolarity,Positive*%
%FSLAX46Y46*%
G04 Gerber Fmt 4.6, Leading zero omitted, Abs format (unit mm)*
G04 Created by KiCad (PCBNEW 9.0.3) date 2025-08-18 10:50:27*
%MOMM*%
%LPD*%
G01*
G04 APERTURE LIST*
G04 Aperture macros list*
%AMRoundRect*
0 Rectangle with rounded corners*
0 $1 Rounding radius*
0 $2 $3 $4 $5 $6 $7 $8 $9 X,Y pos of 4 corners*
0 Add a 4 corners polygon primitive as box body*
4,1,4,$2,$3,$4,$5,$6,$7,$8,$9,$2,$3,0*
0 Add four circle primitives for the rounded corners*
1,1,$1+$1,$2,$3*
1,1,$1+$1,$4,$5*
1,1,$1+$1,$6,$7*
1,1,$1+$1,$8,$9*
0 Add four rect primitives between the rounded corners*
20,1,$1+$1,$2,$3,$4,$5,0*
20,1,$1+$1,$4,$5,$6,$7,0*
20,1,$1+$1,$6,$7,$8,$9,0*
20,1,$1+$1,$8,$9,$2,$3,0*%
G04 Aperture macros list end*
%TA.AperFunction,EtchedComponent*%
%ADD10C,0.000000*%
%TD*%
%TA.AperFunction,SMDPad,CuDef*%
%ADD11RoundRect,0.072500X-0.532500X-0.217500X0.532500X-0.217500X0.532500X0.217500X-0.532500X0.217500X0*%
%TD*%
%TA.AperFunction,ComponentPad*%
%ADD12C,2.600000*%
%TD*%
%TA.AperFunction,ComponentPad*%
%ADD13C,2.200000*%
%TD*%
%TA.AperFunction,ComponentPad*%
%ADD14C,1.600000*%
%TD*%
%TA.AperFunction,ComponentPad*%
%ADD15O,4.680000X2.690000*%
%TD*%
%TA.AperFunction,ComponentPad*%
%ADD16O,1.600000X2.000000*%
%TD*%
%TA.AperFunction,SMDPad,CuDef*%
%ADD17R,4.000000X1.450000*%
%TD*%
%TA.AperFunction,ComponentPad*%
%ADD18R,1.700000X1.700000*%
%TD*%
%TA.AperFunction,ComponentPad*%
%ADD19C,1.700000*%
%TD*%
%TA.AperFunction,ComponentPad*%
%ADD20R,1.320800X1.320800*%
%TD*%
%TA.AperFunction,ComponentPad*%
%ADD21C,1.320800*%
%TD*%
%TA.AperFunction,ComponentPad*%
%ADD22C,1.308000*%
%TD*%
%TA.AperFunction,ComponentPad*%
%ADD23C,2.250000*%
%TD*%
%TA.AperFunction,ViaPad*%
%ADD24C,0.600000*%
%TD*%
%TA.AperFunction,Conductor*%
%ADD25C,0.200000*%
%TD*%
G04 APERTURE END LIST*
D10*
%TA.AperFunction,EtchedComponent*%
%TO.C,G\u002A\u002A\u002A*%
G36*
X31476299Y-128584299D02*
G01*
X31511272Y-128591829D01*
X31553642Y-128607441D01*
X31556489Y-128608595D01*
X31638980Y-128652384D01*
X31699719Y-128708613D01*
X31739983Y-128778912D01*
X31761052Y-128864914D01*
X31761702Y-128870336D01*
X31763995Y-128913506D01*
X31759001Y-128954970D01*
X31745100Y-129004664D01*
X31735107Y-129033472D01*
X31683364Y-129152736D01*
X31622288Y-129249290D01*
X31552287Y-129322808D01*
X31473769Y-129372964D01*
X31387141Y-129399430D01*
X31292810Y-129401880D01*
X31277833Y-129400130D01*
X31169630Y-129377325D01*
X31082698Y-129340765D01*
X31016692Y-129290118D01*
X30971268Y-129225053D01*
X30946084Y-129145235D01*
X30940267Y-129073703D01*
X30949729Y-128995093D01*
X30975772Y-128911002D01*
X30987353Y-128886477D01*
X31221984Y-128886477D01*
X31228614Y-128897780D01*
X31251448Y-128905902D01*
X31285677Y-128904701D01*
X31319605Y-128895535D01*
X31336803Y-128885207D01*
X31355100Y-128859631D01*
X31360066Y-128840683D01*
X31354196Y-128824306D01*
X31332443Y-128817795D01*
X31315542Y-128817212D01*
X31278387Y-128823983D01*
X31246896Y-128841039D01*
X31226339Y-128863499D01*
X31221984Y-128886477D01*
X30987353Y-128886477D01*
X31014884Y-128828181D01*
X31063552Y-128753380D01*
X31118265Y-128693348D01*
X31151408Y-128667942D01*
X31205985Y-128635480D01*
X31254400Y-128613908D01*
X31306658Y-128599821D01*
X31372762Y-128589815D01*
X31385234Y-128588371D01*
X31437896Y-128583573D01*
X31476299Y-128584299D01*
G37*
%TD.AperFunction*%
%TA.AperFunction,EtchedComponent*%
G36*
X29038285Y-128476131D02*
G01*
X29116787Y-128481079D01*
X29176187Y-128490722D01*
X29222732Y-128507608D01*
X29262671Y-128534287D01*
X29302254Y-128573309D01*
X29316590Y-128589665D01*
X29352357Y-128640437D01*
X29374721Y-128696301D01*
X29385048Y-128763019D01*
X29384703Y-128846353D01*
X29383120Y-128870325D01*
X29377565Y-128929764D01*
X29370185Y-128971600D01*
X29358859Y-129003670D01*
X29341468Y-129033811D01*
X29337188Y-129040135D01*
X29251050Y-129148480D01*
X29157652Y-129234161D01*
X29058067Y-129296340D01*
X28962628Y-129331882D01*
X28886507Y-129346953D01*
X28818379Y-129348450D01*
X28744785Y-129336481D01*
X28733138Y-129333702D01*
X28675712Y-129316900D01*
X28630563Y-129295568D01*
X28586557Y-129263703D01*
X28559355Y-129240010D01*
X28502727Y-129175493D01*
X28467327Y-129101481D01*
X28451446Y-129022485D01*
X28452970Y-128918980D01*
X28470626Y-128845722D01*
X28765729Y-128845722D01*
X28778839Y-128876848D01*
X28780207Y-128878274D01*
X28810484Y-128892467D01*
X28852293Y-128892778D01*
X28896604Y-128880307D01*
X28930020Y-128860034D01*
X28957163Y-128831881D01*
X28966436Y-128804033D01*
X28965979Y-128786887D01*
X28962190Y-128763708D01*
X28952142Y-128751434D01*
X28929048Y-128745883D01*
X28895417Y-128743403D01*
X28852783Y-128742951D01*
X28825009Y-128749692D01*
X28801876Y-128766532D01*
X28796828Y-128771448D01*
X28772125Y-128808027D01*
X28765729Y-128845722D01*
X28470626Y-128845722D01*
X28477552Y-128816983D01*
X28522974Y-128720938D01*
X28587022Y-128635287D01*
X28667480Y-128564472D01*
X28686105Y-128551996D01*
X28755195Y-128514798D01*
X28828010Y-128490507D01*
X28910765Y-128477784D01*
X29009680Y-128475290D01*
X29038285Y-128476131D01*
G37*
%TD.AperFunction*%
%TA.AperFunction,EtchedComponent*%
G36*
X27262325Y-124320316D02*
G01*
X27376968Y-124355383D01*
X27457857Y-124392884D01*
X27528691Y-124441520D01*
X27599292Y-124510321D01*
X27665346Y-124594339D01*
X27722538Y-124688628D01*
X27732000Y-124707200D01*
X27751856Y-124748283D01*
X27765146Y-124780711D01*
X27773178Y-124811430D01*
X27777260Y-124847384D01*
X27778700Y-124895521D01*
X27778819Y-124955711D01*
X27778238Y-125022540D01*
X27775738Y-125073115D01*
X27769832Y-125116119D01*
X27759031Y-125160240D01*
X27741847Y-125214161D01*
X27727323Y-125256360D01*
X27676058Y-125403737D01*
X28414498Y-125567092D01*
X29152938Y-125730446D01*
X29245199Y-125842421D01*
X29361862Y-125969304D01*
X29483351Y-126072995D01*
X29608827Y-126153025D01*
X29737449Y-126208923D01*
X29868377Y-126240219D01*
X29968931Y-126247261D01*
X30083494Y-126235962D01*
X30192767Y-126202089D01*
X30298853Y-126144726D01*
X30403849Y-126062961D01*
X30414703Y-126053100D01*
X30467954Y-126004087D01*
X30751815Y-126091929D01*
X30832076Y-126116698D01*
X30903692Y-126138669D01*
X30963271Y-126156811D01*
X31007419Y-126170095D01*
X31032743Y-126177489D01*
X31037499Y-126178667D01*
X31035964Y-126166703D01*
X31030222Y-126136199D01*
X31021470Y-126093475D01*
X31020420Y-126088514D01*
X31007520Y-125986945D01*
X31007698Y-125893728D01*
X31024299Y-125786370D01*
X31061314Y-125690926D01*
X31119471Y-125606606D01*
X31199496Y-125532619D01*
X31302118Y-125468174D01*
X31428064Y-125412481D01*
X31461836Y-125400331D01*
X31515023Y-125386268D01*
X31578287Y-125378506D01*
X31659015Y-125376127D01*
X31719299Y-125376742D01*
X31761751Y-125379565D01*
X31793970Y-125386062D01*
X31823556Y-125397701D01*
X31854264Y-125413813D01*
X31937028Y-125473721D01*
X32011051Y-125556343D01*
X32074900Y-125660023D01*
X32084993Y-125680360D01*
X32126901Y-125776176D01*
X32154144Y-125861950D01*
X32168704Y-125946880D01*
X32172562Y-126040163D01*
X32171541Y-126082154D01*
X32167328Y-126153850D01*
X32159659Y-126211295D01*
X32146430Y-126265642D01*
X32125538Y-126328047D01*
X32124750Y-126330217D01*
X32100373Y-126395870D01*
X32084916Y-126441834D01*
X32080791Y-126472881D01*
X32090410Y-126493781D01*
X32116184Y-126509307D01*
X32160528Y-126524229D01*
X32225852Y-126543319D01*
X32233667Y-126545652D01*
X32357904Y-126583581D01*
X32460994Y-126616801D01*
X32546461Y-126646809D01*
X32617832Y-126675100D01*
X32678634Y-126703170D01*
X32732391Y-126732515D01*
X32782632Y-126764631D01*
X32829371Y-126798359D01*
X32895385Y-126854490D01*
X32951691Y-126917367D01*
X33000411Y-126990709D01*
X33043663Y-127078238D01*
X33083570Y-127183673D01*
X33122249Y-127310734D01*
X33123065Y-127313665D01*
X33141846Y-127380701D01*
X33155423Y-127426298D01*
X33165304Y-127453559D01*
X33172998Y-127465587D01*
X33180015Y-127465483D01*
X33187863Y-127456350D01*
X33190547Y-127452400D01*
X33268093Y-127358201D01*
X33364166Y-127276438D01*
X33473813Y-127209757D01*
X33592079Y-127160802D01*
X33714008Y-127132218D01*
X33802538Y-127125734D01*
X33927923Y-127138060D01*
X34050370Y-127173481D01*
X34166203Y-127229658D01*
X34271751Y-127304255D01*
X34363340Y-127394933D01*
X34437299Y-127499356D01*
X34461431Y-127545092D01*
X34474867Y-127574348D01*
X34487089Y-127604260D01*
X34498798Y-127637603D01*
X34510695Y-127677155D01*
X34523483Y-127725692D01*
X34537863Y-127785991D01*
X34554537Y-127860828D01*
X34574207Y-127952979D01*
X34597574Y-128065222D01*
X34618053Y-128164772D01*
X34722960Y-128676322D01*
X34825141Y-128679981D01*
X34927322Y-128683639D01*
X34955578Y-128823573D01*
X34969847Y-128900126D01*
X34976303Y-128960024D01*
X34972604Y-129007058D01*
X34956407Y-129045020D01*
X34925369Y-129077702D01*
X34877147Y-129108895D01*
X34809400Y-129142391D01*
X34739416Y-129173461D01*
X34556187Y-129253178D01*
X34605391Y-129439093D01*
X34616515Y-129481011D01*
X34633590Y-129545192D01*
X34655996Y-129629318D01*
X34683116Y-129731071D01*
X34714331Y-129848134D01*
X34749024Y-129978189D01*
X34786577Y-130118919D01*
X34826370Y-130268007D01*
X34867787Y-130423134D01*
X34910208Y-130581984D01*
X34919631Y-130617262D01*
X34960590Y-130771213D01*
X34999340Y-130918038D01*
X35035410Y-131055889D01*
X35068332Y-131182918D01*
X35097637Y-131297276D01*
X35122856Y-131397115D01*
X35143520Y-131480589D01*
X35159160Y-131545848D01*
X35169308Y-131591044D01*
X35173495Y-131614330D01*
X35173336Y-131617153D01*
X35155362Y-131624272D01*
X35120606Y-131634568D01*
X35075504Y-131646490D01*
X35026491Y-131658487D01*
X34980001Y-131669007D01*
X34942471Y-131676499D01*
X34920336Y-131679412D01*
X34917181Y-131678901D01*
X34913132Y-131666030D01*
X34903013Y-131630277D01*
X34887286Y-131573350D01*
X34866412Y-131496957D01*
X34840853Y-131402805D01*
X34811069Y-131292604D01*
X34777523Y-131168060D01*
X34740675Y-131030881D01*
X34700987Y-130882776D01*
X34658921Y-130725453D01*
X34614937Y-130560619D01*
X34602898Y-130515443D01*
X34558529Y-130348966D01*
X34516024Y-130189586D01*
X34475837Y-130039008D01*
X34438424Y-129898934D01*
X34404241Y-129771066D01*
X34373744Y-129657107D01*
X34347388Y-129558759D01*
X34325630Y-129477726D01*
X34308924Y-129415710D01*
X34297727Y-129374414D01*
X34292495Y-129355540D01*
X34292163Y-129354508D01*
X34280187Y-129356405D01*
X34249528Y-129362958D01*
X34206210Y-129372751D01*
X34156259Y-129384366D01*
X34105698Y-129396388D01*
X34060552Y-129407399D01*
X34026845Y-129415983D01*
X34010635Y-129420709D01*
X34012362Y-129433033D01*
X34017963Y-129468297D01*
X34027080Y-129524350D01*
X34039359Y-129599045D01*
X34054445Y-129690232D01*
X34071980Y-129795762D01*
X34091610Y-129913485D01*
X34112979Y-130041252D01*
X34135731Y-130176915D01*
X34137847Y-130189511D01*
X34266861Y-130957552D01*
X34314788Y-130961735D01*
X34377651Y-130976920D01*
X34431242Y-131011123D01*
X34475754Y-131065006D01*
X34511381Y-131139233D01*
X34538318Y-131234466D01*
X34556759Y-131351368D01*
X34566898Y-131490604D01*
X34568929Y-131652835D01*
X34564259Y-131813055D01*
X34560460Y-131890456D01*
X34556348Y-131962284D01*
X34552265Y-132023338D01*
X34548556Y-132068415D01*
X34546044Y-132089741D01*
X34538530Y-132121180D01*
X34525435Y-132134617D01*
X34499706Y-132137446D01*
X34473294Y-132140011D01*
X34465843Y-132151495D01*
X34468108Y-132166068D01*
X34474168Y-132196466D01*
X34481102Y-132238038D01*
X34483258Y-132252484D01*
X34491581Y-132310276D01*
X34353779Y-132332118D01*
X34297118Y-132340957D01*
X34249916Y-132348056D01*
X34217727Y-132352595D01*
X34206436Y-132353833D01*
X34199778Y-132342600D01*
X34196378Y-132315418D01*
X34196309Y-132312362D01*
X34195556Y-132295311D01*
X34191912Y-132287248D01*
X34182403Y-132290093D01*
X34164059Y-132305765D01*
X34133907Y-132336181D01*
X34092890Y-132379149D01*
X34008821Y-132473356D01*
X33915271Y-132588859D01*
X33813512Y-132723893D01*
X33704813Y-132876693D01*
X33590444Y-133045494D01*
X33471674Y-133228531D01*
X33402290Y-133338884D01*
X33291993Y-133516265D01*
X33318200Y-134814543D01*
X33322117Y-135006658D01*
X33326138Y-135200259D01*
X33330204Y-135392716D01*
X33334257Y-135581404D01*
X33338239Y-135763693D01*
X33342091Y-135936956D01*
X33345754Y-136098565D01*
X33349170Y-136245892D01*
X33352280Y-136376309D01*
X33355025Y-136487189D01*
X33357348Y-136575903D01*
X33357846Y-136593968D01*
X33361252Y-136719278D01*
X33363758Y-136821921D01*
X33365329Y-136904654D01*
X33365927Y-136970239D01*
X33365514Y-137021434D01*
X33364055Y-137061000D01*
X33361513Y-137091695D01*
X33357850Y-137116281D01*
X33353029Y-137137515D01*
X33350448Y-137146797D01*
X33304390Y-137265042D01*
X33239489Y-137366791D01*
X33155163Y-137452641D01*
X33050828Y-137523186D01*
X32928826Y-137577967D01*
X32896153Y-137587319D01*
X32840499Y-137600248D01*
X32764015Y-137616347D01*
X32668849Y-137635209D01*
X32557149Y-137656429D01*
X32431066Y-137679599D01*
X32292747Y-137704314D01*
X32144342Y-137730166D01*
X31987999Y-137756751D01*
X31946802Y-137763652D01*
X31947282Y-137771497D01*
X31965282Y-137789290D01*
X31996923Y-137813215D01*
X31997687Y-137813742D01*
X32045805Y-137849997D01*
X32097278Y-137893415D01*
X32127849Y-137921872D01*
X32191772Y-137996216D01*
X32230466Y-138068074D01*
X32243921Y-138137351D01*
X32232126Y-138203954D01*
X32195071Y-138267789D01*
X32170026Y-138295711D01*
X32099250Y-138351180D01*
X32007241Y-138399324D01*
X31897151Y-138440073D01*
X31772132Y-138473359D01*
X31635338Y-138499114D01*
X31489920Y-138517268D01*
X31339030Y-138527753D01*
X31185823Y-138530500D01*
X31033448Y-138525441D01*
X30885060Y-138512506D01*
X30743811Y-138491626D01*
X30612852Y-138462734D01*
X30495336Y-138425761D01*
X30394416Y-138380637D01*
X30324213Y-138335956D01*
X30263305Y-138277024D01*
X30222214Y-138209910D01*
X30203386Y-138138969D01*
X30202437Y-138119392D01*
X30202407Y-138118467D01*
X30292390Y-138118467D01*
X30299833Y-138161893D01*
X30316465Y-138201741D01*
X30316948Y-138202542D01*
X30360701Y-138252184D01*
X30426931Y-138296990D01*
X30513057Y-138336535D01*
X30616499Y-138370396D01*
X30734677Y-138398145D01*
X30865009Y-138419358D01*
X31004917Y-138433610D01*
X31151818Y-138440475D01*
X31303134Y-138439529D01*
X31456283Y-138430345D01*
X31599365Y-138413858D01*
X31670537Y-138401904D01*
X31747389Y-138386258D01*
X31816919Y-138369649D01*
X31838808Y-138363626D01*
X31951967Y-138325685D01*
X32039953Y-138284652D01*
X32102868Y-138240367D01*
X32140813Y-138192667D01*
X32153888Y-138141391D01*
X32142196Y-138086377D01*
X32105835Y-138027464D01*
X32072221Y-137990178D01*
X32028632Y-137950615D01*
X31976737Y-137909634D01*
X31921683Y-137870625D01*
X31868615Y-137836979D01*
X31822679Y-137812089D01*
X31789020Y-137799344D01*
X31781215Y-137798381D01*
X31760181Y-137800523D01*
X31717500Y-137806632D01*
X31655889Y-137816233D01*
X31578065Y-137828849D01*
X31486748Y-137844006D01*
X31384655Y-137861228D01*
X31274505Y-137880038D01*
X31159014Y-137899962D01*
X31040902Y-137920523D01*
X30922886Y-137941247D01*
X30807685Y-137961657D01*
X30698016Y-137981278D01*
X30596598Y-137999634D01*
X30506148Y-138016249D01*
X30429385Y-138030649D01*
X30369026Y-138042357D01*
X30327790Y-138050897D01*
X30308395Y-138055794D01*
X30307387Y-138056287D01*
X30294716Y-138080314D01*
X30292390Y-138118467D01*
X30202407Y-138118467D01*
X30201289Y-138084737D01*
X30195565Y-138069553D01*
X30181851Y-138067894D01*
X30173815Y-138069578D01*
X30154112Y-138073457D01*
X30112855Y-138080990D01*
X30053569Y-138091554D01*
X29979779Y-138104526D01*
X29895012Y-138119283D01*
X29802792Y-138135201D01*
X29793863Y-138136735D01*
X29442534Y-138197081D01*
X29481751Y-138280778D01*
X29516514Y-138379043D01*
X29526393Y-138472185D01*
X29511421Y-138560016D01*
X29471629Y-138642351D01*
X29407050Y-138719000D01*
X29407043Y-138719007D01*
X29331954Y-138777928D01*
X29236148Y-138832245D01*
X29124220Y-138879954D01*
X29000762Y-138919053D01*
X28891591Y-138943761D01*
X28806838Y-138955841D01*
X28705107Y-138964506D01*
X28594680Y-138969377D01*
X28483840Y-138970075D01*
X28389666Y-138966767D01*
X28246846Y-138951725D01*
X28115060Y-138924872D01*
X27996527Y-138887273D01*
X27893468Y-138839993D01*
X27808101Y-138784097D01*
X27742648Y-138720651D01*
X27699328Y-138650718D01*
X27692127Y-138632086D01*
X27679615Y-138588916D01*
X27671998Y-138550204D01*
X27670918Y-138536580D01*
X27670918Y-138512257D01*
X27761526Y-138512257D01*
X27762292Y-138547889D01*
X27773183Y-138592333D01*
X27783878Y-138619424D01*
X27824845Y-138680147D01*
X27889023Y-138734976D01*
X27974673Y-138782979D01*
X28080051Y-138823224D01*
X28203417Y-138854778D01*
X28234996Y-138860862D01*
X28302315Y-138869509D01*
X28387910Y-138875186D01*
X28484789Y-138877900D01*
X28585961Y-138877661D01*
X28684434Y-138874477D01*
X28773216Y-138868354D01*
X28840191Y-138860156D01*
X28975804Y-138831875D01*
X29099290Y-138793575D01*
X29207742Y-138746617D01*
X29298253Y-138692357D01*
X29367919Y-138632155D01*
X29392911Y-138601810D01*
X29415194Y-138567588D01*
X29427232Y-138536730D01*
X29432054Y-138498597D01*
X29432757Y-138461877D01*
X29429912Y-138404315D01*
X29418983Y-138357093D01*
X29396487Y-138305531D01*
X29394989Y-138302563D01*
X29373445Y-138263407D01*
X29354269Y-138234355D01*
X29342370Y-138222249D01*
X29327063Y-138223183D01*
X29289346Y-138228160D01*
X29231855Y-138236727D01*
X29157222Y-138248430D01*
X29068081Y-138262817D01*
X28967065Y-138279435D01*
X28856808Y-138297831D01*
X28739944Y-138317552D01*
X28619105Y-138338146D01*
X28496926Y-138359158D01*
X28376039Y-138380137D01*
X28259078Y-138400630D01*
X28148678Y-138420184D01*
X28047470Y-138438345D01*
X27958090Y-138454661D01*
X27883170Y-138468680D01*
X27825343Y-138479947D01*
X27787244Y-138488011D01*
X27771557Y-138492385D01*
X27761526Y-138512257D01*
X27670918Y-138512257D01*
X27670918Y-138503317D01*
X27305183Y-138564473D01*
X27208941Y-138580683D01*
X27118389Y-138596155D01*
X27037283Y-138610230D01*
X26969378Y-138622250D01*
X26918433Y-138631555D01*
X26888203Y-138637487D01*
X26885420Y-138638106D01*
X26873317Y-138639888D01*
X26856532Y-138640304D01*
X26833467Y-138639089D01*
X26802524Y-138635982D01*
X26762108Y-138630718D01*
X26710620Y-138623033D01*
X26646464Y-138612665D01*
X26568043Y-138599350D01*
X26473759Y-138582824D01*
X26362015Y-138562825D01*
X26231214Y-138539088D01*
X26079758Y-138511350D01*
X25906052Y-138479347D01*
X25765954Y-138453452D01*
X25603451Y-138423265D01*
X25447164Y-138394002D01*
X25299041Y-138366039D01*
X25161030Y-138339756D01*
X25035079Y-138315530D01*
X24923135Y-138293741D01*
X24827148Y-138274766D01*
X24749064Y-138258985D01*
X24690833Y-138246773D01*
X24654401Y-138238512D01*
X24643272Y-138235417D01*
X24586974Y-138205054D01*
X24533863Y-138159441D01*
X24491303Y-138106066D01*
X24468007Y-138057242D01*
X24461976Y-138024031D01*
X24456905Y-137970513D01*
X24453141Y-137901817D01*
X24451033Y-137823070D01*
X24450811Y-137803265D01*
X24449602Y-137712800D01*
X24447481Y-137611090D01*
X24444735Y-137509895D01*
X24441650Y-137420973D01*
X24441271Y-137411688D01*
X24433372Y-137222174D01*
X24248915Y-137152861D01*
X24064457Y-137083548D01*
X23940425Y-137125485D01*
X23888912Y-137143827D01*
X23847853Y-137160205D01*
X23822319Y-137172490D01*
X23816394Y-137177592D01*
X23805710Y-137185036D01*
X23780728Y-137187615D01*
X23752048Y-137185684D01*
X23730274Y-137179599D01*
X23725054Y-137174530D01*
X23711668Y-137163861D01*
X23680757Y-137148513D01*
X23638958Y-137131774D01*
X23638126Y-137131473D01*
X23555609Y-137101649D01*
X23547492Y-136982511D01*
X23545569Y-136941895D01*
X23543730Y-136879643D01*
X23542034Y-136799562D01*
X23540543Y-136705459D01*
X23539319Y-136601139D01*
X23538424Y-136490410D01*
X23537951Y-136389508D01*
X23536916Y-136044826D01*
X23808140Y-136044826D01*
X23813778Y-136555869D01*
X23815064Y-136667228D01*
X23816365Y-136770362D01*
X23817638Y-136862564D01*
X23818842Y-136941126D01*
X23819934Y-137003343D01*
X23820871Y-137046507D01*
X23821611Y-137067910D01*
X23821822Y-137069768D01*
X23834101Y-137067302D01*
X23865262Y-137058365D01*
X23910044Y-137044515D01*
X23944342Y-137033493D01*
X24064457Y-136994363D01*
X24687796Y-137223938D01*
X24808115Y-137268109D01*
X24921645Y-137309512D01*
X25026070Y-137347323D01*
X25119073Y-137380715D01*
X25198337Y-137408862D01*
X25261546Y-137430938D01*
X25306382Y-137446118D01*
X25330529Y-137453575D01*
X25333738Y-137454211D01*
X25352476Y-137449689D01*
X25390269Y-137436720D01*
X25442805Y-137416919D01*
X25505770Y-137391900D01*
X25560637Y-137369263D01*
X25764932Y-137283617D01*
X25755865Y-136596450D01*
X25754125Y-136466810D01*
X25752436Y-136345073D01*
X25750832Y-136233567D01*
X25749351Y-136134617D01*
X25748028Y-136050551D01*
X25746900Y-135983695D01*
X25746002Y-135936377D01*
X25745371Y-135910924D01*
X25745155Y-135907090D01*
X25734149Y-135912487D01*
X25704142Y-135928820D01*
X25658209Y-135954371D01*
X25599422Y-135987424D01*
X25530856Y-136026263D01*
X25484073Y-136052900D01*
X25224635Y-136200902D01*
X24631825Y-136102569D01*
X24511040Y-136082661D01*
X24397023Y-136064112D01*
X24292417Y-136047336D01*
X24199864Y-136032744D01*
X24122006Y-136020750D01*
X24061487Y-136011765D01*
X24020947Y-136006203D01*
X24003466Y-136004464D01*
X23972189Y-136007687D01*
X23927256Y-136015817D01*
X23888028Y-136024759D01*
X23808140Y-136044826D01*
X23536916Y-136044826D01*
X23536684Y-135967726D01*
X24369766Y-135967726D01*
X24376993Y-135970242D01*
X24405865Y-135976241D01*
X24452914Y-135985135D01*
X24514670Y-135996331D01*
X24587664Y-136009240D01*
X24668429Y-136023272D01*
X24753494Y-136037836D01*
X24839391Y-136052342D01*
X24922651Y-136066200D01*
X24999806Y-136078818D01*
X25067386Y-136089607D01*
X25121923Y-136097976D01*
X25159947Y-136103336D01*
X25176872Y-136105090D01*
X25200056Y-136102224D01*
X25232001Y-136091420D01*
X25275837Y-136071232D01*
X25334693Y-136040214D01*
X25411700Y-135996919D01*
X25414785Y-135995150D01*
X25608865Y-135883840D01*
X25550509Y-135879892D01*
X25525260Y-135879153D01*
X25502073Y-135881959D01*
X25477077Y-135890255D01*
X25446401Y-135905983D01*
X25406176Y-135931086D01*
X25352530Y-135967506D01*
X25292996Y-136009159D01*
X25205291Y-136070873D01*
X24793889Y-136018528D01*
X24694168Y-136005933D01*
X24602389Y-135994522D01*
X24521633Y-135984662D01*
X24454982Y-135976724D01*
X24405515Y-135971075D01*
X24376316Y-135968086D01*
X24369766Y-135967726D01*
X23536684Y-135967726D01*
X23536671Y-135963486D01*
X24305317Y-135963486D01*
X24317821Y-135965523D01*
X24334321Y-135963184D01*
X24334518Y-135958842D01*
X24317492Y-135955805D01*
X24310135Y-135957838D01*
X24305317Y-135963486D01*
X23536671Y-135963486D01*
X23536527Y-135915643D01*
X23571080Y-135915643D01*
X23594740Y-135913428D01*
X23638501Y-135907294D01*
X23697455Y-135898007D01*
X23766695Y-135886330D01*
X23823253Y-135876316D01*
X24040874Y-135836990D01*
X24227582Y-135861500D01*
X24414290Y-135886009D01*
X24414734Y-135827679D01*
X24414594Y-135806255D01*
X24414054Y-135761583D01*
X24413140Y-135695279D01*
X24411878Y-135608962D01*
X24410296Y-135504245D01*
X24408420Y-135382748D01*
X24406278Y-135246085D01*
X24404120Y-135109977D01*
X27736764Y-135109977D01*
X27737086Y-135172844D01*
X27737941Y-135247677D01*
X27739341Y-135336000D01*
X27741298Y-135439342D01*
X27743824Y-135559230D01*
X27746932Y-135697190D01*
X27750634Y-135854750D01*
X27754941Y-136033435D01*
X27759867Y-136234775D01*
X27764383Y-136418130D01*
X27770715Y-136674291D01*
X27776483Y-136906196D01*
X27781724Y-137115028D01*
X27786475Y-137301965D01*
X27790775Y-137468188D01*
X27794660Y-137614879D01*
X27798168Y-137743216D01*
X27801337Y-137854381D01*
X27804204Y-137949555D01*
X27806807Y-138029917D01*
X27809183Y-138096647D01*
X27811370Y-138150927D01*
X27813406Y-138193937D01*
X27815327Y-138226857D01*
X27817171Y-138250867D01*
X27818977Y-138267148D01*
X27820781Y-138276881D01*
X27822621Y-138281246D01*
X27823634Y-138281786D01*
X27836903Y-138279654D01*
X27873961Y-138273405D01*
X27933526Y-138263260D01*
X28014318Y-138249439D01*
X28115055Y-138232162D01*
X28234457Y-138211651D01*
X28371241Y-138188125D01*
X28524127Y-138161807D01*
X28691834Y-138132915D01*
X28873080Y-138101671D01*
X29066585Y-138068295D01*
X29271067Y-138033007D01*
X29485245Y-137996029D01*
X29707838Y-137957581D01*
X29937565Y-137917883D01*
X30006501Y-137905968D01*
X30240730Y-137865482D01*
X30469758Y-137825904D01*
X30692184Y-137787475D01*
X30906606Y-137750437D01*
X31111622Y-137715031D01*
X31305832Y-137681499D01*
X31487833Y-137650084D01*
X31656224Y-137621028D01*
X31809604Y-137594571D01*
X31946570Y-137570956D01*
X32065722Y-137550425D01*
X32165657Y-137533219D01*
X32244975Y-137519581D01*
X32302273Y-137509751D01*
X32336151Y-137503973D01*
X32339599Y-137503391D01*
X32400553Y-137492646D01*
X32452235Y-137482616D01*
X32489541Y-137474359D01*
X32507368Y-137468929D01*
X32507909Y-137468560D01*
X32508747Y-137455218D01*
X32509069Y-137418465D01*
X32508911Y-137360325D01*
X32508310Y-137282826D01*
X32507301Y-137187991D01*
X32505920Y-137077847D01*
X32504203Y-136954418D01*
X32502186Y-136819731D01*
X32499905Y-136675809D01*
X32497395Y-136524680D01*
X32494693Y-136368367D01*
X32491835Y-136208897D01*
X32488856Y-136048295D01*
X32485792Y-135888586D01*
X32482680Y-135731795D01*
X32479555Y-135579948D01*
X32476454Y-135435070D01*
X32473411Y-135299187D01*
X32470463Y-135174324D01*
X32467647Y-135062505D01*
X32464997Y-134965758D01*
X32462550Y-134886106D01*
X32461646Y-134859783D01*
X32448391Y-134675493D01*
X32421756Y-134508689D01*
X32380615Y-134354556D01*
X32323838Y-134208283D01*
X32294737Y-134147396D01*
X32196741Y-133981086D01*
X32076669Y-133825837D01*
X31935706Y-133682398D01*
X31775036Y-133551519D01*
X31595844Y-133433953D01*
X31399314Y-133330447D01*
X31186630Y-133241755D01*
X30958978Y-133168625D01*
X30717541Y-133111808D01*
X30637104Y-133097116D01*
X30495897Y-133075470D01*
X30371678Y-133062032D01*
X30257484Y-133056424D01*
X30146352Y-133058271D01*
X30049783Y-133065355D01*
X29771111Y-133103987D01*
X29501852Y-133165326D01*
X29243088Y-133248967D01*
X28995899Y-133354508D01*
X28761369Y-133481548D01*
X28548681Y-133623690D01*
X28484885Y-133674774D01*
X28411427Y-133740247D01*
X28332919Y-133815380D01*
X28253971Y-133895444D01*
X28179196Y-133975709D01*
X28113205Y-134051445D01*
X28060610Y-134117923D01*
X28044238Y-134141035D01*
X27932395Y-134326077D01*
X27845458Y-134514287D01*
X27782977Y-134706768D01*
X27751905Y-134854517D01*
X27748404Y-134876640D01*
X27745337Y-134898513D01*
X27742719Y-134921660D01*
X27740560Y-134947610D01*
X27738872Y-134977890D01*
X27737669Y-135014026D01*
X27736962Y-135057546D01*
X27736764Y-135109977D01*
X24404120Y-135109977D01*
X24403896Y-135095873D01*
X24401301Y-134933729D01*
X24398520Y-134761269D01*
X24395580Y-134580110D01*
X24392508Y-134391868D01*
X24389330Y-134198160D01*
X24389057Y-134181569D01*
X25216144Y-134181569D01*
X25218327Y-134210438D01*
X25222993Y-134233319D01*
X25229989Y-134252339D01*
X25239161Y-134269627D01*
X25248478Y-134284436D01*
X25283302Y-134327329D01*
X25325210Y-134354113D01*
X25349299Y-134363253D01*
X25375269Y-134367102D01*
X25422333Y-134369458D01*
X25486191Y-134370408D01*
X25562542Y-134370041D01*
X25647087Y-134368445D01*
X25735525Y-134365708D01*
X25823558Y-134361917D01*
X25906885Y-134357160D01*
X25981207Y-134351527D01*
X25998080Y-134349972D01*
X26186379Y-134326018D01*
X26359129Y-134290924D01*
X26520696Y-134242857D01*
X26675449Y-134179981D01*
X26827753Y-134100463D01*
X26981976Y-134002468D01*
X27142485Y-133884162D01*
X27182660Y-133852356D01*
X27220341Y-133821693D01*
X27274608Y-133776878D01*
X27342675Y-133720253D01*
X27421755Y-133654159D01*
X27509064Y-133580939D01*
X27601814Y-133502935D01*
X27697219Y-133422487D01*
X27792495Y-133341939D01*
X27884855Y-133263631D01*
X27971512Y-133189906D01*
X28020107Y-133148419D01*
X28080472Y-133092298D01*
X28123032Y-133039674D01*
X28151004Y-132983735D01*
X28167607Y-132917665D01*
X28176057Y-132834653D01*
X28177021Y-132816080D01*
X28178958Y-132747903D01*
X28176851Y-132695605D01*
X28169811Y-132649822D01*
X28156950Y-132601186D01*
X28156484Y-132599646D01*
X28121540Y-132509047D01*
X28077157Y-132432886D01*
X28025771Y-132374127D01*
X27969820Y-132335735D01*
X27928523Y-132322441D01*
X27908032Y-132320858D01*
X27883024Y-132323359D01*
X27849893Y-132330972D01*
X27805032Y-132344719D01*
X27744833Y-132365629D01*
X27665689Y-132394725D01*
X27638674Y-132404842D01*
X27454854Y-132472521D01*
X27290200Y-132530071D01*
X27141028Y-132578549D01*
X27003654Y-132619014D01*
X26874393Y-132652522D01*
X26749560Y-132680134D01*
X26625473Y-132702906D01*
X26570534Y-132711609D01*
X26424826Y-132728523D01*
X26266276Y-132737961D01*
X26103702Y-132739861D01*
X25945923Y-132734164D01*
X25801758Y-132720807D01*
X25774705Y-132717120D01*
X25706914Y-132707642D01*
X25658124Y-132702153D01*
X25622220Y-132700574D01*
X25593088Y-132702826D01*
X25564613Y-132708833D01*
X25545370Y-132714186D01*
X25518324Y-132721774D01*
X25495266Y-132728860D01*
X25475573Y-132737432D01*
X25458626Y-132749479D01*
X25443803Y-132766990D01*
X25430485Y-132791954D01*
X25418049Y-132826358D01*
X25405876Y-132872193D01*
X25393344Y-132931446D01*
X25379834Y-133006107D01*
X25364724Y-133098163D01*
X25347393Y-133209604D01*
X25327221Y-133342418D01*
X25306474Y-133479561D01*
X25283271Y-133632976D01*
X25263778Y-133763373D01*
X25247842Y-133872880D01*
X25235310Y-133963625D01*
X25226027Y-134037738D01*
X25219840Y-134097347D01*
X25216597Y-134144581D01*
X25216144Y-134181569D01*
X24389057Y-134181569D01*
X24386074Y-134000601D01*
X24382767Y-133800810D01*
X24379435Y-133600401D01*
X24376105Y-133400992D01*
X24372804Y-133204199D01*
X24369559Y-133011638D01*
X24366397Y-132824927D01*
X24363344Y-132645681D01*
X24363012Y-132626325D01*
X25496990Y-132626325D01*
X25497500Y-132626999D01*
X25511593Y-132627355D01*
X25542157Y-132622927D01*
X25562946Y-132618836D01*
X25599158Y-132613707D01*
X25641969Y-132613405D01*
X25697420Y-132618209D01*
X25771552Y-132628402D01*
X25772684Y-132628574D01*
X25883389Y-132641243D01*
X26011003Y-132648962D01*
X26147480Y-132651734D01*
X26284776Y-132649563D01*
X26414844Y-132642454D01*
X26529639Y-132630411D01*
X26545092Y-132628171D01*
X26670718Y-132607073D01*
X26795277Y-132581584D01*
X26922584Y-132550617D01*
X27056455Y-132513085D01*
X27200705Y-132467899D01*
X27359149Y-132413973D01*
X27535604Y-132350219D01*
X27586129Y-132331441D01*
X27876615Y-132222928D01*
X27947764Y-132238851D01*
X28019797Y-132267415D01*
X28086820Y-132317689D01*
X28146627Y-132386097D01*
X28197013Y-132469061D01*
X28235773Y-132563005D01*
X28260701Y-132664351D01*
X28269520Y-132760785D01*
X28271609Y-132798224D01*
X28275698Y-132813246D01*
X28280828Y-132808701D01*
X28286038Y-132787443D01*
X28290366Y-132752321D01*
X28292853Y-132706189D01*
X28293094Y-132690818D01*
X28283267Y-132590644D01*
X28251920Y-132485104D01*
X28198330Y-132371963D01*
X28178434Y-132337258D01*
X28139709Y-132275249D01*
X28107214Y-132232095D01*
X28076605Y-132203508D01*
X28043538Y-132185202D01*
X28014696Y-132175692D01*
X27999352Y-132171270D01*
X27986551Y-132167997D01*
X27973478Y-132166679D01*
X27957321Y-132168122D01*
X27935266Y-132173133D01*
X27904499Y-132182519D01*
X27862207Y-132197086D01*
X27805576Y-132217641D01*
X27731793Y-132244990D01*
X27638044Y-132279941D01*
X27594591Y-132296131D01*
X27334594Y-132387514D01*
X27090701Y-132461714D01*
X26860582Y-132519084D01*
X26641905Y-132559977D01*
X26432341Y-132584743D01*
X26229557Y-132593736D01*
X26031225Y-132587308D01*
X25835012Y-132565812D01*
X25822678Y-132563962D01*
X25750846Y-132554647D01*
X25696487Y-132551807D01*
X25652534Y-132555214D01*
X25637562Y-132557997D01*
X25600963Y-132568560D01*
X25562210Y-132583824D01*
X25527701Y-132600640D01*
X25503830Y-132615857D01*
X25496990Y-132626325D01*
X24363012Y-132626325D01*
X24360428Y-132475516D01*
X24357676Y-132316050D01*
X24355114Y-132168900D01*
X24352770Y-132035680D01*
X24350669Y-131918008D01*
X24348840Y-131817501D01*
X24347308Y-131735774D01*
X24346515Y-131695429D01*
X29856860Y-131695429D01*
X29870350Y-131736420D01*
X29897395Y-131781531D01*
X29934420Y-131825431D01*
X29977851Y-131862788D01*
X30005176Y-131879675D01*
X30069502Y-131907887D01*
X30125814Y-131918665D01*
X30183318Y-131913300D01*
X30205618Y-131907795D01*
X30236425Y-131897142D01*
X30249961Y-131882100D01*
X30253268Y-131853232D01*
X30253322Y-131843852D01*
X30243099Y-131774224D01*
X30211174Y-131707619D01*
X30170618Y-131655697D01*
X30115103Y-131608978D01*
X30055693Y-131587157D01*
X29996344Y-131589614D01*
X29945182Y-131605957D01*
X29899676Y-131628817D01*
X29867860Y-131653800D01*
X29860501Y-131663891D01*
X29856860Y-131695429D01*
X24346515Y-131695429D01*
X24346102Y-131674445D01*
X24345247Y-131635129D01*
X24344770Y-131619443D01*
X24344740Y-131619226D01*
X24332845Y-131622786D01*
X24301044Y-131634492D01*
X24253011Y-131652932D01*
X24192418Y-131676696D01*
X24122940Y-131704371D01*
X24119104Y-131705911D01*
X23895665Y-131795606D01*
X23592065Y-131673324D01*
X23508877Y-131640374D01*
X23432654Y-131611235D01*
X23366803Y-131587127D01*
X23314730Y-131569266D01*
X23279842Y-131558872D01*
X23266202Y-131556826D01*
X23247511Y-131554402D01*
X23243940Y-131545963D01*
X23233196Y-131530755D01*
X23206899Y-131515465D01*
X23202596Y-131513756D01*
X23174293Y-131503103D01*
X23439874Y-131503103D01*
X23440223Y-131509839D01*
X23464357Y-131525041D01*
X23512390Y-131548535D01*
X23584436Y-131580153D01*
X23646114Y-131605761D01*
X23718951Y-131635379D01*
X23783555Y-131661460D01*
X23836312Y-131682562D01*
X23873603Y-131697240D01*
X23891813Y-131704049D01*
X23892929Y-131704351D01*
X23905678Y-131699836D01*
X23939687Y-131686673D01*
X23992643Y-131665784D01*
X24062232Y-131638093D01*
X24146142Y-131604523D01*
X24242058Y-131565997D01*
X24347669Y-131523438D01*
X24460660Y-131477771D01*
X24465175Y-131475943D01*
X24578806Y-131430084D01*
X24629596Y-131409711D01*
X29835269Y-131409711D01*
X29835376Y-131464250D01*
X29836503Y-131511435D01*
X29838677Y-131545773D01*
X29841923Y-131561773D01*
X29843063Y-131562201D01*
X29935359Y-131522629D01*
X30017113Y-131505219D01*
X30090539Y-131510119D01*
X30157854Y-131537479D01*
X30221272Y-131587448D01*
X30221472Y-131587646D01*
X30253506Y-131625584D01*
X30284545Y-131672799D01*
X30310260Y-131721444D01*
X30326317Y-131763674D01*
X30329525Y-131783392D01*
X30334227Y-131814738D01*
X30345175Y-131838317D01*
X30355053Y-131844858D01*
X30369487Y-131837804D01*
X30398249Y-131819211D01*
X30435411Y-131792937D01*
X30439560Y-131789889D01*
X30518531Y-131719762D01*
X30552086Y-131673122D01*
X33252035Y-131673122D01*
X33260055Y-132010234D01*
X33262209Y-132104912D01*
X33264650Y-132219212D01*
X33267263Y-132347316D01*
X33269934Y-132483409D01*
X33272547Y-132621673D01*
X33274987Y-132756290D01*
X33276547Y-132846152D01*
X33278654Y-132955693D01*
X33281072Y-133056609D01*
X33283700Y-133146224D01*
X33286438Y-133221864D01*
X33289186Y-133280852D01*
X33291845Y-133320515D01*
X33294314Y-133338177D01*
X33294970Y-133338808D01*
X33306013Y-133325551D01*
X33325796Y-133296383D01*
X33350232Y-133257361D01*
X33352599Y-133253441D01*
X33430300Y-133128389D01*
X33516319Y-132997054D01*
X33607760Y-132863415D01*
X33701723Y-132731449D01*
X33795312Y-132605134D01*
X33885628Y-132488448D01*
X33969775Y-132385369D01*
X34044853Y-132299873D01*
X34055842Y-132288080D01*
X34098686Y-132241668D01*
X34134348Y-132201368D01*
X34159567Y-132170990D01*
X34171081Y-132154347D01*
X34171452Y-132152970D01*
X34159947Y-132145086D01*
X34130147Y-132137235D01*
X34098305Y-132132364D01*
X34022999Y-132115533D01*
X33959336Y-132085130D01*
X33912815Y-132044075D01*
X33901737Y-132027964D01*
X33891983Y-132002661D01*
X33879161Y-131956632D01*
X33864320Y-131894260D01*
X33848503Y-131819927D01*
X33833497Y-131742060D01*
X33819517Y-131666384D01*
X33807017Y-131599840D01*
X33796736Y-131546261D01*
X33789410Y-131509480D01*
X33785775Y-131493330D01*
X33785595Y-131492924D01*
X33773469Y-131496299D01*
X33742520Y-131507514D01*
X33697480Y-131524797D01*
X33645071Y-131545575D01*
X33572873Y-131573089D01*
X33492360Y-131601408D01*
X33415914Y-131626267D01*
X33379657Y-131637040D01*
X33252035Y-131673122D01*
X30552086Y-131673122D01*
X30574195Y-131642391D01*
X30603803Y-131571315D01*
X30613754Y-131536168D01*
X30615408Y-131520105D01*
X30608350Y-131518018D01*
X30599750Y-131521357D01*
X30536241Y-131537044D01*
X30472931Y-131530054D01*
X30427340Y-131508517D01*
X30378737Y-131475490D01*
X30340876Y-131502450D01*
X30284745Y-131529529D01*
X30226646Y-131534973D01*
X30173033Y-131518298D01*
X30168145Y-131515382D01*
X30135985Y-131492648D01*
X30112676Y-131467941D01*
X30096594Y-131436634D01*
X30086114Y-131394095D01*
X30079612Y-131335694D01*
X30075462Y-131256803D01*
X30075225Y-131250599D01*
X30074448Y-131229893D01*
X30164274Y-131229893D01*
X30164617Y-131299693D01*
X30166053Y-131348709D01*
X30169187Y-131381592D01*
X30174627Y-131402996D01*
X30182978Y-131417574D01*
X30189716Y-131425058D01*
X30224794Y-131446950D01*
X30264213Y-131445250D01*
X30302204Y-131424246D01*
X30444140Y-131424246D01*
X30479123Y-131443225D01*
X30509684Y-131458085D01*
X30530699Y-131459458D01*
X30552172Y-131445469D01*
X30572674Y-131425693D01*
X30610203Y-131388165D01*
X30606679Y-131199892D01*
X30603155Y-131011619D01*
X30523648Y-131007832D01*
X30444140Y-131004045D01*
X30444140Y-131214145D01*
X30444140Y-131424246D01*
X30302204Y-131424246D01*
X30310183Y-131419835D01*
X30312547Y-131418050D01*
X30355092Y-131385600D01*
X30355092Y-131214145D01*
X30355092Y-131200374D01*
X30355092Y-131015148D01*
X30307387Y-131023742D01*
X30260559Y-131033693D01*
X30213321Y-131045863D01*
X30211978Y-131046253D01*
X30164274Y-131060171D01*
X30164274Y-131229893D01*
X30074448Y-131229893D01*
X30068865Y-131081205D01*
X29960734Y-131135461D01*
X29908722Y-131162554D01*
X29875447Y-131183135D01*
X29856322Y-131200853D01*
X29846761Y-131219358D01*
X29844568Y-131227880D01*
X29840835Y-131256904D01*
X29838024Y-131300546D01*
X29836160Y-131353313D01*
X29835269Y-131409711D01*
X24629596Y-131409711D01*
X24685501Y-131387288D01*
X24782893Y-131348487D01*
X24868615Y-131314610D01*
X24940301Y-131286589D01*
X24995584Y-131265355D01*
X25032097Y-131251836D01*
X25047474Y-131246964D01*
X25047567Y-131246961D01*
X25065152Y-131252148D01*
X25100398Y-131266241D01*
X25148069Y-131287047D01*
X25199125Y-131310567D01*
X25253581Y-131335642D01*
X25300393Y-131356059D01*
X25334365Y-131369626D01*
X25349912Y-131374173D01*
X25371995Y-131369044D01*
X25404586Y-131356127D01*
X25440241Y-131339129D01*
X25471516Y-131321758D01*
X25490970Y-131307721D01*
X25493879Y-131302466D01*
X25481847Y-131294006D01*
X25450229Y-131277103D01*
X25402712Y-131253585D01*
X25342990Y-131225278D01*
X25275377Y-131194293D01*
X25059923Y-131097099D01*
X24994711Y-131126251D01*
X24969479Y-131137752D01*
X24923935Y-131158744D01*
X24860821Y-131187955D01*
X24782879Y-131224112D01*
X24692850Y-131265943D01*
X24593476Y-131312175D01*
X24487499Y-131361536D01*
X24422150Y-131392000D01*
X24315714Y-131441439D01*
X24216002Y-131487375D01*
X24125454Y-131528712D01*
X24046509Y-131564354D01*
X23981607Y-131593204D01*
X23933188Y-131614166D01*
X23903692Y-131626144D01*
X23895682Y-131628598D01*
X23877622Y-131624886D01*
X23839835Y-131614616D01*
X23786795Y-131599088D01*
X23722975Y-131579601D01*
X23674021Y-131564216D01*
X23580382Y-131535387D01*
X23510068Y-131515706D01*
X23463193Y-131505001D01*
X23439874Y-131503103D01*
X23174293Y-131503103D01*
X23161252Y-131498194D01*
X23204594Y-131484655D01*
X23247937Y-131471116D01*
X23240389Y-130779998D01*
X23234794Y-130267765D01*
X23487354Y-130267765D01*
X23487400Y-130358273D01*
X23487601Y-130462442D01*
X23487956Y-130577916D01*
X23488465Y-130702340D01*
X23488709Y-130753632D01*
X23492003Y-131417932D01*
X23676460Y-131477820D01*
X23742358Y-131498808D01*
X23800943Y-131516709D01*
X23847379Y-131530103D01*
X23876831Y-131537568D01*
X23883512Y-131538629D01*
X23899204Y-131533575D01*
X23935624Y-131518725D01*
X23990476Y-131495104D01*
X24061463Y-131463739D01*
X24146286Y-131425654D01*
X24242649Y-131381874D01*
X24348254Y-131333426D01*
X24460804Y-131281335D01*
X24480868Y-131272002D01*
X25055629Y-131004455D01*
X25240627Y-131086854D01*
X25310923Y-131118147D01*
X25379571Y-131148678D01*
X25440263Y-131175643D01*
X25486692Y-131196239D01*
X25500499Y-131202350D01*
X25575373Y-131235447D01*
X25572261Y-131079058D01*
X29761731Y-131079058D01*
X29769539Y-131108733D01*
X29786060Y-131119898D01*
X29803526Y-131114560D01*
X29837949Y-131100062D01*
X29883661Y-131078885D01*
X29916210Y-131062977D01*
X29922635Y-131060171D01*
X30044199Y-131007081D01*
X30172718Y-130968023D01*
X30309460Y-130943917D01*
X30444140Y-130933517D01*
X30516699Y-130931091D01*
X30570007Y-130930839D01*
X30610202Y-130933252D01*
X30643419Y-130938821D01*
X30675796Y-130948036D01*
X30691015Y-130953251D01*
X30731938Y-130967171D01*
X30763182Y-130976788D01*
X30776556Y-130979816D01*
X30793989Y-130968239D01*
X30809067Y-130938078D01*
X30819661Y-130896194D01*
X30823644Y-130849445D01*
X30822879Y-130830567D01*
X30813320Y-130778802D01*
X30791976Y-130737734D01*
X30755369Y-130704052D01*
X30700016Y-130674448D01*
X30631545Y-130648639D01*
X30522405Y-130611964D01*
X30448289Y-130648380D01*
X30369012Y-130680513D01*
X30285501Y-130702831D01*
X30208921Y-130712462D01*
X30198631Y-130712634D01*
X30163222Y-130705594D01*
X30136458Y-130680406D01*
X30133051Y-130675489D01*
X30115036Y-130651355D01*
X30099559Y-130645639D01*
X30075443Y-130655330D01*
X30069516Y-130658378D01*
X29963217Y-130724040D01*
X29879412Y-130800007D01*
X29816704Y-130887834D01*
X29774535Y-130986396D01*
X29763237Y-131036428D01*
X29761731Y-131079058D01*
X25572261Y-131079058D01*
X25565679Y-130748258D01*
X25563123Y-130622388D01*
X25561642Y-130551861D01*
X30177724Y-130551861D01*
X30179242Y-130590057D01*
X30189163Y-130617664D01*
X30191217Y-130620035D01*
X30216448Y-130628540D01*
X30260807Y-130625070D01*
X30321219Y-130610071D01*
X30367017Y-130594579D01*
X30422348Y-130569105D01*
X30464185Y-130539674D01*
X30488534Y-130509708D01*
X30492608Y-130486892D01*
X30475816Y-130461966D01*
X30440032Y-130443323D01*
X30391470Y-130433785D01*
X30374173Y-130433116D01*
X30333031Y-130438563D01*
X30285897Y-130452766D01*
X30240466Y-130472387D01*
X30204433Y-130494088D01*
X30185494Y-130514530D01*
X30185284Y-130515054D01*
X30177724Y-130551861D01*
X25561642Y-130551861D01*
X25560341Y-130489876D01*
X25557457Y-130356388D01*
X25554598Y-130227589D01*
X25551887Y-130109145D01*
X25549451Y-130006720D01*
X25548050Y-129950479D01*
X25540117Y-129639889D01*
X25325996Y-129579949D01*
X25111876Y-129520007D01*
X24517087Y-129873804D01*
X23922299Y-130227602D01*
X23707151Y-130158604D01*
X23637709Y-130136384D01*
X23577220Y-130117122D01*
X23529612Y-130102061D01*
X23498809Y-130092444D01*
X23488709Y-130089470D01*
X23488139Y-130101771D01*
X23487723Y-130137158D01*
X23487461Y-130193275D01*
X23487354Y-130267765D01*
X23234794Y-130267765D01*
X23232841Y-130088880D01*
X23307619Y-130051132D01*
X23347746Y-130029120D01*
X23378642Y-130008945D01*
X23392676Y-129996076D01*
X23410548Y-129981180D01*
X23437745Y-129971579D01*
X23464989Y-129968807D01*
X23482999Y-129974395D01*
X23485643Y-129980725D01*
X23497783Y-129992355D01*
X23534294Y-130009554D01*
X23595311Y-130032377D01*
X23680970Y-130060880D01*
X23687911Y-130063095D01*
X23756352Y-130084583D01*
X23816926Y-130103029D01*
X23865227Y-130117137D01*
X23896849Y-130125611D01*
X23906741Y-130127496D01*
X23922559Y-130121240D01*
X23956303Y-130103874D01*
X24004156Y-130077495D01*
X24062301Y-130044203D01*
X24119927Y-130010271D01*
X24316554Y-129893047D01*
X24308177Y-129416653D01*
X24306189Y-129297903D01*
X24304358Y-129177616D01*
X24302743Y-129060482D01*
X24301402Y-128951190D01*
X24300393Y-128854430D01*
X24299776Y-128774892D01*
X24299754Y-128768997D01*
X26781982Y-128768997D01*
X26784546Y-128962767D01*
X26805594Y-129141603D01*
X26827453Y-129263685D01*
X26850380Y-129366197D01*
X26876559Y-129454989D01*
X26908172Y-129535909D01*
X26947400Y-129614807D01*
X26996428Y-129697530D01*
X27035258Y-129757132D01*
X27150828Y-129911045D01*
X27277207Y-130043917D01*
X27413319Y-130154928D01*
X27558087Y-130243260D01*
X27710435Y-130308097D01*
X27791769Y-130332122D01*
X27866251Y-130345406D01*
X27957295Y-130353168D01*
X28056610Y-130355322D01*
X28155902Y-130351784D01*
X28246879Y-130342467D01*
X28278867Y-130337145D01*
X28376072Y-130315637D01*
X28459315Y-130289277D01*
X28539440Y-130253960D01*
X28627288Y-130205583D01*
X28628692Y-130204753D01*
X28822601Y-130079012D01*
X28992779Y-129944719D01*
X29139778Y-129800926D01*
X29264146Y-129646686D01*
X29366433Y-129481049D01*
X29447189Y-129303068D01*
X29497689Y-129141471D01*
X30719105Y-129141471D01*
X30724332Y-129256113D01*
X30729799Y-129328467D01*
X30735283Y-129381935D01*
X30742227Y-129423036D01*
X30752074Y-129458285D01*
X30766265Y-129494200D01*
X30786245Y-129537299D01*
X30786856Y-129538577D01*
X30846404Y-129651406D01*
X30909838Y-129746531D01*
X30982619Y-129831638D01*
X31024615Y-129873209D01*
X31135438Y-129961002D01*
X31261853Y-130031622D01*
X31398569Y-130082429D01*
X31484269Y-130102475D01*
X31535993Y-130108086D01*
X31605938Y-130110410D01*
X31687132Y-130109724D01*
X31772605Y-130106302D01*
X31855385Y-130100420D01*
X31928502Y-130092355D01*
X31983406Y-130082749D01*
X32115026Y-130040393D01*
X32242265Y-129976720D01*
X32360807Y-129895032D01*
X32466338Y-129798630D01*
X32554544Y-129690815D01*
X32605622Y-129606596D01*
X32648727Y-129508704D01*
X32664788Y-129459633D01*
X33207515Y-129459633D01*
X33212339Y-129555042D01*
X33213429Y-129585070D01*
X33214870Y-129637958D01*
X33216608Y-129711125D01*
X33218591Y-129801992D01*
X33220766Y-129907978D01*
X33223078Y-130026505D01*
X33225476Y-130154992D01*
X33227906Y-130290859D01*
X33230015Y-130413723D01*
X33233625Y-130622274D01*
X33237036Y-130806574D01*
X33240288Y-130967813D01*
X33243423Y-131107181D01*
X33246480Y-131225869D01*
X33249501Y-131325067D01*
X33252525Y-131405965D01*
X33255594Y-131469754D01*
X33258747Y-131517623D01*
X33262026Y-131550762D01*
X33265470Y-131570363D01*
X33269120Y-131577615D01*
X33269624Y-131577713D01*
X33285180Y-131573896D01*
X33320140Y-131563420D01*
X33369800Y-131547752D01*
X33429453Y-131528355D01*
X33449452Y-131521743D01*
X33518692Y-131498031D01*
X33586404Y-131473560D01*
X33645301Y-131451044D01*
X33688094Y-131433198D01*
X33691727Y-131431533D01*
X33765374Y-131397293D01*
X33757639Y-131328925D01*
X33846766Y-131328925D01*
X33847193Y-131339713D01*
X33851291Y-131359804D01*
X33859183Y-131401084D01*
X33870150Y-131459701D01*
X33883477Y-131531806D01*
X33898446Y-131613549D01*
X33908641Y-131669613D01*
X33927403Y-131771519D01*
X33943116Y-131851291D01*
X33956924Y-131911890D01*
X33969968Y-131956279D01*
X33983392Y-131987418D01*
X33998339Y-132008267D01*
X34015952Y-132021789D01*
X34037373Y-132030944D01*
X34049566Y-132034721D01*
X34076220Y-132038894D01*
X34122528Y-132042548D01*
X34182703Y-132045360D01*
X34250957Y-132047010D01*
X34275078Y-132047250D01*
X34461392Y-132048397D01*
X34470990Y-131943447D01*
X34476238Y-131865671D01*
X34479328Y-131775117D01*
X34480358Y-131677353D01*
X34479428Y-131577946D01*
X34476636Y-131482466D01*
X34472080Y-131396480D01*
X34465858Y-131325556D01*
X34459279Y-131281001D01*
X34436055Y-131192365D01*
X34406021Y-131123346D01*
X34370248Y-131076018D01*
X34344110Y-131057718D01*
X34311050Y-131049019D01*
X34270778Y-131052595D01*
X34220876Y-131069445D01*
X34158924Y-131100569D01*
X34082504Y-131146968D01*
X34008150Y-131196561D01*
X33944435Y-131240765D01*
X33899248Y-131273605D01*
X33869779Y-131297581D01*
X33853221Y-131315188D01*
X33846766Y-131328925D01*
X33757639Y-131328925D01*
X33757207Y-131325106D01*
X33749040Y-131252920D01*
X33795617Y-131230709D01*
X33830611Y-131211328D01*
X33875334Y-131182986D01*
X33914594Y-131155749D01*
X33950650Y-131129513D01*
X33977409Y-131110104D01*
X33989435Y-131101464D01*
X33989587Y-131101363D01*
X33987998Y-131088876D01*
X33982547Y-131053379D01*
X33973575Y-130996956D01*
X33961422Y-130921691D01*
X33946426Y-130829667D01*
X33928929Y-130722966D01*
X33909270Y-130603674D01*
X33887790Y-130473874D01*
X33864827Y-130335648D01*
X33855539Y-130279879D01*
X33718900Y-129460033D01*
X33463208Y-129459833D01*
X33207515Y-129459633D01*
X32664788Y-129459633D01*
X32685971Y-129394909D01*
X32696885Y-129350319D01*
X33236775Y-129350319D01*
X33245836Y-129367855D01*
X33274607Y-129378829D01*
X33300973Y-129381374D01*
X33346509Y-129382560D01*
X33404986Y-129382533D01*
X33470178Y-129381438D01*
X33535855Y-129379422D01*
X33595789Y-129376631D01*
X33643754Y-129373210D01*
X33672538Y-129369513D01*
X33689752Y-129363645D01*
X33696824Y-129350700D01*
X33696039Y-129323441D01*
X33693524Y-129303010D01*
X33685494Y-129242478D01*
X33798081Y-129226331D01*
X33852095Y-129218277D01*
X33899047Y-129210723D01*
X33931306Y-129204918D01*
X33938091Y-129203438D01*
X33954940Y-129201641D01*
X33966338Y-129209464D01*
X33974920Y-129231636D01*
X33983323Y-129272887D01*
X33986221Y-129289798D01*
X33994752Y-129321300D01*
X34007995Y-129332149D01*
X34015954Y-129331654D01*
X34051453Y-129323649D01*
X34097651Y-129312425D01*
X34148001Y-129299680D01*
X34195955Y-129287112D01*
X34234964Y-129276420D01*
X34258483Y-129269301D01*
X34262133Y-129267806D01*
X34264409Y-129253290D01*
X34259428Y-129222961D01*
X34253903Y-129202306D01*
X34244056Y-129167441D01*
X34238867Y-129144727D01*
X34238705Y-129140209D01*
X34254169Y-129133740D01*
X34287293Y-129123915D01*
X34331689Y-129112251D01*
X34380970Y-129100271D01*
X34428748Y-129089491D01*
X34468636Y-129081434D01*
X34494246Y-129077618D01*
X34500122Y-129078016D01*
X34509131Y-129094978D01*
X34519995Y-129125310D01*
X34521285Y-129129589D01*
X34534007Y-129172738D01*
X34693022Y-129102620D01*
X34752901Y-129075517D01*
X34805217Y-129050533D01*
X34845067Y-129030105D01*
X34867549Y-129016667D01*
X34869748Y-129014821D01*
X34875069Y-129003003D01*
X34863370Y-128994072D01*
X34833147Y-128987891D01*
X34782897Y-128984323D01*
X34711118Y-128983232D01*
X34616305Y-128984479D01*
X34554549Y-128986090D01*
X34332923Y-128999376D01*
X34124298Y-129026699D01*
X33919578Y-129069694D01*
X33709667Y-129129999D01*
X33656244Y-129147656D01*
X33532969Y-129191189D01*
X33430229Y-129231312D01*
X33348629Y-129267655D01*
X33288781Y-129299850D01*
X33251294Y-129327528D01*
X33236775Y-129350319D01*
X32696885Y-129350319D01*
X32716017Y-129272154D01*
X32737525Y-129147386D01*
X32740233Y-129119482D01*
X33175072Y-129119482D01*
X33177994Y-129147191D01*
X33181684Y-129163783D01*
X33190437Y-129200640D01*
X33197261Y-129227782D01*
X33198691Y-129232936D01*
X33212075Y-129235700D01*
X33245850Y-129225007D01*
X33299019Y-129201177D01*
X33302488Y-129199491D01*
X33356766Y-129174613D01*
X33425185Y-129145559D01*
X33497831Y-129116447D01*
X33548031Y-129097454D01*
X33727391Y-129038528D01*
X33919915Y-128987486D01*
X34113805Y-128947288D01*
X34205093Y-128932540D01*
X34290383Y-128921641D01*
X34382723Y-128912370D01*
X34477600Y-128904936D01*
X34570498Y-128899545D01*
X34656904Y-128896404D01*
X34732304Y-128895721D01*
X34792184Y-128897703D01*
X34832028Y-128902557D01*
X34836135Y-128903584D01*
X34863547Y-128910552D01*
X34878031Y-128909130D01*
X34881600Y-128894827D01*
X34876268Y-128863149D01*
X34868858Y-128830579D01*
X34857073Y-128789851D01*
X34843046Y-128767820D01*
X34822853Y-128757891D01*
X34796687Y-128755276D01*
X34749506Y-128754438D01*
X34685659Y-128755190D01*
X34609495Y-128757344D01*
X34525367Y-128760712D01*
X34437622Y-128765107D01*
X34350613Y-128770342D01*
X34268688Y-128776229D01*
X34196199Y-128782581D01*
X34159564Y-128786476D01*
X33910650Y-128826265D01*
X33671562Y-128886472D01*
X33445527Y-128966217D01*
X33350078Y-129007710D01*
X33297601Y-129032945D01*
X33249873Y-129057640D01*
X33214621Y-129077733D01*
X33205795Y-129083535D01*
X33183302Y-129101713D01*
X33175072Y-129119482D01*
X32740233Y-129119482D01*
X32749155Y-129027550D01*
X32749568Y-128919591D01*
X32745989Y-128878755D01*
X32717977Y-128716757D01*
X33193207Y-128716757D01*
X33193601Y-128779588D01*
X33195832Y-128844201D01*
X33199435Y-128897824D01*
X33199983Y-128903346D01*
X33204929Y-128945516D01*
X33210376Y-128967207D01*
X33219181Y-128973270D01*
X33234197Y-128968560D01*
X33237481Y-128967079D01*
X33257579Y-128953160D01*
X33261612Y-128931383D01*
X33258866Y-128914063D01*
X33252879Y-128885070D01*
X33243159Y-128838490D01*
X33231231Y-128781627D01*
X33222655Y-128740885D01*
X33194494Y-128607312D01*
X33193207Y-128716757D01*
X32717977Y-128716757D01*
X32712627Y-128685815D01*
X32661496Y-128502628D01*
X32593944Y-128333419D01*
X32537681Y-128225676D01*
X32495254Y-128163135D01*
X32438098Y-128093434D01*
X32371878Y-128022325D01*
X32302256Y-127955560D01*
X32234897Y-127898889D01*
X32175972Y-127858358D01*
X32093857Y-127818602D01*
X32086232Y-127815873D01*
X33154165Y-127815873D01*
X33155632Y-127876702D01*
X33162240Y-127948029D01*
X33174081Y-128032590D01*
X33191245Y-128133123D01*
X33213823Y-128252366D01*
X33241906Y-128393055D01*
X33249165Y-128428793D01*
X33270653Y-128534606D01*
X33290449Y-128632590D01*
X33307997Y-128719947D01*
X33322739Y-128793876D01*
X33334115Y-128851580D01*
X33341570Y-128890258D01*
X33344544Y-128907111D01*
X33344574Y-128907509D01*
X33355295Y-128907729D01*
X33383764Y-128899405D01*
X33424443Y-128884235D01*
X33436803Y-128879185D01*
X33488390Y-128859409D01*
X33554801Y-128836317D01*
X33626292Y-128813208D01*
X33675326Y-128798445D01*
X33810939Y-128764094D01*
X33963512Y-128733885D01*
X34124734Y-128708985D01*
X34286295Y-128690562D01*
X34439887Y-128679782D01*
X34537187Y-128677410D01*
X34581943Y-128676039D01*
X34614723Y-128672542D01*
X34629206Y-128667638D01*
X34629416Y-128666940D01*
X34626895Y-128652479D01*
X34619731Y-128616042D01*
X34608522Y-128560550D01*
X34593863Y-128488924D01*
X34576354Y-128404086D01*
X34556591Y-128308957D01*
X34539029Y-128224878D01*
X34517213Y-128120551D01*
X34496563Y-128021565D01*
X34477788Y-127931335D01*
X34461596Y-127853275D01*
X34448696Y-127790798D01*
X34439797Y-127747318D01*
X34436236Y-127729549D01*
X34406374Y-127633777D01*
X34356353Y-127537851D01*
X34290640Y-127447515D01*
X34213704Y-127368511D01*
X34130014Y-127306583D01*
X34090766Y-127285546D01*
X33971504Y-127242327D01*
X33850139Y-127222098D01*
X33729661Y-127223870D01*
X33613055Y-127246654D01*
X33503308Y-127289464D01*
X33403408Y-127351311D01*
X33316340Y-127431205D01*
X33245093Y-127528160D01*
X33220773Y-127573384D01*
X33197895Y-127622786D01*
X33179705Y-127668998D01*
X33166292Y-127714758D01*
X33157748Y-127762805D01*
X33154165Y-127815873D01*
X32086232Y-127815873D01*
X31994755Y-127783142D01*
X31887049Y-127754305D01*
X31779118Y-127734418D01*
X31701671Y-127726697D01*
X31635539Y-127724319D01*
X31584729Y-127726330D01*
X31539357Y-127733669D01*
X31491771Y-127746585D01*
X31392709Y-127785239D01*
X31292787Y-127841592D01*
X31188309Y-127917892D01*
X31132206Y-127965099D01*
X31079175Y-128013200D01*
X31040243Y-128053863D01*
X31009126Y-128094877D01*
X30979541Y-128144032D01*
X30962884Y-128175000D01*
X30869748Y-128370833D01*
X30799636Y-128561614D01*
X30751715Y-128751126D01*
X30725149Y-128943151D01*
X30719105Y-129141471D01*
X29497689Y-129141471D01*
X29506963Y-129111795D01*
X29546306Y-128906280D01*
X29565767Y-128685576D01*
X29568168Y-128584198D01*
X29567397Y-128505294D01*
X29563353Y-128441927D01*
X29554940Y-128384283D01*
X29541066Y-128322549D01*
X29537412Y-128308364D01*
X29481374Y-128128719D01*
X29410536Y-127964744D01*
X29322910Y-127813572D01*
X29216505Y-127672337D01*
X29089332Y-127538171D01*
X28939400Y-127408207D01*
X28881594Y-127363495D01*
X28803397Y-127307891D01*
X28734001Y-127267144D01*
X28664961Y-127237410D01*
X28587827Y-127214845D01*
X28525489Y-127201448D01*
X28340776Y-127178428D01*
X28155557Y-127180528D01*
X27971328Y-127207502D01*
X27789588Y-127259107D01*
X27611836Y-127335097D01*
X27569148Y-127357362D01*
X27483764Y-127405335D01*
X27416524Y-127448097D01*
X27362007Y-127490032D01*
X27314794Y-127535527D01*
X27269466Y-127588967D01*
X27247745Y-127617441D01*
X27110704Y-127815406D01*
X26997998Y-128008994D01*
X26909200Y-128199676D01*
X26843882Y-128388924D01*
X26801618Y-128578207D01*
X26781982Y-128768997D01*
X24299754Y-128768997D01*
X24299605Y-128729262D01*
X24298906Y-128657608D01*
X24297096Y-128594244D01*
X24294403Y-128543819D01*
X24291053Y-128510982D01*
X24288481Y-128501017D01*
X24279008Y-128496190D01*
X24259589Y-128500175D01*
X24227007Y-128514272D01*
X24178041Y-128539780D01*
X24138852Y-128561442D01*
X24085258Y-128591037D01*
X24039645Y-128615438D01*
X24006599Y-128632248D01*
X23990702Y-128639073D01*
X23990298Y-128639115D01*
X23976255Y-128634669D01*
X23941754Y-128622145D01*
X23890021Y-128602760D01*
X23824279Y-128577734D01*
X23747755Y-128548284D01*
X23669372Y-128517852D01*
X23571928Y-128480158D01*
X23495362Y-128451310D01*
X23437025Y-128430460D01*
X23394272Y-128416762D01*
X23364457Y-128409367D01*
X23344931Y-128407430D01*
X23333048Y-128410102D01*
X23332922Y-128410169D01*
X23313629Y-128417067D01*
X23307727Y-128405557D01*
X23307546Y-128399221D01*
X23297334Y-128374664D01*
X23285284Y-128366062D01*
X23269936Y-128358079D01*
X23275626Y-128348413D01*
X23285284Y-128341036D01*
X23290807Y-128335448D01*
X23290889Y-128335277D01*
X23464738Y-128335277D01*
X23467464Y-128342171D01*
X23481141Y-128351477D01*
X23508244Y-128364516D01*
X23551245Y-128382613D01*
X23612619Y-128407088D01*
X23694840Y-128439266D01*
X23709781Y-128445095D01*
X23786816Y-128475046D01*
X23855774Y-128501662D01*
X23913176Y-128523616D01*
X23955539Y-128539581D01*
X23979383Y-128548230D01*
X23983240Y-128549393D01*
X23995639Y-128543458D01*
X24027764Y-128526234D01*
X24077243Y-128499041D01*
X24141705Y-128463200D01*
X24218778Y-128420032D01*
X24306091Y-128370857D01*
X24401272Y-128316997D01*
X24441203Y-128294331D01*
X24541636Y-128237276D01*
X24637449Y-128182854D01*
X24725861Y-128132642D01*
X24804093Y-128088220D01*
X24869364Y-128051167D01*
X24918894Y-128023061D01*
X24949902Y-128005481D01*
X24955101Y-128002538D01*
X25018868Y-127966480D01*
X25205924Y-128073816D01*
X25268861Y-128109352D01*
X25324921Y-128139920D01*
X25370081Y-128163411D01*
X25400318Y-128177718D01*
X25410756Y-128181152D01*
X25430764Y-128176146D01*
X25466052Y-128163028D01*
X25508494Y-128144853D01*
X25588458Y-128108555D01*
X25468878Y-128038654D01*
X25353881Y-127971541D01*
X25258876Y-127916382D01*
X25181979Y-127872137D01*
X25121304Y-127837772D01*
X25074967Y-127812249D01*
X25041083Y-127794532D01*
X25017767Y-127783584D01*
X25003134Y-127778370D01*
X24995300Y-127777851D01*
X24994892Y-127777988D01*
X24981372Y-127785933D01*
X24948678Y-127806380D01*
X24898960Y-127837951D01*
X24834365Y-127879268D01*
X24757044Y-127928953D01*
X24669144Y-127985628D01*
X24572815Y-128047916D01*
X24470206Y-128114438D01*
X24469335Y-128115003D01*
X23959389Y-128446028D01*
X23739863Y-128375709D01*
X23661345Y-128350755D01*
X23603101Y-128332992D01*
X23561250Y-128321632D01*
X23531906Y-128315887D01*
X23511188Y-128314969D01*
X23495211Y-128318090D01*
X23482245Y-128323431D01*
X23470490Y-128329471D01*
X23464738Y-128335277D01*
X23290889Y-128335277D01*
X23295338Y-128326030D01*
X23298975Y-128310433D01*
X23301814Y-128286308D01*
X23303952Y-128251304D01*
X23305488Y-128203072D01*
X23306517Y-128139262D01*
X23307138Y-128057525D01*
X23307448Y-127955511D01*
X23307544Y-127830869D01*
X23307546Y-127803285D01*
X23307546Y-127520661D01*
X23536234Y-127520661D01*
X23537268Y-127637955D01*
X23539760Y-127772767D01*
X23543722Y-127923779D01*
X23544857Y-127961109D01*
X23553187Y-128228575D01*
X23732495Y-128286211D01*
X23797676Y-128306745D01*
X23855683Y-128324240D01*
X23901534Y-128337251D01*
X23930242Y-128344334D01*
X23935889Y-128345188D01*
X23951071Y-128338690D01*
X23985342Y-128319543D01*
X24036542Y-128289086D01*
X24102509Y-128248658D01*
X24181081Y-128199598D01*
X24270096Y-128143247D01*
X24367393Y-128080943D01*
X24470810Y-128014026D01*
X24479724Y-128008226D01*
X24999472Y-127669924D01*
X25311727Y-127850743D01*
X25392336Y-127897098D01*
X25465648Y-127938636D01*
X25528836Y-127973805D01*
X25579072Y-128001052D01*
X25613529Y-128018827D01*
X25629382Y-128025577D01*
X25630048Y-128025495D01*
X25630540Y-128012371D01*
X25630272Y-127976766D01*
X25629330Y-127921627D01*
X25627798Y-127849902D01*
X25625764Y-127764537D01*
X25623312Y-127668481D01*
X25620527Y-127564680D01*
X25617496Y-127456081D01*
X25614303Y-127345632D01*
X25611035Y-127236280D01*
X25607777Y-127130972D01*
X25604614Y-127032656D01*
X25601632Y-126944278D01*
X25598917Y-126868787D01*
X25596554Y-126809129D01*
X25594629Y-126768252D01*
X25593227Y-126749102D01*
X25592965Y-126748052D01*
X25581126Y-126742973D01*
X25548981Y-126729792D01*
X25499847Y-126709854D01*
X25437043Y-126684503D01*
X25363888Y-126655082D01*
X25317496Y-126636472D01*
X25043990Y-126526858D01*
X24453373Y-126923553D01*
X23862757Y-127320249D01*
X23715544Y-127284542D01*
X23656566Y-127270074D01*
X23606001Y-127257365D01*
X23569367Y-127247823D01*
X23552429Y-127242948D01*
X23546387Y-127252940D01*
X23541732Y-127287022D01*
X23538479Y-127343879D01*
X23536642Y-127422197D01*
X23536234Y-127520661D01*
X23307546Y-127520661D01*
X23307546Y-127281929D01*
X23371152Y-127228296D01*
X23403910Y-127198039D01*
X23426871Y-127171798D01*
X23434758Y-127156338D01*
X23445115Y-127140624D01*
X23456018Y-127138013D01*
X23481723Y-127129901D01*
X23500542Y-127116960D01*
X23517760Y-127103387D01*
X23523344Y-127109452D01*
X23523806Y-127123320D01*
X23526458Y-127145068D01*
X23530555Y-127150734D01*
X23544772Y-127153739D01*
X23578655Y-127161936D01*
X23627253Y-127174101D01*
X23685613Y-127189010D01*
X23690354Y-127190233D01*
X23843402Y-127229732D01*
X24050816Y-127091983D01*
X24258230Y-126954235D01*
X24266115Y-126843139D01*
X24277161Y-126734816D01*
X24294639Y-126646326D01*
X24320612Y-126572434D01*
X24357144Y-126507909D01*
X24406297Y-126447519D01*
X24432640Y-126420729D01*
X24449525Y-126405560D01*
X24472160Y-126387583D01*
X24501877Y-126365970D01*
X24540008Y-126339895D01*
X24587882Y-126308529D01*
X24646833Y-126271044D01*
X24652053Y-126267793D01*
X31375301Y-126267793D01*
X31382393Y-126283935D01*
X31404901Y-126294460D01*
X31406626Y-126295048D01*
X31432708Y-126301099D01*
X31446702Y-126291749D01*
X31455953Y-126269821D01*
X31477012Y-126237175D01*
X31512665Y-126206243D01*
X31519559Y-126201843D01*
X31568884Y-126177436D01*
X31605492Y-126173049D01*
X31632606Y-126188875D01*
X31646294Y-126209366D01*
X31671780Y-126239959D01*
X31703182Y-126246159D01*
X31727154Y-126236207D01*
X31736504Y-126224988D01*
X31733807Y-126205587D01*
X31722072Y-126178203D01*
X31692883Y-126131516D01*
X31656490Y-126105329D01*
X31607186Y-126096663D01*
X31569549Y-126098580D01*
X31531515Y-126101092D01*
X31506303Y-126100050D01*
X31500119Y-126097136D01*
X31507878Y-126074132D01*
X31527209Y-126039813D01*
X31552802Y-126001903D01*
X31579351Y-125968122D01*
X31601547Y-125946196D01*
X31605698Y-125943522D01*
X31650122Y-125932381D01*
X31703081Y-125938068D01*
X31729896Y-125947273D01*
X31749195Y-125945489D01*
X31765488Y-125921695D01*
X31773842Y-125893757D01*
X31766494Y-125875153D01*
X31740442Y-125863593D01*
X31692684Y-125856785D01*
X31678998Y-125855700D01*
X31610220Y-125858490D01*
X31554310Y-125879824D01*
X31505779Y-125922434D01*
X31481656Y-125953877D01*
X31458278Y-125996062D01*
X31433126Y-126055127D01*
X31409144Y-126122952D01*
X31389276Y-126191418D01*
X31379172Y-126236546D01*
X31375301Y-126267793D01*
X24652053Y-126267793D01*
X24718190Y-126226613D01*
X24803286Y-126174407D01*
X24903451Y-126113600D01*
X25020018Y-126043363D01*
X25154316Y-125962868D01*
X25307677Y-125871288D01*
X25481434Y-125767795D01*
X25511872Y-125749686D01*
X25657969Y-125662812D01*
X25797792Y-125579744D01*
X25929802Y-125501390D01*
X26052458Y-125428662D01*
X26164220Y-125362470D01*
X26263548Y-125303727D01*
X26348902Y-125253341D01*
X26418740Y-125212225D01*
X26471525Y-125181288D01*
X26505714Y-125161442D01*
X26519768Y-125153597D01*
X26520028Y-125153506D01*
X26525348Y-125163887D01*
X26526010Y-125172588D01*
X26536193Y-125189453D01*
X26545092Y-125191669D01*
X26556930Y-125191459D01*
X26562087Y-125187189D01*
X26560226Y-125173402D01*
X26551009Y-125144639D01*
X26540264Y-125113436D01*
X26534655Y-125091378D01*
X26942764Y-125091378D01*
X26970808Y-125121231D01*
X26992059Y-125140840D01*
X27009679Y-125142942D01*
X27033315Y-125131305D01*
X27078349Y-125117193D01*
X27123988Y-125121711D01*
X27164512Y-125141406D01*
X27194198Y-125172825D01*
X27207328Y-125212515D01*
X27205696Y-125235359D01*
X27199312Y-125266467D01*
X27195659Y-125285952D01*
X27204689Y-125297331D01*
X27227561Y-125306538D01*
X27252703Y-125310244D01*
X27267247Y-125306551D01*
X27274397Y-125290413D01*
X27283312Y-125256793D01*
X27291054Y-125218375D01*
X27297730Y-125117168D01*
X27281400Y-125024370D01*
X27242881Y-124941982D01*
X27182987Y-124872005D01*
X27134884Y-124835346D01*
X27087036Y-124807406D01*
X27041619Y-124786031D01*
X27004372Y-124773468D01*
X26981035Y-124771962D01*
X26977737Y-124773866D01*
X26971664Y-124788175D01*
X26965208Y-124810602D01*
X26962803Y-124829376D01*
X26970276Y-124843196D01*
X26992471Y-124856790D01*
X27028732Y-124872612D01*
X27094657Y-124908345D01*
X27149994Y-124954503D01*
X27188748Y-125005598D01*
X27199137Y-125028617D01*
X27206725Y-125054140D01*
X27203045Y-125061268D01*
X27190476Y-125056963D01*
X27165697Y-125050498D01*
X27126130Y-125044841D01*
X27098464Y-125042451D01*
X27047819Y-125042477D01*
X27009942Y-125051858D01*
X26985630Y-125064684D01*
X26942764Y-125091378D01*
X26534655Y-125091378D01*
X26511586Y-125000646D01*
X26506262Y-124894402D01*
X26524750Y-124792357D01*
X26567510Y-124692168D01*
X26635003Y-124591489D01*
X26645153Y-124578813D01*
X26704175Y-124516569D01*
X26778427Y-124453314D01*
X26858955Y-124395928D01*
X26936802Y-124351293D01*
X26948318Y-124345837D01*
X27044994Y-124315266D01*
X27150665Y-124306851D01*
X27262325Y-124320316D01*
G37*
%TD.AperFunction*%
%TA.AperFunction,EtchedComponent*%
%TO.C,REF\u002A\u002A*%
G36*
X63901313Y-138016381D02*
G01*
X64392380Y-138016381D01*
X64601931Y-137499914D01*
X65404148Y-137499914D01*
X64879214Y-138799549D01*
X64076996Y-138799549D01*
X64286547Y-138278848D01*
X63795479Y-138278848D01*
X63585929Y-138799549D01*
X62785828Y-138799549D01*
X63310762Y-137499914D01*
X64110863Y-137499914D01*
X63901313Y-138016381D01*
G37*
%TD.AperFunction*%
%TA.AperFunction,EtchedComponent*%
G36*
X63901313Y-138016381D02*
G01*
X64392380Y-138016381D01*
X64601931Y-137499914D01*
X65404148Y-137499914D01*
X64879214Y-138799549D01*
X64076996Y-138799549D01*
X64286547Y-138278848D01*
X63795479Y-138278848D01*
X63585929Y-138799549D01*
X62785828Y-138799549D01*
X63310762Y-137499914D01*
X64110863Y-137499914D01*
X63901313Y-138016381D01*
G37*
%TD.AperFunction*%
%TA.AperFunction,EtchedComponent*%
G36*
X67277403Y-137762381D02*
G01*
X66250818Y-137762381D01*
X66147101Y-138018498D01*
X67152519Y-138018498D01*
X67046686Y-138280965D01*
X66041267Y-138280965D01*
X65937551Y-138537082D01*
X66964136Y-138537082D01*
X66858302Y-138799549D01*
X65107816Y-138799549D01*
X65103159Y-138799468D01*
X65098713Y-138799225D01*
X65094481Y-138798820D01*
X65090461Y-138798251D01*
X65086655Y-138797517D01*
X65083064Y-138796619D01*
X65079688Y-138795554D01*
X65076529Y-138794323D01*
X65073586Y-138792925D01*
X65070862Y-138791358D01*
X65068356Y-138789622D01*
X65066069Y-138787717D01*
X65064003Y-138785641D01*
X65062157Y-138783394D01*
X65060534Y-138780974D01*
X65059132Y-138778382D01*
X65057954Y-138775616D01*
X65057000Y-138772676D01*
X65056271Y-138769560D01*
X65055767Y-138766269D01*
X65055490Y-138762801D01*
X65055439Y-138759155D01*
X65055617Y-138755331D01*
X65056023Y-138751328D01*
X65056659Y-138747145D01*
X65057525Y-138742782D01*
X65058622Y-138738237D01*
X65059951Y-138733510D01*
X65061512Y-138728600D01*
X65063306Y-138723506D01*
X65065335Y-138718228D01*
X65067598Y-138712765D01*
X65556550Y-137499914D01*
X67383236Y-137499914D01*
X67277403Y-137762381D01*
G37*
%TD.AperFunction*%
%TA.AperFunction,EtchedComponent*%
G36*
X67277403Y-137762381D02*
G01*
X66250818Y-137762381D01*
X66147101Y-138018498D01*
X67152519Y-138018498D01*
X67046686Y-138280965D01*
X66041267Y-138280965D01*
X65937551Y-138537082D01*
X66964136Y-138537082D01*
X66858302Y-138799549D01*
X65107816Y-138799549D01*
X65103159Y-138799468D01*
X65098713Y-138799225D01*
X65094481Y-138798820D01*
X65090461Y-138798251D01*
X65086655Y-138797517D01*
X65083064Y-138796619D01*
X65079688Y-138795554D01*
X65076529Y-138794323D01*
X65073586Y-138792925D01*
X65070862Y-138791358D01*
X65068356Y-138789622D01*
X65066069Y-138787717D01*
X65064003Y-138785641D01*
X65062157Y-138783394D01*
X65060534Y-138780974D01*
X65059132Y-138778382D01*
X65057954Y-138775616D01*
X65057000Y-138772676D01*
X65056271Y-138769560D01*
X65055767Y-138766269D01*
X65055490Y-138762801D01*
X65055439Y-138759155D01*
X65055617Y-138755331D01*
X65056023Y-138751328D01*
X65056659Y-138747145D01*
X65057525Y-138742782D01*
X65058622Y-138738237D01*
X65059951Y-138733510D01*
X65061512Y-138728600D01*
X65063306Y-138723506D01*
X65065335Y-138718228D01*
X65067598Y-138712765D01*
X65556550Y-137499914D01*
X67383236Y-137499914D01*
X67277403Y-137762381D01*
G37*
%TD.AperFunction*%
%TA.AperFunction,EtchedComponent*%
G36*
X83334464Y-137762381D02*
G01*
X82307880Y-137762381D01*
X82204162Y-138018498D01*
X83209581Y-138018498D01*
X83103747Y-138280965D01*
X82098329Y-138280965D01*
X81994611Y-138537082D01*
X83021196Y-138537082D01*
X82915362Y-138799549D01*
X81164876Y-138799549D01*
X81160219Y-138799468D01*
X81155774Y-138799225D01*
X81151541Y-138798820D01*
X81147521Y-138798251D01*
X81143715Y-138797517D01*
X81140124Y-138796619D01*
X81136748Y-138795554D01*
X81133588Y-138794323D01*
X81130646Y-138792925D01*
X81127921Y-138791358D01*
X81125415Y-138789622D01*
X81123128Y-138787717D01*
X81121062Y-138785641D01*
X81119216Y-138783394D01*
X81117592Y-138780974D01*
X81116191Y-138778382D01*
X81115012Y-138775616D01*
X81114058Y-138772676D01*
X81113329Y-138769560D01*
X81112825Y-138766269D01*
X81112547Y-138762801D01*
X81112497Y-138759155D01*
X81112675Y-138755331D01*
X81113081Y-138751328D01*
X81113716Y-138747145D01*
X81114582Y-138742782D01*
X81115679Y-138738237D01*
X81117008Y-138733510D01*
X81118569Y-138728600D01*
X81120364Y-138723506D01*
X81122392Y-138718228D01*
X81124656Y-138712765D01*
X81613607Y-137499913D01*
X83440293Y-137499913D01*
X83334464Y-137762381D01*
G37*
%TD.AperFunction*%
%TA.AperFunction,EtchedComponent*%
G36*
X83334464Y-137762381D02*
G01*
X82307880Y-137762381D01*
X82204162Y-138018498D01*
X83209581Y-138018498D01*
X83103747Y-138280965D01*
X82098329Y-138280965D01*
X81994611Y-138537082D01*
X83021196Y-138537082D01*
X82915362Y-138799549D01*
X81164876Y-138799549D01*
X81160219Y-138799468D01*
X81155774Y-138799225D01*
X81151541Y-138798820D01*
X81147521Y-138798251D01*
X81143715Y-138797517D01*
X81140124Y-138796619D01*
X81136748Y-138795554D01*
X81133588Y-138794323D01*
X81130646Y-138792925D01*
X81127921Y-138791358D01*
X81125415Y-138789622D01*
X81123128Y-138787717D01*
X81121062Y-138785641D01*
X81119216Y-138783394D01*
X81117592Y-138780974D01*
X81116191Y-138778382D01*
X81115012Y-138775616D01*
X81114058Y-138772676D01*
X81113329Y-138769560D01*
X81112825Y-138766269D01*
X81112547Y-138762801D01*
X81112497Y-138759155D01*
X81112675Y-138755331D01*
X81113081Y-138751328D01*
X81113716Y-138747145D01*
X81114582Y-138742782D01*
X81115679Y-138738237D01*
X81117008Y-138733510D01*
X81118569Y-138728600D01*
X81120364Y-138723506D01*
X81122392Y-138718228D01*
X81124656Y-138712765D01*
X81613607Y-137499913D01*
X83440293Y-137499913D01*
X83334464Y-137762381D01*
G37*
%TD.AperFunction*%
%TA.AperFunction,EtchedComponent*%
G36*
X63096818Y-137500037D02*
G01*
X63098732Y-137500409D01*
X63100602Y-137501030D01*
X63102432Y-137501898D01*
X63104224Y-137503014D01*
X63105983Y-137504378D01*
X63107710Y-137505991D01*
X63109409Y-137507851D01*
X63111084Y-137509959D01*
X63112737Y-137512316D01*
X63114372Y-137514920D01*
X63115991Y-137517773D01*
X63117597Y-137520873D01*
X63119195Y-137524222D01*
X63120787Y-137527819D01*
X63122375Y-137531663D01*
X63123468Y-137535657D01*
X63124365Y-137539700D01*
X63125070Y-137543793D01*
X63125585Y-137547935D01*
X63125915Y-137552127D01*
X63126062Y-137556369D01*
X63126029Y-137560660D01*
X63125819Y-137565001D01*
X63125435Y-137569391D01*
X63124881Y-137573831D01*
X63124159Y-137578321D01*
X63123273Y-137582860D01*
X63122225Y-137587449D01*
X63121019Y-137592088D01*
X63119658Y-137596776D01*
X63118145Y-137601513D01*
X62959395Y-137993097D01*
X62951457Y-138011850D01*
X62943520Y-138030007D01*
X62935583Y-138047569D01*
X62927645Y-138064535D01*
X62919708Y-138080906D01*
X62911770Y-138096682D01*
X62903833Y-138111862D01*
X62895895Y-138126448D01*
X62891455Y-138133938D01*
X62886870Y-138141326D01*
X62882142Y-138148609D01*
X62877275Y-138155783D01*
X62872271Y-138162846D01*
X62867134Y-138169794D01*
X62861866Y-138176624D01*
X62856472Y-138183333D01*
X62850953Y-138189918D01*
X62845314Y-138196376D01*
X62839556Y-138202704D01*
X62833684Y-138208899D01*
X62827701Y-138214957D01*
X62821609Y-138220875D01*
X62815411Y-138226651D01*
X62809111Y-138232281D01*
X62802662Y-138238160D01*
X62796014Y-138243894D01*
X62789168Y-138249485D01*
X62782124Y-138254936D01*
X62774881Y-138260251D01*
X62767439Y-138265433D01*
X62759799Y-138270484D01*
X62751961Y-138275408D01*
X62743924Y-138280209D01*
X62735689Y-138284888D01*
X62727256Y-138289449D01*
X62718624Y-138293896D01*
X62700764Y-138302458D01*
X62682111Y-138310598D01*
X62662561Y-138318238D01*
X62641994Y-138325282D01*
X62620385Y-138331731D01*
X62597709Y-138337585D01*
X62573942Y-138342843D01*
X62549059Y-138347506D01*
X62523034Y-138351575D01*
X62495844Y-138355048D01*
X61659760Y-138355048D01*
X61765593Y-138092581D01*
X62116961Y-138092581D01*
X62250311Y-137762381D01*
X61668226Y-137762381D01*
X61249126Y-138799549D01*
X60449024Y-138799549D01*
X60973959Y-137499913D01*
X63094858Y-137499913D01*
X63096818Y-137500037D01*
G37*
%TD.AperFunction*%
%TA.AperFunction,EtchedComponent*%
G36*
X63096818Y-137500037D02*
G01*
X63098732Y-137500409D01*
X63100602Y-137501030D01*
X63102432Y-137501898D01*
X63104224Y-137503014D01*
X63105983Y-137504378D01*
X63107710Y-137505991D01*
X63109409Y-137507851D01*
X63111084Y-137509959D01*
X63112737Y-137512316D01*
X63114372Y-137514920D01*
X63115991Y-137517773D01*
X63117597Y-137520873D01*
X63119195Y-137524222D01*
X63120787Y-137527819D01*
X63122375Y-137531663D01*
X63123468Y-137535657D01*
X63124365Y-137539700D01*
X63125070Y-137543793D01*
X63125585Y-137547935D01*
X63125915Y-137552127D01*
X63126062Y-137556369D01*
X63126029Y-137560660D01*
X63125819Y-137565001D01*
X63125435Y-137569391D01*
X63124881Y-137573831D01*
X63124159Y-137578321D01*
X63123273Y-137582860D01*
X63122225Y-137587449D01*
X63121019Y-137592088D01*
X63119658Y-137596776D01*
X63118145Y-137601513D01*
X62959395Y-137993097D01*
X62951457Y-138011850D01*
X62943520Y-138030007D01*
X62935583Y-138047569D01*
X62927645Y-138064535D01*
X62919708Y-138080906D01*
X62911770Y-138096682D01*
X62903833Y-138111862D01*
X62895895Y-138126448D01*
X62891455Y-138133938D01*
X62886870Y-138141326D01*
X62882142Y-138148609D01*
X62877275Y-138155783D01*
X62872271Y-138162846D01*
X62867134Y-138169794D01*
X62861866Y-138176624D01*
X62856472Y-138183333D01*
X62850953Y-138189918D01*
X62845314Y-138196376D01*
X62839556Y-138202704D01*
X62833684Y-138208899D01*
X62827701Y-138214957D01*
X62821609Y-138220875D01*
X62815411Y-138226651D01*
X62809111Y-138232281D01*
X62802662Y-138238160D01*
X62796014Y-138243894D01*
X62789168Y-138249485D01*
X62782124Y-138254936D01*
X62774881Y-138260251D01*
X62767439Y-138265433D01*
X62759799Y-138270484D01*
X62751961Y-138275408D01*
X62743924Y-138280209D01*
X62735689Y-138284888D01*
X62727256Y-138289449D01*
X62718624Y-138293896D01*
X62700764Y-138302458D01*
X62682111Y-138310598D01*
X62662561Y-138318238D01*
X62641994Y-138325282D01*
X62620385Y-138331731D01*
X62597709Y-138337585D01*
X62573942Y-138342843D01*
X62549059Y-138347506D01*
X62523034Y-138351575D01*
X62495844Y-138355048D01*
X61659760Y-138355048D01*
X61765593Y-138092581D01*
X62116961Y-138092581D01*
X62250311Y-137762381D01*
X61668226Y-137762381D01*
X61249126Y-138799549D01*
X60449024Y-138799549D01*
X60973959Y-137499913D01*
X63094858Y-137499913D01*
X63096818Y-137500037D01*
G37*
%TD.AperFunction*%
%TA.AperFunction,EtchedComponent*%
G36*
X72653745Y-137499914D02*
G01*
X72128812Y-138799549D01*
X71326594Y-138799549D01*
X71506511Y-138355048D01*
X71015443Y-138355048D01*
X70835526Y-138799549D01*
X70035424Y-138799549D01*
X70320469Y-138092581D01*
X71121276Y-138092581D01*
X71612343Y-138092581D01*
X71745693Y-137762381D01*
X71292726Y-137762381D01*
X71290345Y-137762454D01*
X71287971Y-137762670D01*
X71285610Y-137763022D01*
X71283267Y-137763505D01*
X71280948Y-137764112D01*
X71278661Y-137764836D01*
X71276411Y-137765672D01*
X71274204Y-137766614D01*
X71272047Y-137767655D01*
X71269946Y-137768789D01*
X71267906Y-137770009D01*
X71265935Y-137771310D01*
X71264038Y-137772686D01*
X71262222Y-137774130D01*
X71260492Y-137775636D01*
X71258856Y-137777198D01*
X71254991Y-137781166D01*
X71253141Y-137783151D01*
X71251350Y-137785135D01*
X71249620Y-137787119D01*
X71247956Y-137789104D01*
X71246360Y-137791088D01*
X71244835Y-137793073D01*
X71243384Y-137795057D01*
X71242011Y-137797041D01*
X71240719Y-137799026D01*
X71239510Y-137801010D01*
X71238388Y-137802995D01*
X71237357Y-137804979D01*
X71236418Y-137806963D01*
X71235576Y-137808948D01*
X71235576Y-137808947D01*
X71121276Y-138092581D01*
X70320469Y-138092581D01*
X70462992Y-137739097D01*
X70464659Y-137735079D01*
X70466474Y-137730961D01*
X70470546Y-137722428D01*
X70475210Y-137713499D01*
X70480466Y-137704172D01*
X70486316Y-137694449D01*
X70492761Y-137684328D01*
X70499802Y-137673811D01*
X70507442Y-137662897D01*
X70511063Y-137657762D01*
X70514784Y-137652673D01*
X70522522Y-137642623D01*
X70530658Y-137632722D01*
X70539190Y-137622945D01*
X70548120Y-137613267D01*
X70557446Y-137603663D01*
X70567170Y-137594109D01*
X70577292Y-137584580D01*
X70582104Y-137580264D01*
X70587015Y-137576043D01*
X70592025Y-137571916D01*
X70597135Y-137567879D01*
X70602344Y-137563928D01*
X70607652Y-137560061D01*
X70613059Y-137556275D01*
X70618565Y-137552566D01*
X70624171Y-137548931D01*
X70629876Y-137545368D01*
X70641584Y-137538444D01*
X70653689Y-137531767D01*
X70666191Y-137525313D01*
X70672169Y-137522237D01*
X70678193Y-137519360D01*
X70684260Y-137516681D01*
X70690368Y-137514201D01*
X70696513Y-137511919D01*
X70702692Y-137509835D01*
X70708902Y-137507950D01*
X70715140Y-137506263D01*
X70721403Y-137504775D01*
X70727687Y-137503485D01*
X70733990Y-137502394D01*
X70740308Y-137501501D01*
X70746638Y-137500806D01*
X70752977Y-137500310D01*
X70759323Y-137500012D01*
X70765671Y-137499913D01*
X72653745Y-137499914D01*
G37*
%TD.AperFunction*%
%TA.AperFunction,EtchedComponent*%
G36*
X72653745Y-137499914D02*
G01*
X72128812Y-138799549D01*
X71326594Y-138799549D01*
X71506511Y-138355048D01*
X71015443Y-138355048D01*
X70835526Y-138799549D01*
X70035424Y-138799549D01*
X70320469Y-138092581D01*
X71121276Y-138092581D01*
X71612343Y-138092581D01*
X71745693Y-137762381D01*
X71292726Y-137762381D01*
X71290345Y-137762454D01*
X71287971Y-137762670D01*
X71285610Y-137763022D01*
X71283267Y-137763505D01*
X71280948Y-137764112D01*
X71278661Y-137764836D01*
X71276411Y-137765672D01*
X71274204Y-137766614D01*
X71272047Y-137767655D01*
X71269946Y-137768789D01*
X71267906Y-137770009D01*
X71265935Y-137771310D01*
X71264038Y-137772686D01*
X71262222Y-137774130D01*
X71260492Y-137775636D01*
X71258856Y-137777198D01*
X71254991Y-137781166D01*
X71253141Y-137783151D01*
X71251350Y-137785135D01*
X71249620Y-137787119D01*
X71247956Y-137789104D01*
X71246360Y-137791088D01*
X71244835Y-137793073D01*
X71243384Y-137795057D01*
X71242011Y-137797041D01*
X71240719Y-137799026D01*
X71239510Y-137801010D01*
X71238388Y-137802995D01*
X71237357Y-137804979D01*
X71236418Y-137806963D01*
X71235576Y-137808948D01*
X71235576Y-137808947D01*
X71121276Y-138092581D01*
X70320469Y-138092581D01*
X70462992Y-137739097D01*
X70464659Y-137735079D01*
X70466474Y-137730961D01*
X70470546Y-137722428D01*
X70475210Y-137713499D01*
X70480466Y-137704172D01*
X70486316Y-137694449D01*
X70492761Y-137684328D01*
X70499802Y-137673811D01*
X70507442Y-137662897D01*
X70511063Y-137657762D01*
X70514784Y-137652673D01*
X70522522Y-137642623D01*
X70530658Y-137632722D01*
X70539190Y-137622945D01*
X70548120Y-137613267D01*
X70557446Y-137603663D01*
X70567170Y-137594109D01*
X70577292Y-137584580D01*
X70582104Y-137580264D01*
X70587015Y-137576043D01*
X70592025Y-137571916D01*
X70597135Y-137567879D01*
X70602344Y-137563928D01*
X70607652Y-137560061D01*
X70613059Y-137556275D01*
X70618565Y-137552566D01*
X70624171Y-137548931D01*
X70629876Y-137545368D01*
X70641584Y-137538444D01*
X70653689Y-137531767D01*
X70666191Y-137525313D01*
X70672169Y-137522237D01*
X70678193Y-137519360D01*
X70684260Y-137516681D01*
X70690368Y-137514201D01*
X70696513Y-137511919D01*
X70702692Y-137509835D01*
X70708902Y-137507950D01*
X70715140Y-137506263D01*
X70721403Y-137504775D01*
X70727687Y-137503485D01*
X70733990Y-137502394D01*
X70740308Y-137501501D01*
X70746638Y-137500806D01*
X70752977Y-137500310D01*
X70759323Y-137500012D01*
X70765671Y-137499913D01*
X72653745Y-137499914D01*
G37*
%TD.AperFunction*%
%TA.AperFunction,EtchedComponent*%
G36*
X79215421Y-137499914D02*
G01*
X78690486Y-138799549D01*
X77888269Y-138799549D01*
X78068185Y-138355048D01*
X77577117Y-138355048D01*
X77397201Y-138799549D01*
X76597100Y-138799549D01*
X76882145Y-138092581D01*
X77682952Y-138092581D01*
X78174020Y-138092581D01*
X78307370Y-137762381D01*
X77854404Y-137762381D01*
X77852024Y-137762454D01*
X77849650Y-137762670D01*
X77847288Y-137763022D01*
X77844945Y-137763505D01*
X77842627Y-137764112D01*
X77840339Y-137764836D01*
X77838089Y-137765672D01*
X77835883Y-137766614D01*
X77833725Y-137767655D01*
X77831624Y-137768789D01*
X77829584Y-137770009D01*
X77827613Y-137771310D01*
X77825716Y-137772686D01*
X77823899Y-137774130D01*
X77822170Y-137775636D01*
X77820533Y-137777198D01*
X77816668Y-137781166D01*
X77814818Y-137783151D01*
X77813027Y-137785135D01*
X77811297Y-137787119D01*
X77809633Y-137789104D01*
X77808036Y-137791088D01*
X77806511Y-137793073D01*
X77805061Y-137795057D01*
X77803688Y-137797041D01*
X77802396Y-137799026D01*
X77801187Y-137801010D01*
X77800066Y-137802995D01*
X77799034Y-137804979D01*
X77798096Y-137806963D01*
X77797254Y-137808948D01*
X77797252Y-137808947D01*
X77682952Y-138092581D01*
X76882145Y-138092581D01*
X77024667Y-137739097D01*
X77026334Y-137735079D01*
X77028149Y-137730961D01*
X77032221Y-137722428D01*
X77036884Y-137713499D01*
X77042140Y-137704172D01*
X77047990Y-137694449D01*
X77054436Y-137684328D01*
X77061478Y-137673811D01*
X77069118Y-137662897D01*
X77072739Y-137657762D01*
X77076460Y-137652673D01*
X77084199Y-137642623D01*
X77092334Y-137632722D01*
X77100867Y-137622945D01*
X77109796Y-137613267D01*
X77119123Y-137603663D01*
X77128847Y-137594109D01*
X77138969Y-137584580D01*
X77143781Y-137580264D01*
X77148692Y-137576043D01*
X77153702Y-137571916D01*
X77158812Y-137567879D01*
X77164021Y-137563928D01*
X77169329Y-137560061D01*
X77174736Y-137556275D01*
X77180243Y-137552566D01*
X77185848Y-137548931D01*
X77191553Y-137545368D01*
X77203261Y-137538444D01*
X77215366Y-137531767D01*
X77227868Y-137525313D01*
X77233846Y-137522237D01*
X77239870Y-137519360D01*
X77245937Y-137516681D01*
X77252045Y-137514201D01*
X77258190Y-137511919D01*
X77264369Y-137509835D01*
X77270579Y-137507950D01*
X77276817Y-137506263D01*
X77283080Y-137504775D01*
X77289364Y-137503485D01*
X77295667Y-137502394D01*
X77301985Y-137501501D01*
X77308315Y-137500806D01*
X77314654Y-137500310D01*
X77321000Y-137500012D01*
X77327348Y-137499913D01*
X79215421Y-137499914D01*
G37*
%TD.AperFunction*%
%TA.AperFunction,EtchedComponent*%
G36*
X79215421Y-137499914D02*
G01*
X78690486Y-138799549D01*
X77888269Y-138799549D01*
X78068185Y-138355048D01*
X77577117Y-138355048D01*
X77397201Y-138799549D01*
X76597100Y-138799549D01*
X76882145Y-138092581D01*
X77682952Y-138092581D01*
X78174020Y-138092581D01*
X78307370Y-137762381D01*
X77854404Y-137762381D01*
X77852024Y-137762454D01*
X77849650Y-137762670D01*
X77847288Y-137763022D01*
X77844945Y-137763505D01*
X77842627Y-137764112D01*
X77840339Y-137764836D01*
X77838089Y-137765672D01*
X77835883Y-137766614D01*
X77833725Y-137767655D01*
X77831624Y-137768789D01*
X77829584Y-137770009D01*
X77827613Y-137771310D01*
X77825716Y-137772686D01*
X77823899Y-137774130D01*
X77822170Y-137775636D01*
X77820533Y-137777198D01*
X77816668Y-137781166D01*
X77814818Y-137783151D01*
X77813027Y-137785135D01*
X77811297Y-137787119D01*
X77809633Y-137789104D01*
X77808036Y-137791088D01*
X77806511Y-137793073D01*
X77805061Y-137795057D01*
X77803688Y-137797041D01*
X77802396Y-137799026D01*
X77801187Y-137801010D01*
X77800066Y-137802995D01*
X77799034Y-137804979D01*
X77798096Y-137806963D01*
X77797254Y-137808948D01*
X77797252Y-137808947D01*
X77682952Y-138092581D01*
X76882145Y-138092581D01*
X77024667Y-137739097D01*
X77026334Y-137735079D01*
X77028149Y-137730961D01*
X77032221Y-137722428D01*
X77036884Y-137713499D01*
X77042140Y-137704172D01*
X77047990Y-137694449D01*
X77054436Y-137684328D01*
X77061478Y-137673811D01*
X77069118Y-137662897D01*
X77072739Y-137657762D01*
X77076460Y-137652673D01*
X77084199Y-137642623D01*
X77092334Y-137632722D01*
X77100867Y-137622945D01*
X77109796Y-137613267D01*
X77119123Y-137603663D01*
X77128847Y-137594109D01*
X77138969Y-137584580D01*
X77143781Y-137580264D01*
X77148692Y-137576043D01*
X77153702Y-137571916D01*
X77158812Y-137567879D01*
X77164021Y-137563928D01*
X77169329Y-137560061D01*
X77174736Y-137556275D01*
X77180243Y-137552566D01*
X77185848Y-137548931D01*
X77191553Y-137545368D01*
X77203261Y-137538444D01*
X77215366Y-137531767D01*
X77227868Y-137525313D01*
X77233846Y-137522237D01*
X77239870Y-137519360D01*
X77245937Y-137516681D01*
X77252045Y-137514201D01*
X77258190Y-137511919D01*
X77264369Y-137509835D01*
X77270579Y-137507950D01*
X77276817Y-137506263D01*
X77283080Y-137504775D01*
X77289364Y-137503485D01*
X77295667Y-137502394D01*
X77301985Y-137501501D01*
X77308315Y-137500806D01*
X77314654Y-137500310D01*
X77321000Y-137500012D01*
X77327348Y-137499913D01*
X79215421Y-137499914D01*
G37*
%TD.AperFunction*%
%TA.AperFunction,EtchedComponent*%
G36*
X69658466Y-137500037D02*
G01*
X69660379Y-137500409D01*
X69662249Y-137501029D01*
X69664077Y-137501897D01*
X69665868Y-137503014D01*
X69667625Y-137504378D01*
X69669351Y-137505990D01*
X69671049Y-137507850D01*
X69672722Y-137509959D01*
X69674374Y-137512315D01*
X69676009Y-137514920D01*
X69677628Y-137517772D01*
X69679236Y-137520873D01*
X69680836Y-137524222D01*
X69682431Y-137527818D01*
X69684025Y-137531663D01*
X69685123Y-137535657D01*
X69686025Y-137539700D01*
X69686735Y-137543793D01*
X69687256Y-137547935D01*
X69687590Y-137552127D01*
X69687741Y-137556369D01*
X69687712Y-137560660D01*
X69687505Y-137565001D01*
X69687124Y-137569391D01*
X69686571Y-137573831D01*
X69685851Y-137578321D01*
X69684964Y-137582860D01*
X69683916Y-137587449D01*
X69682708Y-137592087D01*
X69681343Y-137596775D01*
X69679825Y-137601513D01*
X69573991Y-137863980D01*
X69566048Y-137882042D01*
X69558080Y-137899732D01*
X69550063Y-137917075D01*
X69541972Y-137934095D01*
X69533782Y-137950818D01*
X69525468Y-137967267D01*
X69517006Y-137983469D01*
X69508370Y-137999447D01*
X69503559Y-138007311D01*
X69498647Y-138015028D01*
X69493637Y-138022604D01*
X69488528Y-138030040D01*
X69483319Y-138037339D01*
X69478011Y-138044505D01*
X69472604Y-138051541D01*
X69467097Y-138058449D01*
X69461491Y-138065234D01*
X69455786Y-138071897D01*
X69449982Y-138078443D01*
X69444078Y-138084874D01*
X69438076Y-138091194D01*
X69431973Y-138097405D01*
X69425772Y-138103510D01*
X69419471Y-138109514D01*
X69412648Y-138115766D01*
X69405674Y-138121825D01*
X69398545Y-138127699D01*
X69391258Y-138133392D01*
X69383810Y-138138913D01*
X69376198Y-138144265D01*
X69368418Y-138149457D01*
X69360467Y-138154493D01*
X69352344Y-138159381D01*
X69344043Y-138164126D01*
X69335563Y-138168734D01*
X69326899Y-138173213D01*
X69318050Y-138177567D01*
X69309011Y-138181803D01*
X69290354Y-138189948D01*
X69270717Y-138197579D01*
X69249939Y-138204567D01*
X69228070Y-138210859D01*
X69205160Y-138216408D01*
X69181256Y-138221162D01*
X69156411Y-138225073D01*
X69130671Y-138228090D01*
X69104088Y-138230165D01*
X69241685Y-138799548D01*
X68452167Y-138799548D01*
X68316700Y-138211114D01*
X68316676Y-138209899D01*
X68316610Y-138208637D01*
X68316372Y-138205988D01*
X68315650Y-138200267D01*
X68315265Y-138197245D01*
X68314928Y-138194149D01*
X68314690Y-138191002D01*
X68314624Y-138189418D01*
X68314600Y-138187831D01*
X68314600Y-138158198D01*
X68314600Y-138145498D01*
X68314624Y-138144679D01*
X68314694Y-138143811D01*
X68314808Y-138142894D01*
X68314961Y-138141926D01*
X68315375Y-138139843D01*
X68315913Y-138137561D01*
X68318800Y-138126448D01*
X68319596Y-138125282D01*
X68320396Y-138124169D01*
X68321202Y-138123112D01*
X68322019Y-138122114D01*
X68322847Y-138121178D01*
X68323691Y-138120307D01*
X68324554Y-138119505D01*
X68325438Y-138118774D01*
X68326346Y-138118117D01*
X68327280Y-138117538D01*
X68327759Y-138117278D01*
X68328245Y-138117039D01*
X68328740Y-138116821D01*
X68329243Y-138116625D01*
X68329755Y-138116450D01*
X68330276Y-138116297D01*
X68330807Y-138116166D01*
X68331348Y-138116059D01*
X68331900Y-138115974D01*
X68332462Y-138115914D01*
X68333035Y-138115877D01*
X68333620Y-138115865D01*
X68670170Y-138115865D01*
X68811987Y-137762381D01*
X68229903Y-137762381D01*
X67810803Y-138799549D01*
X67010701Y-138799549D01*
X67535635Y-137499914D01*
X69656505Y-137499913D01*
X69658466Y-137500037D01*
G37*
%TD.AperFunction*%
%TA.AperFunction,EtchedComponent*%
G36*
X69658466Y-137500037D02*
G01*
X69660379Y-137500409D01*
X69662249Y-137501029D01*
X69664077Y-137501897D01*
X69665868Y-137503014D01*
X69667625Y-137504378D01*
X69669351Y-137505990D01*
X69671049Y-137507850D01*
X69672722Y-137509959D01*
X69674374Y-137512315D01*
X69676009Y-137514920D01*
X69677628Y-137517772D01*
X69679236Y-137520873D01*
X69680836Y-137524222D01*
X69682431Y-137527818D01*
X69684025Y-137531663D01*
X69685123Y-137535657D01*
X69686025Y-137539700D01*
X69686735Y-137543793D01*
X69687256Y-137547935D01*
X69687590Y-137552127D01*
X69687741Y-137556369D01*
X69687712Y-137560660D01*
X69687505Y-137565001D01*
X69687124Y-137569391D01*
X69686571Y-137573831D01*
X69685851Y-137578321D01*
X69684964Y-137582860D01*
X69683916Y-137587449D01*
X69682708Y-137592087D01*
X69681343Y-137596775D01*
X69679825Y-137601513D01*
X69573991Y-137863980D01*
X69566048Y-137882042D01*
X69558080Y-137899732D01*
X69550063Y-137917075D01*
X69541972Y-137934095D01*
X69533782Y-137950818D01*
X69525468Y-137967267D01*
X69517006Y-137983469D01*
X69508370Y-137999447D01*
X69503559Y-138007311D01*
X69498647Y-138015028D01*
X69493637Y-138022604D01*
X69488528Y-138030040D01*
X69483319Y-138037339D01*
X69478011Y-138044505D01*
X69472604Y-138051541D01*
X69467097Y-138058449D01*
X69461491Y-138065234D01*
X69455786Y-138071897D01*
X69449982Y-138078443D01*
X69444078Y-138084874D01*
X69438076Y-138091194D01*
X69431973Y-138097405D01*
X69425772Y-138103510D01*
X69419471Y-138109514D01*
X69412648Y-138115766D01*
X69405674Y-138121825D01*
X69398545Y-138127699D01*
X69391258Y-138133392D01*
X69383810Y-138138913D01*
X69376198Y-138144265D01*
X69368418Y-138149457D01*
X69360467Y-138154493D01*
X69352344Y-138159381D01*
X69344043Y-138164126D01*
X69335563Y-138168734D01*
X69326899Y-138173213D01*
X69318050Y-138177567D01*
X69309011Y-138181803D01*
X69290354Y-138189948D01*
X69270717Y-138197579D01*
X69249939Y-138204567D01*
X69228070Y-138210859D01*
X69205160Y-138216408D01*
X69181256Y-138221162D01*
X69156411Y-138225073D01*
X69130671Y-138228090D01*
X69104088Y-138230165D01*
X69241685Y-138799548D01*
X68452167Y-138799548D01*
X68316700Y-138211114D01*
X68316676Y-138209899D01*
X68316610Y-138208637D01*
X68316372Y-138205988D01*
X68315650Y-138200267D01*
X68315265Y-138197245D01*
X68314928Y-138194149D01*
X68314690Y-138191002D01*
X68314624Y-138189418D01*
X68314600Y-138187831D01*
X68314600Y-138158198D01*
X68314600Y-138145498D01*
X68314624Y-138144679D01*
X68314694Y-138143811D01*
X68314808Y-138142894D01*
X68314961Y-138141926D01*
X68315375Y-138139843D01*
X68315913Y-138137561D01*
X68318800Y-138126448D01*
X68319596Y-138125282D01*
X68320396Y-138124169D01*
X68321202Y-138123112D01*
X68322019Y-138122114D01*
X68322847Y-138121178D01*
X68323691Y-138120307D01*
X68324554Y-138119505D01*
X68325438Y-138118774D01*
X68326346Y-138118117D01*
X68327280Y-138117538D01*
X68327759Y-138117278D01*
X68328245Y-138117039D01*
X68328740Y-138116821D01*
X68329243Y-138116625D01*
X68329755Y-138116450D01*
X68330276Y-138116297D01*
X68330807Y-138116166D01*
X68331348Y-138116059D01*
X68331900Y-138115974D01*
X68332462Y-138115914D01*
X68333035Y-138115877D01*
X68333620Y-138115865D01*
X68670170Y-138115865D01*
X68811987Y-137762381D01*
X68229903Y-137762381D01*
X67810803Y-138799549D01*
X67010701Y-138799549D01*
X67535635Y-137499914D01*
X69656505Y-137499913D01*
X69658466Y-137500037D01*
G37*
%TD.AperFunction*%
%TA.AperFunction,EtchedComponent*%
G36*
X74928977Y-137500037D02*
G01*
X74930891Y-137500409D01*
X74932760Y-137501029D01*
X74934589Y-137501897D01*
X74936380Y-137503014D01*
X74938136Y-137504378D01*
X74939862Y-137505990D01*
X74941560Y-137507850D01*
X74943233Y-137509959D01*
X74944886Y-137512315D01*
X74946520Y-137514920D01*
X74948139Y-137517772D01*
X74949747Y-137520873D01*
X74951347Y-137524222D01*
X74952942Y-137527818D01*
X74954536Y-137531663D01*
X74955633Y-137535657D01*
X74956535Y-137539700D01*
X74957245Y-137543793D01*
X74957766Y-137547935D01*
X74958100Y-137552127D01*
X74958251Y-137556369D01*
X74958222Y-137560660D01*
X74958015Y-137565001D01*
X74957634Y-137569391D01*
X74957082Y-137573831D01*
X74956361Y-137578321D01*
X74955475Y-137582860D01*
X74954426Y-137587449D01*
X74953218Y-137592087D01*
X74951853Y-137596775D01*
X74950336Y-137601513D01*
X74844503Y-137863980D01*
X74836560Y-137882042D01*
X74828592Y-137899732D01*
X74820575Y-137917075D01*
X74812483Y-137934095D01*
X74804293Y-137950818D01*
X74795979Y-137967267D01*
X74787517Y-137983469D01*
X74778882Y-137999447D01*
X74774070Y-138007311D01*
X74769159Y-138015028D01*
X74764148Y-138022604D01*
X74759039Y-138030040D01*
X74753830Y-138037339D01*
X74748522Y-138044505D01*
X74743115Y-138051541D01*
X74737609Y-138058449D01*
X74732003Y-138065234D01*
X74726298Y-138071897D01*
X74720494Y-138078443D01*
X74714590Y-138084874D01*
X74708587Y-138091194D01*
X74702485Y-138097405D01*
X74696284Y-138103510D01*
X74689983Y-138109514D01*
X74683160Y-138115766D01*
X74676186Y-138121825D01*
X74669057Y-138127699D01*
X74661770Y-138133392D01*
X74654322Y-138138913D01*
X74646710Y-138144265D01*
X74638930Y-138149457D01*
X74630980Y-138154493D01*
X74622856Y-138159381D01*
X74614555Y-138164126D01*
X74606075Y-138168734D01*
X74597412Y-138173213D01*
X74588562Y-138177567D01*
X74579524Y-138181803D01*
X74560866Y-138189948D01*
X74541229Y-138197579D01*
X74520451Y-138204567D01*
X74498582Y-138210859D01*
X74475671Y-138216408D01*
X74451768Y-138221162D01*
X74426921Y-138225073D01*
X74401182Y-138228090D01*
X74374599Y-138230165D01*
X74512195Y-138799548D01*
X73722676Y-138799548D01*
X73587209Y-138211114D01*
X73587185Y-138209899D01*
X73587119Y-138208637D01*
X73586881Y-138205988D01*
X73586159Y-138200267D01*
X73585773Y-138197245D01*
X73585437Y-138194149D01*
X73585199Y-138191002D01*
X73585132Y-138189418D01*
X73585109Y-138187831D01*
X73585109Y-138158198D01*
X73585109Y-138145498D01*
X73585133Y-138144679D01*
X73585203Y-138143811D01*
X73585316Y-138142894D01*
X73585470Y-138141926D01*
X73585884Y-138139843D01*
X73586421Y-138137561D01*
X73589309Y-138126448D01*
X73590104Y-138125282D01*
X73590901Y-138124169D01*
X73591703Y-138123112D01*
X73592513Y-138122114D01*
X73593336Y-138121178D01*
X73594174Y-138120307D01*
X73595031Y-138119505D01*
X73595909Y-138118774D01*
X73596813Y-138118117D01*
X73597746Y-138117538D01*
X73598224Y-138117278D01*
X73598710Y-138117039D01*
X73599205Y-138116821D01*
X73599710Y-138116625D01*
X73600224Y-138116450D01*
X73600748Y-138116297D01*
X73601283Y-138116166D01*
X73601829Y-138116059D01*
X73602386Y-138115974D01*
X73602955Y-138115914D01*
X73603535Y-138115877D01*
X73604129Y-138115865D01*
X73940681Y-138115865D01*
X74082498Y-137762381D01*
X73500413Y-137762381D01*
X73081313Y-138799549D01*
X72281213Y-138799549D01*
X72806148Y-137499914D01*
X74927016Y-137499913D01*
X74928977Y-137500037D01*
G37*
%TD.AperFunction*%
%TA.AperFunction,EtchedComponent*%
G36*
X74928977Y-137500037D02*
G01*
X74930891Y-137500409D01*
X74932760Y-137501029D01*
X74934589Y-137501897D01*
X74936380Y-137503014D01*
X74938136Y-137504378D01*
X74939862Y-137505990D01*
X74941560Y-137507850D01*
X74943233Y-137509959D01*
X74944886Y-137512315D01*
X74946520Y-137514920D01*
X74948139Y-137517772D01*
X74949747Y-137520873D01*
X74951347Y-137524222D01*
X74952942Y-137527818D01*
X74954536Y-137531663D01*
X74955633Y-137535657D01*
X74956535Y-137539700D01*
X74957245Y-137543793D01*
X74957766Y-137547935D01*
X74958100Y-137552127D01*
X74958251Y-137556369D01*
X74958222Y-137560660D01*
X74958015Y-137565001D01*
X74957634Y-137569391D01*
X74957082Y-137573831D01*
X74956361Y-137578321D01*
X74955475Y-137582860D01*
X74954426Y-137587449D01*
X74953218Y-137592087D01*
X74951853Y-137596775D01*
X74950336Y-137601513D01*
X74844503Y-137863980D01*
X74836560Y-137882042D01*
X74828592Y-137899732D01*
X74820575Y-137917075D01*
X74812483Y-137934095D01*
X74804293Y-137950818D01*
X74795979Y-137967267D01*
X74787517Y-137983469D01*
X74778882Y-137999447D01*
X74774070Y-138007311D01*
X74769159Y-138015028D01*
X74764148Y-138022604D01*
X74759039Y-138030040D01*
X74753830Y-138037339D01*
X74748522Y-138044505D01*
X74743115Y-138051541D01*
X74737609Y-138058449D01*
X74732003Y-138065234D01*
X74726298Y-138071897D01*
X74720494Y-138078443D01*
X74714590Y-138084874D01*
X74708587Y-138091194D01*
X74702485Y-138097405D01*
X74696284Y-138103510D01*
X74689983Y-138109514D01*
X74683160Y-138115766D01*
X74676186Y-138121825D01*
X74669057Y-138127699D01*
X74661770Y-138133392D01*
X74654322Y-138138913D01*
X74646710Y-138144265D01*
X74638930Y-138149457D01*
X74630980Y-138154493D01*
X74622856Y-138159381D01*
X74614555Y-138164126D01*
X74606075Y-138168734D01*
X74597412Y-138173213D01*
X74588562Y-138177567D01*
X74579524Y-138181803D01*
X74560866Y-138189948D01*
X74541229Y-138197579D01*
X74520451Y-138204567D01*
X74498582Y-138210859D01*
X74475671Y-138216408D01*
X74451768Y-138221162D01*
X74426921Y-138225073D01*
X74401182Y-138228090D01*
X74374599Y-138230165D01*
X74512195Y-138799548D01*
X73722676Y-138799548D01*
X73587209Y-138211114D01*
X73587185Y-138209899D01*
X73587119Y-138208637D01*
X73586881Y-138205988D01*
X73586159Y-138200267D01*
X73585773Y-138197245D01*
X73585437Y-138194149D01*
X73585199Y-138191002D01*
X73585132Y-138189418D01*
X73585109Y-138187831D01*
X73585109Y-138158198D01*
X73585109Y-138145498D01*
X73585133Y-138144679D01*
X73585203Y-138143811D01*
X73585316Y-138142894D01*
X73585470Y-138141926D01*
X73585884Y-138139843D01*
X73586421Y-138137561D01*
X73589309Y-138126448D01*
X73590104Y-138125282D01*
X73590901Y-138124169D01*
X73591703Y-138123112D01*
X73592513Y-138122114D01*
X73593336Y-138121178D01*
X73594174Y-138120307D01*
X73595031Y-138119505D01*
X73595909Y-138118774D01*
X73596813Y-138118117D01*
X73597746Y-138117538D01*
X73598224Y-138117278D01*
X73598710Y-138117039D01*
X73599205Y-138116821D01*
X73599710Y-138116625D01*
X73600224Y-138116450D01*
X73600748Y-138116297D01*
X73601283Y-138116166D01*
X73601829Y-138116059D01*
X73602386Y-138115974D01*
X73602955Y-138115914D01*
X73603535Y-138115877D01*
X73604129Y-138115865D01*
X73940681Y-138115865D01*
X74082498Y-137762381D01*
X73500413Y-137762381D01*
X73081313Y-138799549D01*
X72281213Y-138799549D01*
X72806148Y-137499914D01*
X74927016Y-137499913D01*
X74928977Y-137500037D01*
G37*
%TD.AperFunction*%
%TA.AperFunction,EtchedComponent*%
G36*
X76893866Y-137500000D02*
G01*
X76898330Y-137500260D01*
X76902594Y-137500693D01*
X76906657Y-137501299D01*
X76910519Y-137502076D01*
X76914178Y-137503025D01*
X76917634Y-137504146D01*
X76920887Y-137505437D01*
X76923934Y-137506899D01*
X76926777Y-137508531D01*
X76929413Y-137510332D01*
X76931842Y-137512304D01*
X76934063Y-137514444D01*
X76936076Y-137516752D01*
X76937880Y-137519229D01*
X76939473Y-137521874D01*
X76940856Y-137524686D01*
X76942027Y-137527665D01*
X76942986Y-137530811D01*
X76943732Y-137534123D01*
X76944263Y-137537601D01*
X76944580Y-137541245D01*
X76944682Y-137545054D01*
X76944567Y-137549027D01*
X76944236Y-137553165D01*
X76943686Y-137557466D01*
X76942918Y-137561931D01*
X76941931Y-137566560D01*
X76940723Y-137571351D01*
X76939295Y-137576304D01*
X76937645Y-137581420D01*
X76935773Y-137586697D01*
X76813006Y-137887264D01*
X76180122Y-137887264D01*
X76230922Y-137762381D01*
X75837222Y-137762381D01*
X75543006Y-138490515D01*
X75542244Y-138492499D01*
X75541534Y-138494484D01*
X75540879Y-138496468D01*
X75540283Y-138498453D01*
X75539748Y-138500437D01*
X75539278Y-138502421D01*
X75538875Y-138504406D01*
X75538544Y-138506390D01*
X75538286Y-138508375D01*
X75538105Y-138510359D01*
X75538004Y-138512343D01*
X75537986Y-138514328D01*
X75538054Y-138516312D01*
X75538211Y-138518297D01*
X75538461Y-138520281D01*
X75538806Y-138522265D01*
X75539022Y-138523239D01*
X75539274Y-138524176D01*
X75539563Y-138525076D01*
X75539888Y-138525940D01*
X75540249Y-138526769D01*
X75540646Y-138527562D01*
X75541077Y-138528321D01*
X75541544Y-138529045D01*
X75542044Y-138529735D01*
X75542578Y-138530391D01*
X75543146Y-138531014D01*
X75543746Y-138531604D01*
X75544379Y-138532162D01*
X75545045Y-138532687D01*
X75545742Y-138533180D01*
X75546471Y-138533642D01*
X75547231Y-138534073D01*
X75548021Y-138534474D01*
X75548842Y-138534844D01*
X75549693Y-138535184D01*
X75550573Y-138535495D01*
X75551482Y-138535777D01*
X75552420Y-138536030D01*
X75553386Y-138536255D01*
X75554380Y-138536452D01*
X75555401Y-138536622D01*
X75556450Y-138536764D01*
X75557525Y-138536880D01*
X75559754Y-138537032D01*
X75562085Y-138537082D01*
X76550571Y-138537082D01*
X76444738Y-138799549D01*
X74823369Y-138799549D01*
X74817093Y-138799474D01*
X74810970Y-138799243D01*
X74805002Y-138798852D01*
X74799192Y-138798293D01*
X74793543Y-138797560D01*
X74788059Y-138796647D01*
X74782742Y-138795549D01*
X74777596Y-138794258D01*
X74772624Y-138792768D01*
X74767829Y-138791074D01*
X74763213Y-138789170D01*
X74758780Y-138787048D01*
X74754533Y-138784703D01*
X74750476Y-138782128D01*
X74746610Y-138779318D01*
X74742940Y-138776266D01*
X74739442Y-138773066D01*
X74736090Y-138769809D01*
X74732880Y-138766490D01*
X74729810Y-138763104D01*
X74726876Y-138759642D01*
X74724076Y-138756100D01*
X74721406Y-138752472D01*
X74718862Y-138748750D01*
X74716443Y-138744929D01*
X74714145Y-138741003D01*
X74711965Y-138736965D01*
X74709899Y-138732809D01*
X74707944Y-138728529D01*
X74706099Y-138724119D01*
X74704358Y-138719572D01*
X74702720Y-138714883D01*
X74701201Y-138710493D01*
X74699833Y-138706053D01*
X74698615Y-138701563D01*
X74697546Y-138697024D01*
X74696627Y-138692435D01*
X74695858Y-138687797D01*
X74695237Y-138683109D01*
X74694765Y-138678371D01*
X74694442Y-138673584D01*
X74694267Y-138668747D01*
X74694240Y-138663860D01*
X74694361Y-138658924D01*
X74694630Y-138653938D01*
X74695047Y-138648903D01*
X74695610Y-138643818D01*
X74696321Y-138638683D01*
X74697309Y-138628460D01*
X74698699Y-138618409D01*
X74700489Y-138608508D01*
X74702677Y-138598731D01*
X74705260Y-138589053D01*
X74708238Y-138579449D01*
X74711609Y-138569896D01*
X74715371Y-138560366D01*
X75109071Y-137586698D01*
X75113214Y-137576306D01*
X75117708Y-137566561D01*
X75122555Y-137557467D01*
X75127758Y-137549028D01*
X75133321Y-137541246D01*
X75136239Y-137537603D01*
X75139247Y-137534125D01*
X75142347Y-137530813D01*
X75145539Y-137527667D01*
X75148823Y-137524687D01*
X75152199Y-137521875D01*
X75155669Y-137519231D01*
X75159232Y-137516754D01*
X75162888Y-137514445D01*
X75166639Y-137512305D01*
X75170485Y-137510334D01*
X75174425Y-137508532D01*
X75178461Y-137506900D01*
X75182593Y-137505438D01*
X75186820Y-137504147D01*
X75191144Y-137503026D01*
X75195566Y-137502077D01*
X75200084Y-137501300D01*
X75204700Y-137500694D01*
X75209414Y-137500262D01*
X75214227Y-137500002D01*
X75219138Y-137499915D01*
X75219150Y-137499914D01*
X76889203Y-137499914D01*
X76893866Y-137500000D01*
G37*
%TD.AperFunction*%
%TA.AperFunction,EtchedComponent*%
G36*
X76893866Y-137500000D02*
G01*
X76898330Y-137500260D01*
X76902594Y-137500693D01*
X76906657Y-137501299D01*
X76910519Y-137502076D01*
X76914178Y-137503025D01*
X76917634Y-137504146D01*
X76920887Y-137505437D01*
X76923934Y-137506899D01*
X76926777Y-137508531D01*
X76929413Y-137510332D01*
X76931842Y-137512304D01*
X76934063Y-137514444D01*
X76936076Y-137516752D01*
X76937880Y-137519229D01*
X76939473Y-137521874D01*
X76940856Y-137524686D01*
X76942027Y-137527665D01*
X76942986Y-137530811D01*
X76943732Y-137534123D01*
X76944263Y-137537601D01*
X76944580Y-137541245D01*
X76944682Y-137545054D01*
X76944567Y-137549027D01*
X76944236Y-137553165D01*
X76943686Y-137557466D01*
X76942918Y-137561931D01*
X76941931Y-137566560D01*
X76940723Y-137571351D01*
X76939295Y-137576304D01*
X76937645Y-137581420D01*
X76935773Y-137586697D01*
X76813006Y-137887264D01*
X76180122Y-137887264D01*
X76230922Y-137762381D01*
X75837222Y-137762381D01*
X75543006Y-138490515D01*
X75542244Y-138492499D01*
X75541534Y-138494484D01*
X75540879Y-138496468D01*
X75540283Y-138498453D01*
X75539748Y-138500437D01*
X75539278Y-138502421D01*
X75538875Y-138504406D01*
X75538544Y-138506390D01*
X75538286Y-138508375D01*
X75538105Y-138510359D01*
X75538004Y-138512343D01*
X75537986Y-138514328D01*
X75538054Y-138516312D01*
X75538211Y-138518297D01*
X75538461Y-138520281D01*
X75538806Y-138522265D01*
X75539022Y-138523239D01*
X75539274Y-138524176D01*
X75539563Y-138525076D01*
X75539888Y-138525940D01*
X75540249Y-138526769D01*
X75540646Y-138527562D01*
X75541077Y-138528321D01*
X75541544Y-138529045D01*
X75542044Y-138529735D01*
X75542578Y-138530391D01*
X75543146Y-138531014D01*
X75543746Y-138531604D01*
X75544379Y-138532162D01*
X75545045Y-138532687D01*
X75545742Y-138533180D01*
X75546471Y-138533642D01*
X75547231Y-138534073D01*
X75548021Y-138534474D01*
X75548842Y-138534844D01*
X75549693Y-138535184D01*
X75550573Y-138535495D01*
X75551482Y-138535777D01*
X75552420Y-138536030D01*
X75553386Y-138536255D01*
X75554380Y-138536452D01*
X75555401Y-138536622D01*
X75556450Y-138536764D01*
X75557525Y-138536880D01*
X75559754Y-138537032D01*
X75562085Y-138537082D01*
X76550571Y-138537082D01*
X76444738Y-138799549D01*
X74823369Y-138799549D01*
X74817093Y-138799474D01*
X74810970Y-138799243D01*
X74805002Y-138798852D01*
X74799192Y-138798293D01*
X74793543Y-138797560D01*
X74788059Y-138796647D01*
X74782742Y-138795549D01*
X74777596Y-138794258D01*
X74772624Y-138792768D01*
X74767829Y-138791074D01*
X74763213Y-138789170D01*
X74758780Y-138787048D01*
X74754533Y-138784703D01*
X74750476Y-138782128D01*
X74746610Y-138779318D01*
X74742940Y-138776266D01*
X74739442Y-138773066D01*
X74736090Y-138769809D01*
X74732880Y-138766490D01*
X74729810Y-138763104D01*
X74726876Y-138759642D01*
X74724076Y-138756100D01*
X74721406Y-138752472D01*
X74718862Y-138748750D01*
X74716443Y-138744929D01*
X74714145Y-138741003D01*
X74711965Y-138736965D01*
X74709899Y-138732809D01*
X74707944Y-138728529D01*
X74706099Y-138724119D01*
X74704358Y-138719572D01*
X74702720Y-138714883D01*
X74701201Y-138710493D01*
X74699833Y-138706053D01*
X74698615Y-138701563D01*
X74697546Y-138697024D01*
X74696627Y-138692435D01*
X74695858Y-138687797D01*
X74695237Y-138683109D01*
X74694765Y-138678371D01*
X74694442Y-138673584D01*
X74694267Y-138668747D01*
X74694240Y-138663860D01*
X74694361Y-138658924D01*
X74694630Y-138653938D01*
X74695047Y-138648903D01*
X74695610Y-138643818D01*
X74696321Y-138638683D01*
X74697309Y-138628460D01*
X74698699Y-138618409D01*
X74700489Y-138608508D01*
X74702677Y-138598731D01*
X74705260Y-138589053D01*
X74708238Y-138579449D01*
X74711609Y-138569896D01*
X74715371Y-138560366D01*
X75109071Y-137586698D01*
X75113214Y-137576306D01*
X75117708Y-137566561D01*
X75122555Y-137557467D01*
X75127758Y-137549028D01*
X75133321Y-137541246D01*
X75136239Y-137537603D01*
X75139247Y-137534125D01*
X75142347Y-137530813D01*
X75145539Y-137527667D01*
X75148823Y-137524687D01*
X75152199Y-137521875D01*
X75155669Y-137519231D01*
X75159232Y-137516754D01*
X75162888Y-137514445D01*
X75166639Y-137512305D01*
X75170485Y-137510334D01*
X75174425Y-137508532D01*
X75178461Y-137506900D01*
X75182593Y-137505438D01*
X75186820Y-137504147D01*
X75191144Y-137503026D01*
X75195566Y-137502077D01*
X75200084Y-137501300D01*
X75204700Y-137500694D01*
X75209414Y-137500262D01*
X75214227Y-137500002D01*
X75219138Y-137499915D01*
X75219150Y-137499914D01*
X76889203Y-137499914D01*
X76893866Y-137500000D01*
G37*
%TD.AperFunction*%
%TA.AperFunction,EtchedComponent*%
G36*
X81261772Y-137500013D02*
G01*
X81267501Y-137500311D01*
X81273082Y-137500807D01*
X81278515Y-137501501D01*
X81283798Y-137502394D01*
X81288933Y-137503486D01*
X81293918Y-137504775D01*
X81298755Y-137506264D01*
X81303443Y-137507951D01*
X81307983Y-137509836D01*
X81312373Y-137511919D01*
X81316615Y-137514201D01*
X81320708Y-137516682D01*
X81324652Y-137519361D01*
X81328447Y-137522238D01*
X81332093Y-137525314D01*
X81335591Y-137528514D01*
X81338944Y-137531767D01*
X81342153Y-137535076D01*
X81345224Y-137538443D01*
X81348157Y-137541873D01*
X81350958Y-137545368D01*
X81353628Y-137548931D01*
X81356171Y-137552565D01*
X81358590Y-137556274D01*
X81360888Y-137560061D01*
X81363069Y-137563928D01*
X81365135Y-137567878D01*
X81367089Y-137571916D01*
X81368935Y-137576043D01*
X81370675Y-137580264D01*
X81372314Y-137584581D01*
X81373833Y-137589344D01*
X81375204Y-137594110D01*
X81376432Y-137598882D01*
X81377520Y-137603664D01*
X81378470Y-137608458D01*
X81379286Y-137613267D01*
X81379972Y-137618095D01*
X81380531Y-137622945D01*
X81380965Y-137627820D01*
X81381279Y-137632723D01*
X81381475Y-137637656D01*
X81381558Y-137642624D01*
X81381529Y-137647629D01*
X81381394Y-137652674D01*
X81380813Y-137662898D01*
X81379828Y-137673812D01*
X81378467Y-137684329D01*
X81376756Y-137694449D01*
X81374722Y-137704172D01*
X81372391Y-137713499D01*
X81369790Y-137722429D01*
X81366945Y-137730962D01*
X81363883Y-137739098D01*
X81031526Y-138562482D01*
X81027355Y-138572011D01*
X81022763Y-138581565D01*
X81017723Y-138591169D01*
X81012212Y-138600847D01*
X81006204Y-138610624D01*
X80999676Y-138620525D01*
X80992601Y-138630575D01*
X80984956Y-138640799D01*
X80976914Y-138651019D01*
X80968649Y-138661040D01*
X80960137Y-138670862D01*
X80951352Y-138680487D01*
X80942269Y-138689912D01*
X80932864Y-138699140D01*
X80923111Y-138708168D01*
X80912986Y-138716999D01*
X80902567Y-138725536D01*
X80891950Y-138733700D01*
X80881136Y-138741518D01*
X80870123Y-138749013D01*
X80858911Y-138756211D01*
X80847501Y-138763135D01*
X80835893Y-138769812D01*
X80824086Y-138776266D01*
X80818133Y-138779318D01*
X80812180Y-138782128D01*
X80806227Y-138784702D01*
X80800274Y-138787047D01*
X80794321Y-138789169D01*
X80788368Y-138791074D01*
X80782415Y-138792768D01*
X80776462Y-138794257D01*
X80770509Y-138795548D01*
X80764556Y-138796647D01*
X80758602Y-138797559D01*
X80752649Y-138798292D01*
X80746696Y-138798851D01*
X80740743Y-138799243D01*
X80734790Y-138799473D01*
X80728837Y-138799549D01*
X78842889Y-138799549D01*
X78948902Y-138537082D01*
X79748822Y-138537082D01*
X80201791Y-138537082D01*
X80204148Y-138537032D01*
X80206458Y-138536879D01*
X80208725Y-138536622D01*
X80210951Y-138536255D01*
X80213141Y-138535778D01*
X80215296Y-138535185D01*
X80217420Y-138534475D01*
X80219517Y-138533643D01*
X80221588Y-138532688D01*
X80223639Y-138531605D01*
X80225670Y-138530393D01*
X80227687Y-138529046D01*
X80229691Y-138527563D01*
X80231686Y-138525941D01*
X80233675Y-138524176D01*
X80235662Y-138522265D01*
X80237620Y-138520652D01*
X80239526Y-138518990D01*
X80241376Y-138517278D01*
X80243168Y-138515516D01*
X80244897Y-138513706D01*
X80246562Y-138511845D01*
X80248158Y-138509935D01*
X80249683Y-138507976D01*
X80251134Y-138505967D01*
X80252506Y-138503908D01*
X80253799Y-138501800D01*
X80255007Y-138499642D01*
X80256129Y-138497435D01*
X80257160Y-138495178D01*
X80258099Y-138492871D01*
X80258941Y-138490515D01*
X80534108Y-137808947D01*
X80534872Y-137806963D01*
X80535585Y-137804978D01*
X80536244Y-137802994D01*
X80536846Y-137801010D01*
X80537386Y-137799025D01*
X80537863Y-137797041D01*
X80538271Y-137795056D01*
X80538608Y-137793072D01*
X80538870Y-137791088D01*
X80539053Y-137789103D01*
X80539155Y-137787119D01*
X80539170Y-137785135D01*
X80539097Y-137783150D01*
X80538931Y-137781166D01*
X80538670Y-137779181D01*
X80538308Y-137777197D01*
X80537494Y-137775635D01*
X80536623Y-137774129D01*
X80535689Y-137772685D01*
X80534685Y-137771309D01*
X80533606Y-137770007D01*
X80533036Y-137769387D01*
X80532445Y-137768787D01*
X80531833Y-137768209D01*
X80531197Y-137767653D01*
X80530539Y-137767121D01*
X80529856Y-137766612D01*
X80529148Y-137766129D01*
X80528415Y-137765671D01*
X80527655Y-137765239D01*
X80526868Y-137764835D01*
X80526053Y-137764459D01*
X80525209Y-137764111D01*
X80524336Y-137763792D01*
X80523433Y-137763504D01*
X80522499Y-137763247D01*
X80521533Y-137763022D01*
X80520535Y-137762829D01*
X80519503Y-137762669D01*
X80518437Y-137762544D01*
X80517337Y-137762453D01*
X80516201Y-137762399D01*
X80515029Y-137762380D01*
X80062060Y-137762380D01*
X79748822Y-138537082D01*
X78948902Y-138537082D01*
X79367824Y-137499914D01*
X81255893Y-137499914D01*
X81261772Y-137500013D01*
G37*
%TD.AperFunction*%
%TA.AperFunction,EtchedComponent*%
G36*
X81261772Y-137500013D02*
G01*
X81267501Y-137500311D01*
X81273082Y-137500807D01*
X81278515Y-137501501D01*
X81283798Y-137502394D01*
X81288933Y-137503486D01*
X81293918Y-137504775D01*
X81298755Y-137506264D01*
X81303443Y-137507951D01*
X81307983Y-137509836D01*
X81312373Y-137511919D01*
X81316615Y-137514201D01*
X81320708Y-137516682D01*
X81324652Y-137519361D01*
X81328447Y-137522238D01*
X81332093Y-137525314D01*
X81335591Y-137528514D01*
X81338944Y-137531767D01*
X81342153Y-137535076D01*
X81345224Y-137538443D01*
X81348157Y-137541873D01*
X81350958Y-137545368D01*
X81353628Y-137548931D01*
X81356171Y-137552565D01*
X81358590Y-137556274D01*
X81360888Y-137560061D01*
X81363069Y-137563928D01*
X81365135Y-137567878D01*
X81367089Y-137571916D01*
X81368935Y-137576043D01*
X81370675Y-137580264D01*
X81372314Y-137584581D01*
X81373833Y-137589344D01*
X81375204Y-137594110D01*
X81376432Y-137598882D01*
X81377520Y-137603664D01*
X81378470Y-137608458D01*
X81379286Y-137613267D01*
X81379972Y-137618095D01*
X81380531Y-137622945D01*
X81380965Y-137627820D01*
X81381279Y-137632723D01*
X81381475Y-137637656D01*
X81381558Y-137642624D01*
X81381529Y-137647629D01*
X81381394Y-137652674D01*
X81380813Y-137662898D01*
X81379828Y-137673812D01*
X81378467Y-137684329D01*
X81376756Y-137694449D01*
X81374722Y-137704172D01*
X81372391Y-137713499D01*
X81369790Y-137722429D01*
X81366945Y-137730962D01*
X81363883Y-137739098D01*
X81031526Y-138562482D01*
X81027355Y-138572011D01*
X81022763Y-138581565D01*
X81017723Y-138591169D01*
X81012212Y-138600847D01*
X81006204Y-138610624D01*
X80999676Y-138620525D01*
X80992601Y-138630575D01*
X80984956Y-138640799D01*
X80976914Y-138651019D01*
X80968649Y-138661040D01*
X80960137Y-138670862D01*
X80951352Y-138680487D01*
X80942269Y-138689912D01*
X80932864Y-138699140D01*
X80923111Y-138708168D01*
X80912986Y-138716999D01*
X80902567Y-138725536D01*
X80891950Y-138733700D01*
X80881136Y-138741518D01*
X80870123Y-138749013D01*
X80858911Y-138756211D01*
X80847501Y-138763135D01*
X80835893Y-138769812D01*
X80824086Y-138776266D01*
X80818133Y-138779318D01*
X80812180Y-138782128D01*
X80806227Y-138784702D01*
X80800274Y-138787047D01*
X80794321Y-138789169D01*
X80788368Y-138791074D01*
X80782415Y-138792768D01*
X80776462Y-138794257D01*
X80770509Y-138795548D01*
X80764556Y-138796647D01*
X80758602Y-138797559D01*
X80752649Y-138798292D01*
X80746696Y-138798851D01*
X80740743Y-138799243D01*
X80734790Y-138799473D01*
X80728837Y-138799549D01*
X78842889Y-138799549D01*
X78948902Y-138537082D01*
X79748822Y-138537082D01*
X80201791Y-138537082D01*
X80204148Y-138537032D01*
X80206458Y-138536879D01*
X80208725Y-138536622D01*
X80210951Y-138536255D01*
X80213141Y-138535778D01*
X80215296Y-138535185D01*
X80217420Y-138534475D01*
X80219517Y-138533643D01*
X80221588Y-138532688D01*
X80223639Y-138531605D01*
X80225670Y-138530393D01*
X80227687Y-138529046D01*
X80229691Y-138527563D01*
X80231686Y-138525941D01*
X80233675Y-138524176D01*
X80235662Y-138522265D01*
X80237620Y-138520652D01*
X80239526Y-138518990D01*
X80241376Y-138517278D01*
X80243168Y-138515516D01*
X80244897Y-138513706D01*
X80246562Y-138511845D01*
X80248158Y-138509935D01*
X80249683Y-138507976D01*
X80251134Y-138505967D01*
X80252506Y-138503908D01*
X80253799Y-138501800D01*
X80255007Y-138499642D01*
X80256129Y-138497435D01*
X80257160Y-138495178D01*
X80258099Y-138492871D01*
X80258941Y-138490515D01*
X80534108Y-137808947D01*
X80534872Y-137806963D01*
X80535585Y-137804978D01*
X80536244Y-137802994D01*
X80536846Y-137801010D01*
X80537386Y-137799025D01*
X80537863Y-137797041D01*
X80538271Y-137795056D01*
X80538608Y-137793072D01*
X80538870Y-137791088D01*
X80539053Y-137789103D01*
X80539155Y-137787119D01*
X80539170Y-137785135D01*
X80539097Y-137783150D01*
X80538931Y-137781166D01*
X80538670Y-137779181D01*
X80538308Y-137777197D01*
X80537494Y-137775635D01*
X80536623Y-137774129D01*
X80535689Y-137772685D01*
X80534685Y-137771309D01*
X80533606Y-137770007D01*
X80533036Y-137769387D01*
X80532445Y-137768787D01*
X80531833Y-137768209D01*
X80531197Y-137767653D01*
X80530539Y-137767121D01*
X80529856Y-137766612D01*
X80529148Y-137766129D01*
X80528415Y-137765671D01*
X80527655Y-137765239D01*
X80526868Y-137764835D01*
X80526053Y-137764459D01*
X80525209Y-137764111D01*
X80524336Y-137763792D01*
X80523433Y-137763504D01*
X80522499Y-137763247D01*
X80521533Y-137763022D01*
X80520535Y-137762829D01*
X80519503Y-137762669D01*
X80518437Y-137762544D01*
X80517337Y-137762453D01*
X80516201Y-137762399D01*
X80515029Y-137762380D01*
X80062060Y-137762380D01*
X79748822Y-138537082D01*
X78948902Y-138537082D01*
X79367824Y-137499914D01*
X81255893Y-137499914D01*
X81261772Y-137500013D01*
G37*
%TD.AperFunction*%
%TA.AperFunction,EtchedComponent*%
G36*
X58500000Y-137500000D02*
G01*
X58504464Y-137500260D01*
X58508728Y-137500693D01*
X58512791Y-137501299D01*
X58516653Y-137502076D01*
X58520312Y-137503025D01*
X58523768Y-137504146D01*
X58527021Y-137505437D01*
X58530068Y-137506899D01*
X58532911Y-137508531D01*
X58535547Y-137510332D01*
X58537976Y-137512304D01*
X58540198Y-137514444D01*
X58542210Y-137516752D01*
X58544014Y-137519229D01*
X58545608Y-137521874D01*
X58546990Y-137524686D01*
X58548161Y-137527665D01*
X58549120Y-137530811D01*
X58549866Y-137534123D01*
X58550397Y-137537601D01*
X58550714Y-137541245D01*
X58550816Y-137545054D01*
X58550701Y-137549027D01*
X58550369Y-137553165D01*
X58549819Y-137557466D01*
X58549051Y-137561931D01*
X58548063Y-137566560D01*
X58546856Y-137571351D01*
X58545427Y-137576304D01*
X58543777Y-137581420D01*
X58541904Y-137586697D01*
X58419137Y-137887264D01*
X57786253Y-137887264D01*
X57837053Y-137762381D01*
X57202052Y-137762381D01*
X56907835Y-138490515D01*
X56907066Y-138492499D01*
X56906351Y-138494484D01*
X56905691Y-138496468D01*
X56905090Y-138498453D01*
X56904551Y-138500437D01*
X56904077Y-138502421D01*
X56903671Y-138504406D01*
X56903337Y-138506390D01*
X56903077Y-138508375D01*
X56902895Y-138510359D01*
X56902793Y-138512343D01*
X56902775Y-138514328D01*
X56902843Y-138516312D01*
X56903002Y-138518297D01*
X56903254Y-138520281D01*
X56903602Y-138522265D01*
X56903819Y-138523239D01*
X56904072Y-138524176D01*
X56904363Y-138525076D01*
X56904689Y-138525940D01*
X56905051Y-138526769D01*
X56905448Y-138527562D01*
X56905880Y-138528321D01*
X56906347Y-138529045D01*
X56906847Y-138529735D01*
X56907382Y-138530391D01*
X56907950Y-138531014D01*
X56908550Y-138531604D01*
X56909184Y-138532162D01*
X56909849Y-138532687D01*
X56910546Y-138533180D01*
X56911275Y-138533642D01*
X56912034Y-138534073D01*
X56912824Y-138534474D01*
X56913645Y-138534844D01*
X56914495Y-138535184D01*
X56915375Y-138535495D01*
X56916284Y-138535777D01*
X56917221Y-138536030D01*
X56918187Y-138536255D01*
X56919180Y-138536452D01*
X56920202Y-138536622D01*
X56921250Y-138536764D01*
X56922325Y-138536880D01*
X56924554Y-138537032D01*
X56926885Y-138537082D01*
X57354452Y-138537082D01*
X57523785Y-138120098D01*
X58326003Y-138120098D01*
X58086820Y-138712765D01*
X58081908Y-138723507D01*
X58076695Y-138733511D01*
X58071179Y-138742782D01*
X58065355Y-138751329D01*
X58059222Y-138759156D01*
X58056038Y-138762801D01*
X58052775Y-138766270D01*
X58049433Y-138769561D01*
X58046012Y-138772676D01*
X58042511Y-138775617D01*
X58038930Y-138778383D01*
X58035268Y-138780975D01*
X58031525Y-138783394D01*
X58027701Y-138785641D01*
X58023795Y-138787717D01*
X58019807Y-138789623D01*
X58015736Y-138791359D01*
X58011582Y-138792925D01*
X58007345Y-138794324D01*
X58003025Y-138795555D01*
X57998620Y-138796619D01*
X57994130Y-138797518D01*
X57989556Y-138798251D01*
X57980152Y-138799226D01*
X57970403Y-138799549D01*
X56188167Y-138799549D01*
X56181892Y-138799474D01*
X56175769Y-138799243D01*
X56169801Y-138798852D01*
X56163991Y-138798293D01*
X56158342Y-138797560D01*
X56152857Y-138796647D01*
X56147540Y-138795549D01*
X56142394Y-138794258D01*
X56137421Y-138792768D01*
X56132625Y-138791074D01*
X56128009Y-138789170D01*
X56123575Y-138787048D01*
X56119328Y-138784703D01*
X56115270Y-138782128D01*
X56111404Y-138779318D01*
X56107733Y-138776266D01*
X56104235Y-138773066D01*
X56100883Y-138769809D01*
X56097674Y-138766490D01*
X56094603Y-138763104D01*
X56091670Y-138759642D01*
X56088869Y-138756100D01*
X56086199Y-138752472D01*
X56083656Y-138748750D01*
X56081237Y-138744929D01*
X56078939Y-138741003D01*
X56076759Y-138736965D01*
X56074694Y-138732809D01*
X56072740Y-138728529D01*
X56070894Y-138724119D01*
X56069154Y-138719572D01*
X56067517Y-138714883D01*
X56066004Y-138710493D01*
X56064639Y-138706053D01*
X56063424Y-138701563D01*
X56062357Y-138697024D01*
X56061440Y-138692435D01*
X56060671Y-138687797D01*
X56060051Y-138683109D01*
X56059579Y-138678371D01*
X56059257Y-138673584D01*
X56059083Y-138668747D01*
X56059058Y-138663860D01*
X56059182Y-138658924D01*
X56059455Y-138653938D01*
X56059877Y-138648903D01*
X56060447Y-138643818D01*
X56061167Y-138638683D01*
X56062159Y-138628460D01*
X56063548Y-138618409D01*
X56065334Y-138608508D01*
X56067517Y-138598731D01*
X56070096Y-138589053D01*
X56073073Y-138579449D01*
X56076446Y-138569896D01*
X56080217Y-138560366D01*
X56473917Y-137586697D01*
X56478060Y-137576304D01*
X56482553Y-137566560D01*
X56487400Y-137557466D01*
X56492604Y-137549027D01*
X56498167Y-137541245D01*
X56501084Y-137537601D01*
X56504092Y-137534123D01*
X56507192Y-137530811D01*
X56510384Y-137527665D01*
X56513668Y-137524686D01*
X56517044Y-137521874D01*
X56520514Y-137519229D01*
X56524077Y-137516752D01*
X56527734Y-137514444D01*
X56531485Y-137512304D01*
X56535331Y-137510332D01*
X56539271Y-137508531D01*
X56543307Y-137506899D01*
X56547439Y-137505437D01*
X56551666Y-137504146D01*
X56555990Y-137503025D01*
X56560412Y-137502076D01*
X56564930Y-137501299D01*
X56569546Y-137500693D01*
X56574260Y-137500260D01*
X56579073Y-137500000D01*
X56583984Y-137499914D01*
X58495337Y-137499914D01*
X58500000Y-137500000D01*
G37*
%TD.AperFunction*%
%TA.AperFunction,EtchedComponent*%
G36*
X58500000Y-137500000D02*
G01*
X58504464Y-137500260D01*
X58508728Y-137500693D01*
X58512791Y-137501299D01*
X58516653Y-137502076D01*
X58520312Y-137503025D01*
X58523768Y-137504146D01*
X58527021Y-137505437D01*
X58530068Y-137506899D01*
X58532911Y-137508531D01*
X58535547Y-137510332D01*
X58537976Y-137512304D01*
X58540198Y-137514444D01*
X58542210Y-137516752D01*
X58544014Y-137519229D01*
X58545608Y-137521874D01*
X58546990Y-137524686D01*
X58548161Y-137527665D01*
X58549120Y-137530811D01*
X58549866Y-137534123D01*
X58550397Y-137537601D01*
X58550714Y-137541245D01*
X58550816Y-137545054D01*
X58550701Y-137549027D01*
X58550369Y-137553165D01*
X58549819Y-137557466D01*
X58549051Y-137561931D01*
X58548063Y-137566560D01*
X58546856Y-137571351D01*
X58545427Y-137576304D01*
X58543777Y-137581420D01*
X58541904Y-137586697D01*
X58419137Y-137887264D01*
X57786253Y-137887264D01*
X57837053Y-137762381D01*
X57202052Y-137762381D01*
X56907835Y-138490515D01*
X56907066Y-138492499D01*
X56906351Y-138494484D01*
X56905691Y-138496468D01*
X56905090Y-138498453D01*
X56904551Y-138500437D01*
X56904077Y-138502421D01*
X56903671Y-138504406D01*
X56903337Y-138506390D01*
X56903077Y-138508375D01*
X56902895Y-138510359D01*
X56902793Y-138512343D01*
X56902775Y-138514328D01*
X56902843Y-138516312D01*
X56903002Y-138518297D01*
X56903254Y-138520281D01*
X56903602Y-138522265D01*
X56903819Y-138523239D01*
X56904072Y-138524176D01*
X56904363Y-138525076D01*
X56904689Y-138525940D01*
X56905051Y-138526769D01*
X56905448Y-138527562D01*
X56905880Y-138528321D01*
X56906347Y-138529045D01*
X56906847Y-138529735D01*
X56907382Y-138530391D01*
X56907950Y-138531014D01*
X56908550Y-138531604D01*
X56909184Y-138532162D01*
X56909849Y-138532687D01*
X56910546Y-138533180D01*
X56911275Y-138533642D01*
X56912034Y-138534073D01*
X56912824Y-138534474D01*
X56913645Y-138534844D01*
X56914495Y-138535184D01*
X56915375Y-138535495D01*
X56916284Y-138535777D01*
X56917221Y-138536030D01*
X56918187Y-138536255D01*
X56919180Y-138536452D01*
X56920202Y-138536622D01*
X56921250Y-138536764D01*
X56922325Y-138536880D01*
X56924554Y-138537032D01*
X56926885Y-138537082D01*
X57354452Y-138537082D01*
X57523785Y-138120098D01*
X58326003Y-138120098D01*
X58086820Y-138712765D01*
X58081908Y-138723507D01*
X58076695Y-138733511D01*
X58071179Y-138742782D01*
X58065355Y-138751329D01*
X58059222Y-138759156D01*
X58056038Y-138762801D01*
X58052775Y-138766270D01*
X58049433Y-138769561D01*
X58046012Y-138772676D01*
X58042511Y-138775617D01*
X58038930Y-138778383D01*
X58035268Y-138780975D01*
X58031525Y-138783394D01*
X58027701Y-138785641D01*
X58023795Y-138787717D01*
X58019807Y-138789623D01*
X58015736Y-138791359D01*
X58011582Y-138792925D01*
X58007345Y-138794324D01*
X58003025Y-138795555D01*
X57998620Y-138796619D01*
X57994130Y-138797518D01*
X57989556Y-138798251D01*
X57980152Y-138799226D01*
X57970403Y-138799549D01*
X56188167Y-138799549D01*
X56181892Y-138799474D01*
X56175769Y-138799243D01*
X56169801Y-138798852D01*
X56163991Y-138798293D01*
X56158342Y-138797560D01*
X56152857Y-138796647D01*
X56147540Y-138795549D01*
X56142394Y-138794258D01*
X56137421Y-138792768D01*
X56132625Y-138791074D01*
X56128009Y-138789170D01*
X56123575Y-138787048D01*
X56119328Y-138784703D01*
X56115270Y-138782128D01*
X56111404Y-138779318D01*
X56107733Y-138776266D01*
X56104235Y-138773066D01*
X56100883Y-138769809D01*
X56097674Y-138766490D01*
X56094603Y-138763104D01*
X56091670Y-138759642D01*
X56088869Y-138756100D01*
X56086199Y-138752472D01*
X56083656Y-138748750D01*
X56081237Y-138744929D01*
X56078939Y-138741003D01*
X56076759Y-138736965D01*
X56074694Y-138732809D01*
X56072740Y-138728529D01*
X56070894Y-138724119D01*
X56069154Y-138719572D01*
X56067517Y-138714883D01*
X56066004Y-138710493D01*
X56064639Y-138706053D01*
X56063424Y-138701563D01*
X56062357Y-138697024D01*
X56061440Y-138692435D01*
X56060671Y-138687797D01*
X56060051Y-138683109D01*
X56059579Y-138678371D01*
X56059257Y-138673584D01*
X56059083Y-138668747D01*
X56059058Y-138663860D01*
X56059182Y-138658924D01*
X56059455Y-138653938D01*
X56059877Y-138648903D01*
X56060447Y-138643818D01*
X56061167Y-138638683D01*
X56062159Y-138628460D01*
X56063548Y-138618409D01*
X56065334Y-138608508D01*
X56067517Y-138598731D01*
X56070096Y-138589053D01*
X56073073Y-138579449D01*
X56076446Y-138569896D01*
X56080217Y-138560366D01*
X56473917Y-137586697D01*
X56478060Y-137576304D01*
X56482553Y-137566560D01*
X56487400Y-137557466D01*
X56492604Y-137549027D01*
X56498167Y-137541245D01*
X56501084Y-137537601D01*
X56504092Y-137534123D01*
X56507192Y-137530811D01*
X56510384Y-137527665D01*
X56513668Y-137524686D01*
X56517044Y-137521874D01*
X56520514Y-137519229D01*
X56524077Y-137516752D01*
X56527734Y-137514444D01*
X56531485Y-137512304D01*
X56535331Y-137510332D01*
X56539271Y-137508531D01*
X56543307Y-137506899D01*
X56547439Y-137505437D01*
X56551666Y-137504146D01*
X56555990Y-137503025D01*
X56560412Y-137502076D01*
X56564930Y-137501299D01*
X56569546Y-137500693D01*
X56574260Y-137500260D01*
X56579073Y-137500000D01*
X56583984Y-137499914D01*
X58495337Y-137499914D01*
X58500000Y-137500000D01*
G37*
%TD.AperFunction*%
%TA.AperFunction,EtchedComponent*%
G36*
X60743239Y-137499914D02*
G01*
X60747897Y-137500000D01*
X60752343Y-137500260D01*
X60756578Y-137500693D01*
X60760603Y-137501299D01*
X60764416Y-137502076D01*
X60768019Y-137503025D01*
X60771411Y-137504146D01*
X60774593Y-137505437D01*
X60777563Y-137506899D01*
X60780323Y-137508531D01*
X60782871Y-137510332D01*
X60785209Y-137512304D01*
X60787336Y-137514444D01*
X60789252Y-137516752D01*
X60790958Y-137519229D01*
X60792452Y-137521874D01*
X60793736Y-137524686D01*
X60794809Y-137527665D01*
X60795670Y-137530811D01*
X60796322Y-137534123D01*
X60796762Y-137537601D01*
X60796991Y-137541245D01*
X60797010Y-137545054D01*
X60796818Y-137549027D01*
X60796415Y-137553165D01*
X60795801Y-137557466D01*
X60794976Y-137561931D01*
X60793940Y-137566560D01*
X60792694Y-137571351D01*
X60791236Y-137576304D01*
X60789568Y-137581420D01*
X60787689Y-137586697D01*
X60393989Y-138560365D01*
X60389818Y-138569894D01*
X60385225Y-138579448D01*
X60380186Y-138589052D01*
X60374675Y-138598730D01*
X60368668Y-138608507D01*
X60362140Y-138618408D01*
X60355066Y-138628458D01*
X60347422Y-138638682D01*
X60339381Y-138648902D01*
X60331117Y-138658923D01*
X60322605Y-138668746D01*
X60313820Y-138678370D01*
X60304737Y-138687796D01*
X60295332Y-138697023D01*
X60285580Y-138706052D01*
X60275455Y-138714882D01*
X60270271Y-138719571D01*
X60265037Y-138724118D01*
X60259754Y-138728528D01*
X60254421Y-138732808D01*
X60249038Y-138736963D01*
X60243606Y-138741001D01*
X60238124Y-138744928D01*
X60232593Y-138748749D01*
X60221381Y-138756099D01*
X60209971Y-138763102D01*
X60198362Y-138769808D01*
X60186555Y-138776265D01*
X60180602Y-138779317D01*
X60174649Y-138782127D01*
X60168696Y-138784702D01*
X60162742Y-138787047D01*
X60156789Y-138789169D01*
X60150836Y-138791073D01*
X60144883Y-138792767D01*
X60138930Y-138794257D01*
X60132977Y-138795547D01*
X60127024Y-138796646D01*
X60121071Y-138797559D01*
X60115118Y-138798291D01*
X60109165Y-138798851D01*
X60103212Y-138799242D01*
X60097258Y-138799473D01*
X60091305Y-138799548D01*
X58279436Y-138799548D01*
X58274779Y-138799467D01*
X58270334Y-138799225D01*
X58266101Y-138798819D01*
X58262081Y-138798250D01*
X58258275Y-138797517D01*
X58254684Y-138796618D01*
X58251308Y-138795554D01*
X58248149Y-138794323D01*
X58245207Y-138792924D01*
X58242482Y-138791357D01*
X58239976Y-138789622D01*
X58237690Y-138787716D01*
X58235623Y-138785640D01*
X58233778Y-138783393D01*
X58232154Y-138780974D01*
X58230752Y-138778381D01*
X58229574Y-138775615D01*
X58228620Y-138772675D01*
X58227891Y-138769560D01*
X58227387Y-138766268D01*
X58227110Y-138762800D01*
X58227060Y-138759154D01*
X58227237Y-138755330D01*
X58227643Y-138751327D01*
X58228279Y-138747145D01*
X58229145Y-138742781D01*
X58230242Y-138738236D01*
X58231571Y-138733509D01*
X58233132Y-138728599D01*
X58234927Y-138723506D01*
X58236955Y-138718228D01*
X58239219Y-138712764D01*
X58309874Y-138537082D01*
X59109171Y-138537082D01*
X59564255Y-138537082D01*
X59566635Y-138537032D01*
X59569009Y-138536879D01*
X59571371Y-138536622D01*
X59573714Y-138536255D01*
X59576032Y-138535778D01*
X59578319Y-138535185D01*
X59580569Y-138534475D01*
X59582776Y-138533643D01*
X59584933Y-138532688D01*
X59587034Y-138531605D01*
X59589073Y-138530393D01*
X59591044Y-138529046D01*
X59592941Y-138527563D01*
X59594757Y-138525941D01*
X59596486Y-138524176D01*
X59598122Y-138522265D01*
X59604407Y-138514327D01*
X59607425Y-138510359D01*
X59610294Y-138506390D01*
X59611657Y-138504405D01*
X59612964Y-138502421D01*
X59614209Y-138500437D01*
X59615387Y-138498452D01*
X59616489Y-138496468D01*
X59617511Y-138494483D01*
X59618447Y-138492499D01*
X59619289Y-138490515D01*
X59913505Y-137762381D01*
X59460538Y-137762381D01*
X59458157Y-137762455D01*
X59455779Y-137762674D01*
X59453408Y-137763036D01*
X59451046Y-137763538D01*
X59448696Y-137764176D01*
X59446362Y-137764948D01*
X59444046Y-137765850D01*
X59441752Y-137766879D01*
X59439483Y-137768031D01*
X59437242Y-137769305D01*
X59435032Y-137770697D01*
X59432856Y-137772203D01*
X59430717Y-137773821D01*
X59428618Y-137775548D01*
X59426563Y-137777379D01*
X59424555Y-137779314D01*
X59422619Y-137781297D01*
X59420780Y-137783278D01*
X59419034Y-137785253D01*
X59417378Y-137787218D01*
X59415809Y-137789171D01*
X59414323Y-137791108D01*
X59412918Y-137793027D01*
X59411590Y-137794924D01*
X59410337Y-137796796D01*
X59409155Y-137798641D01*
X59406993Y-137802233D01*
X59405079Y-137805677D01*
X59403388Y-137808947D01*
X59109171Y-138537082D01*
X58309874Y-138537082D01*
X58630803Y-137739097D01*
X58632466Y-137735079D01*
X58634277Y-137730965D01*
X58636237Y-137726758D01*
X58638345Y-137722461D01*
X58643009Y-137713610D01*
X58648267Y-137704437D01*
X58654120Y-137694965D01*
X58660569Y-137685221D01*
X58667613Y-137675229D01*
X58675253Y-137665013D01*
X58678875Y-137659878D01*
X58682595Y-137654789D01*
X58690334Y-137644739D01*
X58698470Y-137634838D01*
X58707003Y-137625061D01*
X58715933Y-137615383D01*
X58725259Y-137605779D01*
X58734983Y-137596225D01*
X58745103Y-137586696D01*
X58755521Y-137578068D01*
X58766138Y-137569664D01*
X58776953Y-137561507D01*
X58787966Y-137553623D01*
X58799178Y-137546037D01*
X58810588Y-137538774D01*
X58822196Y-137531857D01*
X58834003Y-137525313D01*
X58839981Y-137522237D01*
X58846005Y-137519360D01*
X58852072Y-137516681D01*
X58858180Y-137514201D01*
X58864325Y-137511919D01*
X58870503Y-137509835D01*
X58876713Y-137507950D01*
X58882951Y-137506263D01*
X58889214Y-137504775D01*
X58895498Y-137503485D01*
X58901801Y-137502394D01*
X58908120Y-137501501D01*
X58914451Y-137500806D01*
X58920791Y-137500310D01*
X58927137Y-137500012D01*
X58933486Y-137499913D01*
X60743239Y-137499914D01*
G37*
%TD.AperFunction*%
%TA.AperFunction,EtchedComponent*%
G36*
X60743239Y-137499914D02*
G01*
X60747897Y-137500000D01*
X60752343Y-137500260D01*
X60756578Y-137500693D01*
X60760603Y-137501299D01*
X60764416Y-137502076D01*
X60768019Y-137503025D01*
X60771411Y-137504146D01*
X60774593Y-137505437D01*
X60777563Y-137506899D01*
X60780323Y-137508531D01*
X60782871Y-137510332D01*
X60785209Y-137512304D01*
X60787336Y-137514444D01*
X60789252Y-137516752D01*
X60790958Y-137519229D01*
X60792452Y-137521874D01*
X60793736Y-137524686D01*
X60794809Y-137527665D01*
X60795670Y-137530811D01*
X60796322Y-137534123D01*
X60796762Y-137537601D01*
X60796991Y-137541245D01*
X60797010Y-137545054D01*
X60796818Y-137549027D01*
X60796415Y-137553165D01*
X60795801Y-137557466D01*
X60794976Y-137561931D01*
X60793940Y-137566560D01*
X60792694Y-137571351D01*
X60791236Y-137576304D01*
X60789568Y-137581420D01*
X60787689Y-137586697D01*
X60393989Y-138560365D01*
X60389818Y-138569894D01*
X60385225Y-138579448D01*
X60380186Y-138589052D01*
X60374675Y-138598730D01*
X60368668Y-138608507D01*
X60362140Y-138618408D01*
X60355066Y-138628458D01*
X60347422Y-138638682D01*
X60339381Y-138648902D01*
X60331117Y-138658923D01*
X60322605Y-138668746D01*
X60313820Y-138678370D01*
X60304737Y-138687796D01*
X60295332Y-138697023D01*
X60285580Y-138706052D01*
X60275455Y-138714882D01*
X60270271Y-138719571D01*
X60265037Y-138724118D01*
X60259754Y-138728528D01*
X60254421Y-138732808D01*
X60249038Y-138736963D01*
X60243606Y-138741001D01*
X60238124Y-138744928D01*
X60232593Y-138748749D01*
X60221381Y-138756099D01*
X60209971Y-138763102D01*
X60198362Y-138769808D01*
X60186555Y-138776265D01*
X60180602Y-138779317D01*
X60174649Y-138782127D01*
X60168696Y-138784702D01*
X60162742Y-138787047D01*
X60156789Y-138789169D01*
X60150836Y-138791073D01*
X60144883Y-138792767D01*
X60138930Y-138794257D01*
X60132977Y-138795547D01*
X60127024Y-138796646D01*
X60121071Y-138797559D01*
X60115118Y-138798291D01*
X60109165Y-138798851D01*
X60103212Y-138799242D01*
X60097258Y-138799473D01*
X60091305Y-138799548D01*
X58279436Y-138799548D01*
X58274779Y-138799467D01*
X58270334Y-138799225D01*
X58266101Y-138798819D01*
X58262081Y-138798250D01*
X58258275Y-138797517D01*
X58254684Y-138796618D01*
X58251308Y-138795554D01*
X58248149Y-138794323D01*
X58245207Y-138792924D01*
X58242482Y-138791357D01*
X58239976Y-138789622D01*
X58237690Y-138787716D01*
X58235623Y-138785640D01*
X58233778Y-138783393D01*
X58232154Y-138780974D01*
X58230752Y-138778381D01*
X58229574Y-138775615D01*
X58228620Y-138772675D01*
X58227891Y-138769560D01*
X58227387Y-138766268D01*
X58227110Y-138762800D01*
X58227060Y-138759154D01*
X58227237Y-138755330D01*
X58227643Y-138751327D01*
X58228279Y-138747145D01*
X58229145Y-138742781D01*
X58230242Y-138738236D01*
X58231571Y-138733509D01*
X58233132Y-138728599D01*
X58234927Y-138723506D01*
X58236955Y-138718228D01*
X58239219Y-138712764D01*
X58309874Y-138537082D01*
X59109171Y-138537082D01*
X59564255Y-138537082D01*
X59566635Y-138537032D01*
X59569009Y-138536879D01*
X59571371Y-138536622D01*
X59573714Y-138536255D01*
X59576032Y-138535778D01*
X59578319Y-138535185D01*
X59580569Y-138534475D01*
X59582776Y-138533643D01*
X59584933Y-138532688D01*
X59587034Y-138531605D01*
X59589073Y-138530393D01*
X59591044Y-138529046D01*
X59592941Y-138527563D01*
X59594757Y-138525941D01*
X59596486Y-138524176D01*
X59598122Y-138522265D01*
X59604407Y-138514327D01*
X59607425Y-138510359D01*
X59610294Y-138506390D01*
X59611657Y-138504405D01*
X59612964Y-138502421D01*
X59614209Y-138500437D01*
X59615387Y-138498452D01*
X59616489Y-138496468D01*
X59617511Y-138494483D01*
X59618447Y-138492499D01*
X59619289Y-138490515D01*
X59913505Y-137762381D01*
X59460538Y-137762381D01*
X59458157Y-137762455D01*
X59455779Y-137762674D01*
X59453408Y-137763036D01*
X59451046Y-137763538D01*
X59448696Y-137764176D01*
X59446362Y-137764948D01*
X59444046Y-137765850D01*
X59441752Y-137766879D01*
X59439483Y-137768031D01*
X59437242Y-137769305D01*
X59435032Y-137770697D01*
X59432856Y-137772203D01*
X59430717Y-137773821D01*
X59428618Y-137775548D01*
X59426563Y-137777379D01*
X59424555Y-137779314D01*
X59422619Y-137781297D01*
X59420780Y-137783278D01*
X59419034Y-137785253D01*
X59417378Y-137787218D01*
X59415809Y-137789171D01*
X59414323Y-137791108D01*
X59412918Y-137793027D01*
X59411590Y-137794924D01*
X59410337Y-137796796D01*
X59409155Y-137798641D01*
X59406993Y-137802233D01*
X59405079Y-137805677D01*
X59403388Y-137808947D01*
X59109171Y-138537082D01*
X58309874Y-138537082D01*
X58630803Y-137739097D01*
X58632466Y-137735079D01*
X58634277Y-137730965D01*
X58636237Y-137726758D01*
X58638345Y-137722461D01*
X58643009Y-137713610D01*
X58648267Y-137704437D01*
X58654120Y-137694965D01*
X58660569Y-137685221D01*
X58667613Y-137675229D01*
X58675253Y-137665013D01*
X58678875Y-137659878D01*
X58682595Y-137654789D01*
X58690334Y-137644739D01*
X58698470Y-137634838D01*
X58707003Y-137625061D01*
X58715933Y-137615383D01*
X58725259Y-137605779D01*
X58734983Y-137596225D01*
X58745103Y-137586696D01*
X58755521Y-137578068D01*
X58766138Y-137569664D01*
X58776953Y-137561507D01*
X58787966Y-137553623D01*
X58799178Y-137546037D01*
X58810588Y-137538774D01*
X58822196Y-137531857D01*
X58834003Y-137525313D01*
X58839981Y-137522237D01*
X58846005Y-137519360D01*
X58852072Y-137516681D01*
X58858180Y-137514201D01*
X58864325Y-137511919D01*
X58870503Y-137509835D01*
X58876713Y-137507950D01*
X58882951Y-137506263D01*
X58889214Y-137504775D01*
X58895498Y-137503485D01*
X58901801Y-137502394D01*
X58908120Y-137501501D01*
X58914451Y-137500806D01*
X58920791Y-137500310D01*
X58927137Y-137500012D01*
X58933486Y-137499913D01*
X60743239Y-137499914D01*
G37*
%TD.AperFunction*%
%TD*%
D11*
%TO.P,U2,1,1A*%
%TO.N,Net-(J1-Pin_3)*%
X101990000Y-110500000D03*
%TO.P,U2,2,GND*%
%TO.N,GND*%
X101990000Y-111450000D03*
%TO.P,U2,3,2A*%
%TO.N,Net-(U2-1Y)*%
X101990000Y-112400000D03*
%TO.P,U2,4,2Y*%
%TO.N,Net-(U2-2Y)*%
X104500000Y-112400000D03*
%TO.P,U2,5,VCC*%
%TO.N,+3V3*%
X104500000Y-111450000D03*
%TO.P,U2,6,1Y*%
%TO.N,Net-(U2-1Y)*%
X104500000Y-110500000D03*
%TD*%
D12*
%TO.P,SW1,*%
%TO.N,*%
X38500000Y-132150000D03*
D13*
%TO.P,SW1,1,1*%
%TO.N,Net-(J1-Pin_4)*%
X43500000Y-121100000D03*
%TO.P,SW1,2,2*%
%TO.N,+3V3*%
X48500000Y-123200000D03*
%TD*%
D14*
%TO.P,R2,1*%
%TO.N,Net-(J1-Pin_2)*%
X86000000Y-119080000D03*
%TO.P,R2,2*%
%TO.N,GND*%
X86000000Y-108920000D03*
%TD*%
D15*
%TO.P,Brd1,*%
%TO.N,*%
X58900000Y-109450000D03*
X58900000Y-133550000D03*
X81000000Y-109450000D03*
X81100000Y-133550000D03*
D16*
%TO.P,Brd1,1,GND*%
%TO.N,GND*%
X66080000Y-109550000D03*
%TO.P,Brd1,2,VCC*%
%TO.N,+3V3*%
X68620000Y-109550000D03*
%TO.P,Brd1,3,SCL*%
%TO.N,Net-(Brd1-SCL)*%
X71160000Y-109550000D03*
%TO.P,Brd1,4,SDA*%
%TO.N,Net-(Brd1-SDA)*%
X73700000Y-109550000D03*
%TD*%
D17*
%TO.P,LS1,N*%
%TO.N,Net-(U2-2Y)*%
X70500000Y-132000000D03*
%TO.P,LS1,P*%
%TO.N,Net-(U2-1Y)*%
X70500000Y-121050000D03*
%TD*%
D12*
%TO.P,SW2,*%
%TO.N,*%
X91500000Y-132150000D03*
D13*
%TO.P,SW2,1,1*%
%TO.N,Net-(J1-Pin_2)*%
X96500000Y-121100000D03*
%TO.P,SW2,2,2*%
%TO.N,+3V3*%
X101500000Y-123200000D03*
%TD*%
D14*
%TO.P,R1,1*%
%TO.N,Net-(J1-Pin_4)*%
X54000000Y-119080000D03*
%TO.P,R1,2*%
%TO.N,GND*%
X54000000Y-108920000D03*
%TD*%
D18*
%TO.P,J1,1,Pin_1*%
%TO.N,+3V3*%
X48380000Y-104500000D03*
D19*
%TO.P,J1,2,Pin_2*%
%TO.N,Net-(J1-Pin_2)*%
X50920000Y-104500000D03*
%TO.P,J1,3,Pin_3*%
%TO.N,Net-(J1-Pin_3)*%
X53460000Y-104500000D03*
%TO.P,J1,4,Pin_4*%
%TO.N,Net-(J1-Pin_4)*%
X56000000Y-104500000D03*
%TO.P,J1,5,Pin_5*%
%TO.N,Net-(J1-Pin_5)*%
X58540000Y-104500000D03*
%TO.P,J1,6,Pin_6*%
%TO.N,GND*%
X61080000Y-104500000D03*
%TD*%
D20*
%TO.P,U1,1,PB5*%
%TO.N,Net-(J1-Pin_5)*%
X89880000Y-104880000D03*
D21*
%TO.P,U1,2,PB3*%
%TO.N,Net-(Brd1-SDA)*%
X89880000Y-107420000D03*
%TO.P,U1,3,PB4*%
%TO.N,Net-(Brd1-SCL)*%
X89880000Y-109960000D03*
%TO.P,U1,4,GND*%
%TO.N,GND*%
X89880000Y-112500000D03*
%TO.P,U1,5,PB0*%
%TO.N,Net-(J1-Pin_2)*%
X97500000Y-112500000D03*
%TO.P,U1,6,PB1*%
%TO.N,Net-(J1-Pin_3)*%
X97500000Y-109960000D03*
%TO.P,U1,7,PB2*%
%TO.N,Net-(J1-Pin_4)*%
X97500000Y-107420000D03*
%TO.P,U1,8,VCC*%
%TO.N,+3V3*%
X97500000Y-104880000D03*
%TD*%
D22*
%TO.P,S1,1*%
%TO.N,unconnected-(S1-Pad1)*%
X72500000Y-105500000D03*
%TO.P,S1,2*%
%TO.N,Net-(BT1-+)*%
X70500000Y-105500000D03*
%TO.P,S1,3*%
%TO.N,+3V3*%
X68500000Y-105500000D03*
D23*
%TO.P,S1,P$4*%
%TO.N,N/C*%
X75350000Y-105500000D03*
%TO.P,S1,P$5*%
X65650000Y-105500000D03*
%TD*%
D24*
%TO.N,GND*%
X70533400Y-112500000D03*
%TO.N,+3V3*%
X48380000Y-111572600D03*
X101500000Y-113195800D03*
%TO.N,Net-(J1-Pin_2)*%
X51993300Y-112328500D03*
%TD*%
D25*
%TO.N,Net-(Brd1-SDA)*%
X89861600Y-107401600D02*
X89880000Y-107420000D01*
X77005600Y-109550000D02*
X79154000Y-107401600D01*
X73700000Y-109550000D02*
X77005600Y-109550000D01*
X79154000Y-107401600D02*
X89861600Y-107401600D01*
%TO.N,Net-(Brd1-SCL)*%
X72261700Y-109878300D02*
X73250700Y-110867300D01*
X73250700Y-110867300D02*
X76258900Y-110867300D01*
X79322900Y-107803300D02*
X87723300Y-107803300D01*
X72261700Y-109550000D02*
X72261700Y-109878300D01*
X76258900Y-110867300D02*
X79322900Y-107803300D01*
X87723300Y-107803300D02*
X89880000Y-109960000D01*
X71160000Y-109550000D02*
X72261700Y-109550000D01*
%TO.N,GND*%
X101990000Y-111450000D02*
X90930000Y-111450000D01*
X69890000Y-111856600D02*
X70533400Y-112500000D01*
X66080000Y-109550000D02*
X67407200Y-108222800D01*
X67407200Y-108222800D02*
X69122900Y-108222800D01*
X89880000Y-112500000D02*
X70533400Y-112500000D01*
X69122900Y-108222800D02*
X69890000Y-108989900D01*
X90930000Y-111450000D02*
X89880000Y-112500000D01*
X69890000Y-108989900D02*
X69890000Y-111856600D01*
%TO.N,+3V3*%
X68500000Y-105500000D02*
X69881600Y-104118400D01*
X68620000Y-109550000D02*
X67518300Y-109550000D01*
X102490000Y-113195800D02*
X101500000Y-113195800D01*
X104087000Y-111450000D02*
X103228100Y-112308900D01*
X69881600Y-104118400D02*
X74688800Y-104118400D01*
X103228100Y-112308900D02*
X103228100Y-112457700D01*
X74688800Y-104118400D02*
X74938900Y-103868300D01*
X48380000Y-111572600D02*
X65824000Y-111572600D01*
X74938900Y-103868300D02*
X96488300Y-103868300D01*
X96488300Y-103868300D02*
X97500000Y-104880000D01*
X103228100Y-112457700D02*
X102490000Y-113195800D01*
X65824000Y-111572600D02*
X67518300Y-109878300D01*
X104500000Y-111450000D02*
X104087000Y-111450000D01*
X67518300Y-109878300D02*
X67518300Y-109550000D01*
%TO.N,Net-(U2-2Y)*%
X101805200Y-115094800D02*
X86378500Y-115094800D01*
X104500000Y-112400000D02*
X101805200Y-115094800D01*
X86378500Y-115094800D02*
X70500000Y-130973300D01*
X70500000Y-132000000D02*
X70500000Y-130973300D01*
%TO.N,Net-(U2-1Y)*%
X103155800Y-111684200D02*
X102440000Y-112400000D01*
X104500000Y-110500000D02*
X104061000Y-110500000D01*
X104061000Y-110500000D02*
X103155800Y-111405200D01*
X103155800Y-111405200D02*
X103155800Y-111684200D01*
X102440000Y-112400000D02*
X101990000Y-112400000D01*
X76325600Y-114197700D02*
X70500000Y-120023300D01*
X70500000Y-121050000D02*
X70500000Y-120023300D01*
X101990000Y-112400000D02*
X99627300Y-112400000D01*
X99627300Y-112400000D02*
X97829600Y-114197700D01*
X97829600Y-114197700D02*
X76325600Y-114197700D01*
%TO.N,Net-(J1-Pin_4)*%
X43500000Y-121100000D02*
X45520000Y-119080000D01*
X96103600Y-106023600D02*
X79195900Y-106023600D01*
X78227300Y-106992200D02*
X78227200Y-106992200D01*
X77991800Y-107227600D02*
X77866800Y-107352600D01*
X77991800Y-107227600D02*
X77866800Y-107352600D01*
X77866800Y-107352600D02*
X58852600Y-107352600D01*
X58852600Y-107352600D02*
X56000000Y-104500000D01*
X79195900Y-106023600D02*
X78227300Y-106992200D01*
X45520000Y-119080000D02*
X54000000Y-119080000D01*
X78227200Y-106992200D02*
X77991800Y-107227600D01*
X97500000Y-107420000D02*
X96103600Y-106023600D01*
%TO.N,Net-(J1-Pin_5)*%
X77700500Y-106950900D02*
X60990900Y-106950900D01*
X77882500Y-106768900D02*
X77825500Y-106825900D01*
X89880000Y-104880000D02*
X88917900Y-104880000D01*
X77882500Y-106659600D02*
X77882500Y-106768900D01*
X79662100Y-104880000D02*
X77882500Y-106659600D01*
X88917900Y-104880000D02*
X79662100Y-104880000D01*
X77825500Y-106825900D02*
X77700500Y-106950900D01*
X77825500Y-106825900D02*
X77700500Y-106950900D01*
X60990900Y-106950900D02*
X58540000Y-104500000D01*
%TO.N,Net-(J1-Pin_3)*%
X56755600Y-107795600D02*
X78091800Y-107795600D01*
X53460000Y-104500000D02*
X56755600Y-107795600D01*
X93965300Y-106425300D02*
X97500000Y-109960000D01*
X79462100Y-106425300D02*
X93965300Y-106425300D01*
X101990000Y-110500000D02*
X101450000Y-109960000D01*
X101450000Y-109960000D02*
X97500000Y-109960000D01*
X78091800Y-107795600D02*
X79462100Y-106425300D01*
%TO.N,Net-(J1-Pin_2)*%
X96480500Y-113519500D02*
X53184300Y-113519500D01*
X53184300Y-113519500D02*
X51993300Y-112328500D01*
X97500000Y-112500000D02*
X96480500Y-113519500D01*
X94480000Y-119080000D02*
X86000000Y-119080000D01*
X96500000Y-121100000D02*
X94480000Y-119080000D01*
%TD*%
M02*
