%TF.GenerationSoftware,KiCad,Pcbnew,9.0.3*%
%TF.CreationDate,2025-08-18T10:50:28+02:00*%
%TF.ProjectId,gopher-arcade,676f7068-6572-42d6-9172-636164652e6b,rev?*%
%TF.SameCoordinates,Original*%
%TF.FileFunction,Legend,Top*%
%TF.FilePolarity,Positive*%
%FSLAX46Y46*%
G04 Gerber Fmt 4.6, Leading zero omitted, Abs format (unit mm)*
G04 Created by KiCad (PCBNEW 9.0.3) date 2025-08-18 10:50:28*
%MOMM*%
%LPD*%
G01*
G04 APERTURE LIST*
%ADD10C,0.150000*%
%ADD11C,0.127000*%
%ADD12C,0.200000*%
%ADD13C,0.120000*%
%ADD14C,0.152400*%
%ADD15C,0.254000*%
G04 APERTURE END LIST*
D10*
X68533333Y-120335009D02*
X68676190Y-120382628D01*
X68676190Y-120382628D02*
X68723809Y-120430247D01*
X68723809Y-120430247D02*
X68771428Y-120525485D01*
X68771428Y-120525485D02*
X68771428Y-120668342D01*
X68771428Y-120668342D02*
X68723809Y-120763580D01*
X68723809Y-120763580D02*
X68676190Y-120811200D01*
X68676190Y-120811200D02*
X68580952Y-120858819D01*
X68580952Y-120858819D02*
X68200000Y-120858819D01*
X68200000Y-120858819D02*
X68200000Y-119858819D01*
X68200000Y-119858819D02*
X68533333Y-119858819D01*
X68533333Y-119858819D02*
X68628571Y-119906438D01*
X68628571Y-119906438D02*
X68676190Y-119954057D01*
X68676190Y-119954057D02*
X68723809Y-120049295D01*
X68723809Y-120049295D02*
X68723809Y-120144533D01*
X68723809Y-120144533D02*
X68676190Y-120239771D01*
X68676190Y-120239771D02*
X68628571Y-120287390D01*
X68628571Y-120287390D02*
X68533333Y-120335009D01*
X68533333Y-120335009D02*
X68200000Y-120335009D01*
X69200000Y-120858819D02*
X69200000Y-120192152D01*
X69200000Y-120382628D02*
X69247619Y-120287390D01*
X69247619Y-120287390D02*
X69295238Y-120239771D01*
X69295238Y-120239771D02*
X69390476Y-120192152D01*
X69390476Y-120192152D02*
X69485714Y-120192152D01*
X70247619Y-120858819D02*
X70247619Y-119858819D01*
X70247619Y-120811200D02*
X70152381Y-120858819D01*
X70152381Y-120858819D02*
X69961905Y-120858819D01*
X69961905Y-120858819D02*
X69866667Y-120811200D01*
X69866667Y-120811200D02*
X69819048Y-120763580D01*
X69819048Y-120763580D02*
X69771429Y-120668342D01*
X69771429Y-120668342D02*
X69771429Y-120382628D01*
X69771429Y-120382628D02*
X69819048Y-120287390D01*
X69819048Y-120287390D02*
X69866667Y-120239771D01*
X69866667Y-120239771D02*
X69961905Y-120192152D01*
X69961905Y-120192152D02*
X70152381Y-120192152D01*
X70152381Y-120192152D02*
X70247619Y-120239771D01*
X71247619Y-120858819D02*
X70676191Y-120858819D01*
X70961905Y-120858819D02*
X70961905Y-119858819D01*
X70961905Y-119858819D02*
X70866667Y-120001676D01*
X70866667Y-120001676D02*
X70771429Y-120096914D01*
X70771429Y-120096914D02*
X70676191Y-120144533D01*
X71197142Y-120025000D02*
X72202857Y-120025000D01*
X71699999Y-120527857D02*
X71699999Y-119522142D01*
X71197142Y-134375000D02*
X72202857Y-134375000D01*
D11*
%TO.C,U2*%
X102445000Y-113010000D02*
X104045000Y-113010000D01*
X104045000Y-109890000D02*
X102445000Y-109890000D01*
D12*
X100845000Y-110500000D02*
G75*
G02*
X100645000Y-110500000I-100000J0D01*
G01*
X100645000Y-110500000D02*
G75*
G02*
X100845000Y-110500000I100000J0D01*
G01*
D13*
%TO.C,SW1*%
X35900000Y-119400000D02*
X35900000Y-134600000D01*
X35900000Y-134600000D02*
X51100000Y-134600000D01*
X51100000Y-119400000D02*
X35900000Y-119400000D01*
X51100000Y-134600000D02*
X51100000Y-119400000D01*
%TO.C,R2*%
X86000000Y-109960000D02*
X86000000Y-110730000D01*
X86000000Y-118040000D02*
X86000000Y-117270000D01*
X84630000Y-117270000D02*
X87370000Y-117270000D01*
X87370000Y-110730000D01*
X84630000Y-110730000D01*
X84630000Y-117270000D01*
%TO.C,Brd1*%
X56300000Y-107850000D02*
X83700000Y-107850000D01*
X56300000Y-135150000D02*
X56300000Y-107850000D01*
X56722000Y-111145000D02*
X79822000Y-111145000D01*
X56722000Y-127745000D02*
X56722000Y-111145000D01*
X65001000Y-108339000D02*
X65001000Y-110752000D01*
X65001000Y-108339000D02*
X74780000Y-108339000D01*
X74780000Y-108339000D02*
X74780000Y-110752000D01*
X74780000Y-110752000D02*
X65001000Y-110752000D01*
X79822000Y-111145000D02*
X82908000Y-111145000D01*
X79822000Y-127745000D02*
X56722000Y-127745000D01*
X79822000Y-127745000D02*
X83162000Y-127770000D01*
X83162000Y-111133000D02*
X82908000Y-111145000D01*
X83162000Y-127770000D02*
X83162000Y-111133000D01*
X83700000Y-107850000D02*
X83700000Y-135150000D01*
X83700000Y-135150000D02*
X56300000Y-135150000D01*
D11*
%TO.C,LS1*%
X64500000Y-120525000D02*
X64500000Y-132525000D01*
X64500000Y-132525000D02*
X67750000Y-132525000D01*
X67750000Y-120525000D02*
X64500000Y-120525000D01*
X73250000Y-120525000D02*
X76500000Y-120525000D01*
X76500000Y-120525000D02*
X76500000Y-132525000D01*
X76500000Y-132525000D02*
X73250000Y-132525000D01*
D13*
%TO.C,SW2*%
X88900000Y-119400000D02*
X88900000Y-134600000D01*
X88900000Y-134600000D02*
X104100000Y-134600000D01*
X104100000Y-119400000D02*
X88900000Y-119400000D01*
X104100000Y-134600000D02*
X104100000Y-119400000D01*
%TO.C,R1*%
X54000000Y-109960000D02*
X54000000Y-110730000D01*
X54000000Y-118040000D02*
X54000000Y-117270000D01*
X52630000Y-117270000D02*
X55370000Y-117270000D01*
X55370000Y-110730000D01*
X52630000Y-110730000D01*
X52630000Y-117270000D01*
%TO.C,J1*%
X47000000Y-105880000D02*
X47000000Y-104500000D01*
X48380000Y-105880000D02*
X47000000Y-105880000D01*
X49650000Y-103120000D02*
X62460000Y-103120000D01*
X49650000Y-105880000D02*
X49650000Y-103120000D01*
X49650000Y-105880000D02*
X62460000Y-105880000D01*
X62460000Y-105880000D02*
X62460000Y-103120000D01*
D14*
%TO.C,U1*%
X90515000Y-104055000D02*
X96865000Y-104055000D01*
X96865000Y-113325000D02*
X90515000Y-113325000D01*
D15*
X89941000Y-103736000D02*
G75*
G02*
X89687000Y-103736000I-127000J0D01*
G01*
X89687000Y-103736000D02*
G75*
G02*
X89941000Y-103736000I127000J0D01*
G01*
D11*
X92369903Y-105261000D02*
G75*
G02*
X91454097Y-105261000I-457903J0D01*
G01*
X91454097Y-105261000D02*
G75*
G02*
X92369903Y-105261000I457903J0D01*
G01*
%TO.C,S1*%
X65500000Y-103500000D02*
X68500000Y-103500000D01*
X65500000Y-104200000D02*
X65500000Y-103500000D01*
X65500000Y-107500000D02*
X65500000Y-106800000D01*
X68500000Y-103500000D02*
X70500000Y-103500000D01*
X70500000Y-103500000D02*
X72500000Y-103500000D01*
X72500000Y-103500000D02*
X75500000Y-103500000D01*
X75500000Y-104200000D02*
X75500000Y-103500000D01*
X75500000Y-107500000D02*
X65500000Y-107500000D01*
X75500000Y-107500000D02*
X75500000Y-106800000D01*
%TD*%
M02*
